<mxfile host="app.diagrams.net" agent="Mozilla/5.0 (Windows NT 10.0; Win64; x64) AppleWebKit/537.36 (KHTML, like Gecko) Chrome/141.0.0.0 Safari/537.36" version="28.2.8" pages="2">
  <diagram name="페이지-1" id="w1ouYxV0o7LeW6zptAUe">
    <mxGraphModel dx="1489" dy="803" grid="1" gridSize="10" guides="1" tooltips="1" connect="1" arrows="1" fold="1" page="1" pageScale="1" pageWidth="827" pageHeight="1169" math="0" shadow="0">
      <root>
        <mxCell id="0" />
        <mxCell id="1" parent="0" />
        <mxCell id="grUp4rkr8outrmsbAR2F-2" value="MariaDB" style="text;strokeColor=none;fillColor=none;html=1;align=center;verticalAlign=middle;whiteSpace=wrap;rounded=0;fontSize=16;labelBackgroundColor=none;fontColor=#EEEEEE;" parent="1" vertex="1">
          <mxGeometry x="384" y="640" width="60" height="30" as="geometry" />
        </mxCell>
        <mxCell id="grUp4rkr8outrmsbAR2F-6" value="Client" style="text;strokeColor=none;fillColor=none;html=1;align=center;verticalAlign=middle;whiteSpace=wrap;rounded=0;fontSize=23;labelBackgroundColor=none;fontColor=#EEEEEE;" parent="1" vertex="1">
          <mxGeometry x="145" y="355" width="90" height="50" as="geometry" />
        </mxCell>
        <mxCell id="4LaL1iU1O6QQDgwiPbJz-9" style="edgeStyle=orthogonalEdgeStyle;rounded=0;orthogonalLoop=1;jettySize=auto;html=1;exitX=1;exitY=0.25;exitDx=0;exitDy=0;" parent="1" source="4LaL1iU1O6QQDgwiPbJz-1" edge="1">
          <mxGeometry relative="1" as="geometry">
            <mxPoint x="452.33333333333326" y="368.33333333333326" as="targetPoint" />
          </mxGeometry>
        </mxCell>
        <mxCell id="4LaL1iU1O6QQDgwiPbJz-1" value="" style="shape=image;imageAspect=0;aspect=fixed;verticalLabelPosition=bottom;verticalAlign=top;image=data:image/png,iVBORw0KGgoAAAANSUhEUgAAAgAAAAIACAYAAAD0eNT6AAAABHNCSVQICAgIfAhkiAAAAAlwSFlzAAAOxAAADsQBlSsOGwAAABl0RVh0U29mdHdhcmUAd3d3Lmlua3NjYXBlLm9yZ5vuPBoAACAASURBVHic7N13nBT1+cDxz2y9ftwdR0d6BwVBwN67ib0n0SRqTPzFJJqi0TSjSUxMYjSmaIzGaDSW2BPEBoqAKL3Xg4O747hetpf5/TGAdO5mvrszu/u8X699gXLzfB+O251nvhWEEEI4WQ/gu8BHQDMQB6qAJ4ET7EtLCCGEEKlyKVAH6Id4PQMU2ZWgEEIIIdQpBf7KoW/8e74WAhW2ZCqEEEIIJU4Hqun6zX/XayXQ14Z8hRBCCGFBPvAQkKT7N38pAoQQQogMdBGwEfM3/j1fK4Ce6U1fCCGEEN0xCvgvam78e74WY6weEEIIIYSDlAF/AGKov/nves3GGFYQQgghhM0qgJ8CTaTuxr/n6yXAlY6/mMg8mt0JCCG6rAcwAhi2x6sfUI7xRLnrdaAP/ODOVzvQAbQB9TtfDcB2jJnnm4DNQDR1f42c1Be4Hfga6V+z/2vgB2luU2QAKQCEcCYNGAsct/N1LMZ4cTokgRqMYmDf10aMgkF0zUTgZuB6wG9jHjcCf7OxfeFAUgAI4RwujJv9BcBlGE/4TtSCUQyswlh2tuvXTXYm5SClwJXAl4Djbc5llzhwGvCh3YkI55ACQAj7DQW+CVwN9LY5FyuaMIqBPQuDVRhb2Wa7QuBMjMLtEpw5+a4GmIwx7COEFABC2Ggy8C2MG7/H5lxSqQ3YwP49BlUYE9Uy1SDgbOAM4DyMIsDpZmEUKnGb8xAOIAWAEOk3Ffg9Rnd/LmsDVmMUBxv3eTntKdUDjMf4N5u+8zXC1ozMuxf4kd1JCPtJASBE+vQFfokxNizvvUPrZO+CYBOwDWM4oQ6jQEikoF0/MBxjwuUIYCQwGjiS7DlxLwGcBMy1OxFhL/kQEiL1XMB3gJ8AxTbnki2SwA6MeQet+7w6d35NO/sXCQUYN3kPxr9F5R6vPhgT+HLBRowVCp2H+0IhhBDm9AJmkJ5NX+SVxa8epT30oYOHqoz5KCKnue1OQIgsdgowE5hkcx4ig/l9fkaNGMXI4SMp61EGQGtbq4rQR2MsC6xSEUxkHhkCECI17sCYbCVFtjBF0zQGDhjI0EFDcbv3/jFatWYVdfVKVleuwRgKiKgIJjKLfDgJoZYG/BZjlrXswS5MqSiv4MjxR9KnVx9crv1/jCoqKmhpaSESsXzf7okxT2KW1UAi80gPgBDquIG/ADfYnYjITKWlpQwbPGx3V/+hRKNRFixcQCRquQiIAuMwlmOKHCI9AEKo4Qf+DVxrdyIi81SUVzBu9DiGDhpKfl7XNhF0u90UFxezfcd2q827MVZAvGg1kMgs0gMghHUa8AzGjn72JqJpeD3e3f+toxOLxWzMSByMpmn069OP0cNG4/K4SOpJU3E2bd5E1RbL8/h04ARkb4CcIgWAENbdB/wwHQ15PB56lJZRUlxCSVEJxUVF5Pnz8fv9+H3+A44XAySTSeKJONFolEg0QiQSIRKNEAqHCAYDBHa+gqEguq6n46+Ss/Lz8hkyaOheT/vRWJTOYIepeLqus3DJQtra26ymNh/j1EmRI6QAEMKaG4DHUtlAWY8y+vbuS++evSkvqzjoTV4FXdcJhoK7C4JAsJPOQICOznY6OjpIJFOx+V720zSNXj17MWzwMPr16Y+m7f/R297ZRjxhbov+YCjIgoULSCQs//ucD/zXahCRGaQAEMK884GXAe/hvrC7fD4fgwYMZsgRQygtccbmdLquEwgGaO9op6OznfaOna/OduJxOVtmX5qm0bO8JwP6DaB/3wGHHduPxWN0BNpNt1e9rZr1G9ebvn6nBcA0q0FEZpACQIgD82Ac0zty52sEcATGZKneGDv8Kb/xez1eRg4fxcihI/F4MueAwGAoSEdnO23tRkFgFAdtOTf/wOVyUVlRSf++A+jftz95/rxuXd8RaCcWN/c903WdTxZ9QkenuaGEPZwH/M9qEOF8UgAIYRiKMQlqys7XRNJ8pvuwwcMYP3oCPp8vnc2mVCgc+qynoKNtd49BNBq1OzUlXC4X5WUV9KqopLJnLyrKKvbbtKc74ok47Z3mx/LbO9r5dNGn6FiaxzEHONFKAJEZpAAQuaoQ4yz3M3e+htmVSH5+PsdMnErvyt52pZB20WiUzkAnncFOAoHOnb8PEAh0EgqH7E7vgFwuF8VFJfQoKaW0tAdlpWWWb/gH0h5oJ26yFwBg1dpV1G23vEvgMcCnVoMIZ5MCQOSSfIxx+yt2/lpgbzrQt3dfph09Ha9X+WhCxkokEruLg2AwSCgcJBwOEwqHCEfChMNhorHU9CC43W4K8gsoyC+ksKCAgvwCCgsKKSkupaS4JKUTMHeJxaN0BMx340eiEeYtmGd1QuAzwBesBBDOJwWAyAUjgZuB64HDb7GWJkMHDeXoIycfcEa4ODRd14nGokSjUWKxKNFYjHg8RiKZJJFIoOtJYgeYmOh2uXG73WiA1+fD5/Xi9frw7Xw5ohDToa2z1dKKCwV7A0SBIUCtlSDC2eSTR2Sz44G7Mbr6HfWzPm7UeMaOGmt3GsKhwpEwwXDA9PXxeJyPPv7I6uqMH2EcaCWylBxWIrLRCcC7GJOZzsFhN//Rw0fLzV8ckt/nt9Qz5PF4OGLAEVbTuB6HvXeEWlIAiGwyEHgO44zz02zO5YCGDBrKhLFH2p2GcDhN0/B6ra0GGdh/oNUJisOAkywlIRxNDgMS2cANfB94AZhkcy4H1adXH6ZPni5j/qJLNE0jGjN/0p/L5SIcCdPRYWlfAA14xUoA4VzSAyAy3VDgfeBXOGBW/8Hk5+Uz9ehpcvMXXeZ1ey2vOhjYf6DVNC7COOlSZCEpAEQmux5YgcM3LdE0jWmTp+P3yeeo6AYNfBaHAQoLCulR2sNKiFLgdEtJCMeSAkBkIh/wJ+AJ0rxbnxkTxkygsqLS7jREBvJ5rReNA/oNsBriUstJCEeSAkBkmh7A28DX7U6kK4YNHsao4aPtTkNkKI/bg0uz9jFdWVlpdXvpC5H5YllJ/lFFJukHvANMtTuRw/F6vEyacDRjR42zOxWR4RLJhKVd/TRNIxqN0tZu+oyBAmAGsM10EsKRMue4MZHrBgCzMSb9OYbX6zV2kPN48fl8FBUWUV5WwcB+AzPqND/hXF6Pj0jU/GoAgMqelVRvq7YS4ixgnqUkhOPIJ5TIBL0xnvzTfvP3+/30KOlBUWHRHq9i8vLyLE/QEqIrvF4vmqah6+ZP+CstLcXn81k5hfEs4GemExCOJAWAcLoSYCYwKh2NFRYUUllRSc+KSnqW96S4qDgdzQpxUBoabpebeML8tr4aGpUVldTU1ZgNMRXjvdhuOgnhOFIACCdzA08DKd06Lz8vnwH9BjCg30B6lvdMZVNCmOJ1ey0VAGAMA1goADzANIwJuCJLSAEgnOy3wOdSFbx/3wEMHzKcyopK2aBHOJrb4zHO57OgrKwMj9tjpZA4FikAsooUAMKpLgG+lYrAfXv3Y9zocZSVOuZkYCEOyeuxfkyxS3NRWlpKU3OT2RDHWk5COIoUAMKJBgF/Ux20smcvjp4wiZLiUtWhhUgpTdNwaS6SetJSnB6lPawUANMwzgYwPxtROIoUAMJpNOBJQNnjudvt5sixRzJ8yAhVIYVIO4/HQzRmbRygtMRS8VuGceKmpfWEwjmkABBOcxNwiqpgFWUVTD16GkWFRapCCmELt9sNMWsxSkpKrC4pHI8UAFlDtgIWTtIPuF9VsAH9BnLK8afKzV9kBbdm/XnN7XJbXdo6wXISwjGkABBOci/G6WOWjRg6kumTp1s+TlUIp3B51PwslxSXWLlc9rbOIjIEIJxiEnCdikATxkxg9IgxKkIJ4RhuTc3RLQUFBVYuH6YkCeEI8ngknOJXKPh5HDZ4uNz8RVbSNE3JfhUF+ZYKgMGWExCOIQWAcIJjMfYat6RPrz5MmjBJQTpCOJOKIa3CgkIrl/cF8iwnIRxBCgDhBJYPGSktLmX6lGNlRz+R1VwKhgH8eX4rhYSGsU+HyAJSAAi7HQWcaSWAy+Vi6tHTlOyWJoSTuRQUuBoa+Xn5VkL0tZyEcAQpAITdvm01wOgRo+lR2kNFLkI4muZS08Pl81k6ylpOzMoSUgAIO1UAV1sJUFJcwpgRYxWlI4SzaZqaj2yLBUClkiSE7aQAEHa6AvBbCTDlqCmy1l/kDA1FPQBe6QEQUgAIe11r5eI+vfpSUS6fRSJ3qJrkarEHwNIEAuEcUgAIuwwBjrMSYOwo6foXOUbRIheLkwDb1GQh7CYFgLDLtVj4OOvTqw8VZRUK0xHC+VQtci0qsnQ+xqeK0hA2kwJA2OUaKxePGSlP/0KYVVhQaPZQoBrgQ8XpCJtIASDsMGbny5SS4hJ6yti/yEnqNroaNsTUtv73AFFlSQhbSQEg7HCGlYsHDRysKA0hMo2uLFJFeQWDBnZrU7/ngMeUJSBsJwWAsIPpAkDTNAYNkJ1IRW7SdXUFAMDwocMZNmTY4VYXJIHfA19AZQUibCfHAYt08wCnmL24d2VvqzOYhRB7GHzEYHpV9mLrtq00tTQRCoV2/VE18A7wCLDItgRFykgBINJtGlBi9uKB/Y9QmIoQmUV1D8AuBfkFjBoxavd/uxPu6TPnzPw4JY0Jx5AhAJFulsb/e1f2VpWHEBknVQXAvrRCrTotDQlbSQEg0u1YsxeWFJdI97/IaUk9mZZ2jo0c25CWhoStpAAQ6TbR7IW9K/uozEOIjKMnU98DoKHpP53103jKGxK2kwJApNMAwHQfvnT/i1yXTMMkfM2lpaebQdhOCgCRTqaf/jVNo7JCTiEVuS2ZTKS8DU3TQof/KpENpAAQ6TTZ7IXFRcV4PLJoReS2dEwC1DStPeWNCEeQAkCk01FmL+xR2kNlHkJknGQymZ4CAE0mAOYIKQBEOo02e2FZaZnKPITIOIk0dP8DaJpWk5aGhO2kABDpogGDzV7cQwoAkeOSibQVAOvT0pCwnRQAIl36AaYX8ZeWlCpMRYjMk64eAD3pmpOWhoTtpAAQ6WLq7FEAv9+P3+dXmYsQGSeeSMPSfA2Snth7qW9IOIEUACJdhpq9sDC/UGUeQmSkdPQAuHDF3nrrreaUNyQcQQoAkS6mC4CCggKVeQiRcdK1AsDlcrWkvBHhGFIAiHTpa/bCAukBEDkuLd3/gKZpa9PSkHAEKQBEuvQye2Gh9ACIHBeLx9LSjktzvZuWhoQjSAEg0sX0Pr7SAyByXbp6APDxbHoaEk4gBYBIF9MFQH5enso8hMgouq6TSEMB4NJcsf/+97/rUt6QcAwpAES6mD7KzydLAEUOiyfS1P3vdm9LS0PCMeR0FZEOfqDY7MVer1dhKkJklmhMbQGQTCapb6infkc9gUCAeCJOnj+P/Pz8CHA0sEhpg8KxpAAQ6VBk9kJN0/B6pAAQuSuucAJge3s7K9esJBgK7vX/O+OddAY6RwMLgaeAW4BOZQ0LR5IhAJEOpgsAr8eLpmkqcxEiYySSCWUbALW2tbJo2aL9bv4H8CVgBiDLb7KcFAAiHUxP45fuf5HLYoq6/2OxGCtWrSDR9QOFjgd+raRx4VhSAIh0MN0D4PP5VOYhREaJxiJK4myt2Uok2u1YN2PhDA/hfDIHQKSD6R4At8utMg+lItEItdtraWtvIxaPke/Po2dFT3r17I3LJbW1sCaZTCpZ/5/Uk9TU1pi51A1cC9xjOQnhSFIAiHQwPZboxBtpPB5n5doVbKjaQDKZ3PsP10N+fj5HjZ3IwP4D7UlQZAVVT/+NjY1EY1Gzlx+jJAnhSFIAiHQwPZDvtAIgGovy4fwPaW5pOujXhEIh5i+cx9barUw5aooMYwhTLNy091JTZ+rpf5dyJUkIR3LWp6vIVqZ/zpy2AuDjhfMPefPfU03dNt6ePZOGpoYUZyWyTSIRV9L9Hw6HaWmxdMBfh+UkhGNJASDSwXRPk5N6ADZv3cz2Hdu7dU0wFGT23FksW7WsOzOwRY4LR8NK4tRur0XH0jHCC5QkIhzJOZ+uIpuZnsnn0pzxI5pIJFi5ZoWpa3VdZ+2GNcyc9RY7GncozkxkG13XlXT/67pO3fY6q2Fet5yIcCxnfLqKbGe6ANAc0gOwduParmygckidgU4+mDebRcsWKVvfLbJPNBZF1y09tQPQ2NRIOGKpJ2E18InlRIRjySRAkQ4ZPQcgEomwdsMaJbF0XWfj5g1sra1m7MhxDB8y3BF/R+Ec4UhISZzN1ZuthnhKQRrCwZzxeCWEg61Ys5x4XO1xrNFolCUrFvPenPdobm1WGltkrmgsqmTr38amRto72q2ESALPWE5EOJoUAEIcQlt7K1XVVSmL39zSxLsfvMP8hfPoDMjZK7kuomjyX9UWyz+zM4CtClIRDiZDAEIchK7rLFy2SMl47OFsrdlKTV0NQwcNY+zIsfj9/pS3KZwlHo8TU3DyX1Nzk9Wnf4A/Wk5EOJ4UAEIcRFV1FU3NjWlrL5lMsqFqPZurqxgyaAijho8mPy8/be0Le4Ui1iaZ7rJpyyarITYCbylIRTicFABCHEAkGmH56mW2tB1PxFm/aT2btmxi2OBhjBo2mry8PFtyEekRS8SUPP03NjXS3m756f9PGHMARJaTAkCIA1i2cinRqJqtWM1KJBKs27iODVUbGDRgECOHjaKkuMTWnERqhMLWZ/4nk0nWbVhnNUw78HfLyYiMIAWAEPuoq69l89bNdqexWzKZpKq6iqrqKvr27suIoSPpXdnb7rSEItF4lLiCp/9NmzepKCQeBlotJyMyghQAQuwhEo3w6ZJP7U7joOrq66irr6OosIghg4YyZOAQmTCY4UIWN5gCCAQCVG+rthomCPzBcjIiY0gBIMQeFi1baHX3tLToDHSyfNUyVq5ZQb8+/Rk6aKj0CmSgcCSkZN3/mvVrVKxWeRSQk6tyiBQAQuxUVV3FttptdqfRLclkkm21W9lWu5WiwiKGDhrG4IGDpVcgAySTSUIKdv2r3V5La5vlXvtO4FeWkxEZRQoAIYDWtlYWL19kOU7PHsUEQhFCkfRPIOwMdLJs1VKWr15G78reDOg3kP59++Pz+tKeizi8YDhg+ak9FA6xfuN6Fen8DqhXEUhkDtOHtAjRDUcBF5u5sEdpD/r37a84nb1FY1E+mDebSCRiOdbTv7qFX377SrZub2LVphoF2ZnTGeikdnst6zaupb6hHl3XKSoqwu2St7wTRKMRy0//uq6zdMVSQiHLvQiNwFWA9TeAyCjyaSDSwbEFgK7rzPtkrpL9+K84exp3f+0iSoryufzsaUwcPYj5yzbQ1qFmgxezgqEgdfW1rN+4npbWFgAKCwpxOeSkxVyjJ3U6Qu1gcch+Y9VG6huUPLTfCXygIpDILFIAiHRwbAGwdOUSFbOnKS8t4vU/fpeigs827Bk9pB9fu/w08vN8fLJiE9GY2gOFukvXdTo6O9hWt411G9fS0LiDSDSCz+uTOQPpokNnqINEwtrEv4bGBhVr/gFWAjcgG//kJCkARDo4sgBYvW41a9avVhLrj3ddzwlHj9rv/3s9bk6aPJobLzuVSDTOpyur0nK2wOHouk4gGKC+oZ6NmzewZetm2jvaSSYTFORL70CqhKMhIlFrPe2dgU6Wrliq4udIBy4DUnfalXA0KQBEOjiuAKjasoklK5coiXXByZO4/ztXoWnaQb+mIM/POSccxaVnHkNzWyerN9XggDpgt1gsRktbC9tqt7F+4zoamxsJh0O4NI28vPxD/t1E18QTcQKhgKUYkUiExUsXE4tZ3zgI+Cey7j+nybtapMOXgH+YuXDQwMFMnTRVaTJbtm3hk8ULlDyJ9yovYcmLv6RPz9JuXbdqYw33//11/vXmXBJJZ/e+ut1uykrL6Fnek16VvelZ0VMmE3aTntRpC7SStPBvHY/HWbhkoapjo3cA45F1/zlN3sUiHRzTA7Bu4zoWLVuoJJamaTz/21uZNHpQt6+tLC/h4tOncPlZ02htD7By4zZH9QjsSdd1gqEgjc2NbNm2hXUb17GjcQeBYIBkMoHX68PjlhXFB6PrxqQ/K+P+8XicxcsX09HZoSqt6wHnbnkp0kJ6AEQ62N4DoOs6K9esYLWiMX+Ab15zFn+440tKYq2pquW+R1/luf/Nc3yPwIEUFhRSXlZOeY9yynqUU1ZahscjRQE6dIY7LB0stevmr+CUv13+jbHsT+Q4KQBEOthaAMRiMT5eNJ+6+jpLcfY0dfwwZj95N36fV1lMgA3V9fz53+/wxCuzabV5+aAVmqZRUlRCWVk5PUp6UFpSQmlJD/y+3FptEAwHLG0tHYlGWLp8qcon/xpgIsbaf5HjpAAQ6WBbAdDS2sL8hfNUjZsC0LuilE+e+zkDepcri7mvQCjCP1+fwyPPvs3KjZm1PfGh5PnzKC0pNV7Fxq8lxaW43dk3GhmKBC2dzhcIBliyfAnhsLKzKeLA6ciaf7GTFAAiHdJeACSTSdZtWsfKNSssTbzal8ft5u3H7uDkKWOUxTycOYvX8vAzM3n53U+JW1w/7lQ+r4+S4hJKiksoLCyiqKCQkuISiotKMnIFQjgSJhg2P+O/samRlWtWEo8r3TvibuA+lQFFZpNBOpF1arbXsHzVMpXdprs9eMcX03rzBzhh0ihOmDSKLbWN/PWFd3nqtTnUNrSkNYdUi8aiNDY30ti8d8+0y+WiuLCYoqIiCgsKKcgvpLDgs5cT5xmEIiFCYXPDN7qus2nzJjZXb1abFPwP+KXqoCKzZV5pLTJRynsAdF2nvqGelWtX0tzSZKapw/re9edz/21XpyR2dySSSd6dv5Kn35jDy+9+SiCUu1u4+31+CgoKKSwooCDfeOXl5ZOfl2/83p+X1k2NgqEg4ai5bv9AMMCqNato71A22W+XtcB0wPKRgSK7SAEg0iFlBUA4EqZ6WzUbN29QOs6/r2vOO45//vLrjuuO7gyG+c+7n/L063N4b8FKkkmHriW0UZ4/j/x8oyjw+/zk5eXh9/mNlz+PPL8fvy8Pn89nvljYucVvNNb92f6JRILN1Zup3latdLhqp2aMm7+SIwNFdnHWp5nIVsoKgGQySUtrMw1NjdRur6G5tTnlW+ueMX08bzzyXXxe53U376lmRwvPvPkRz/1vHkvWbLE7nYzk8/l2FwZ+n588fx5+vw+/Lw+/z4fX68Pn8+HzGi+v14uu63QGO4gnujden9ST1G2vo2pLlZKTKA8gApwLvJ+K4CLzSQEg0sF0AVBR3pM+vfrQ0dlBZ2cHre3WdlPrrtOnjePVh2+nIM+XtjZV2FzbwCvvLeS19xfy4cK1Gbm3QKbweDx4PV7jV6/3kP+9a85CU3MTNXU1qbrxgzHj/wrg5VQ1IDKfFABCFQ8wBpgAHAkMBfoBA4CeQKF9qZlz5rHjeeWh28j3Z9bNf1+NrR28MXsxr763kJlzlxOKmN+URmQEHfgK8KTNeQiHkwJAWDEYuAhjbfFJQImt2Sh0wcmT+PcD38z4m/++guEob320jBlzlvLO/BVU1chW8FkmCdwC/MXuRITzSQEguqsI+CJwHTCVLPwZuvmK03n4h9fhzoEjcTdU1/P2/OW8O38l7328MqN3HxQkgBuQJ3/RRVn34S1SpifwXeBrQA+bc0kJTdO495uXc+cNn7c7FVskkkk+XVnF2/OMguDj5RsIR5QcOyvSIwg8Avwa2epXdIEUAOJw/MD3dr6ypot/X+WlRTx579e44ORJdqfiGJFojE9XVjF36XrmLl7H3CXraWhRvkZdqNcBPIBRCCjbR1hkHykAxKGcAPwNGGV3Iqk0ZdwQnv/trQzuV2l3Ko63dnMdc5es56PFa5m7ZD1rN9elfBmmMG0dcBMw2+5EhDNJASAOxAP8CLgLyL5TWnbyuN3cft15/PQblyg/1S9XdATCLF23hYWrNrNoVRULV1WxpqpWNiRyjgTGFsA/w1gaKMRuUgCIfZVgnBd+jt2JpNKRI4/g8XtuZPLYIXanknU6AmGWrN3CwlVVLF69mRXrt7G6qkbmE9jrLeBKoM3uRIRzSAEg9lQBvIexjj8rlZcW8b0vn893vniu43f2yza1DS2s2ljDyo01LFpVxaqNNazeVEMwLPsSpMkyjCW7MkFQAFIAiM+UAu8AU+xOJBWKC/O45aoz+f5XPkeP4gK70xE7xRMJNm1rYN3mOtZt2c6G6u1sqK5nffV2tm5vkqEE9ZYCp2GcESBynBQAAqAYeBuYZnciqlWWlXDL1WfyzWvOoqwk4zYjzGnhSIyN2+pZt3k7m7btoLqukc01jWypa2RLbSNtnbJngUkLgDMBWdKR46QAEBrwPHCZ3Ymo4nJpnDJlDDdedhoXnz5FuvqzVEt7gC21RkGwubaR2vpm6hpbqa5roq6hlW31zbLt8cG9DFyKsW2wyFFSAIhvA7+3Owmr/D4Px08cycVnHMPFp0+hX2WZ3SkJB2hpD1Db0MLW7c3saG6nsaWDHU1txu9bO2hobqe+qZ0dzW25OBfhduB3dich7CMFQG6bDMwDMm4NXM8exUweO4Rjxg/lxMmjOX7SyIw7sU84SzAcNQqCrdU07miioS1AQ2uA+pYOmtqDtHSGaekI0dwRpKUjREtHiGBmr2yIAccBn9qdiLCHFAC5ywXMB46xO5FDGdSvJ+efOJEj+vVkcL9KBvXryeB+PeldUWp3aiJLaR1NEA506WsjsfjOosAoCFo6Q7v/+6mZi1i0vjbF2Vq2EGPuT8LuRET6yeBo7rqRFNz83S6NSUN7ceLY/owdWM7wPj1YtGkHtz/xgal4J08ezR/vul5tkkIo4vd66FNeTJ/y4v3+bNH6GtMFwG+/fBKTh/ViQ10bq7Y28cGqGhZv2kFC/aqIycDNGGcIiBwjBUBuygd+qjLgUYMr+eoZ47j8uBGUFvr3+rMN21tVNiVE1isp8DF1RB+mjuiz+/+1BSK8OG89FKR2AwAAIABJREFUj7+zkiVVSo9x/jHGCYJd6/YQWUMKgNx0M9DnsF/VBaP6l/GrL57A2ZMGqQgnhDiI0kI/Xz1jPF89Yzwzl2zhjqfmsKamRUXoXhifCb9VEUxkjuw/8FzsywV802oQTYPbPn80C35ztdz8hUizsyYO4uPfXM1tnz8aTc1Mrv9D7gc5R/7Bc89ZgKUN8D1uF0/eejb3XnscXrf8CAlhB6/bxb3XHsc/bj1bxftwMHC29axEJpFP79xzrZWLNQ3+eNOpXH7cCFX5CCEsuOy4ETz6jTNwWe8KuEZFPiJzSAGQW3zABVYCfOuCSXzplDGK0hFCqHDlCSP51ucmWQ1zAcZnhMgRUgDklulAD7MXD+/bgx9dkXXHBQiRFX58xTRG97e0A2YPsvA8EHFwUgDklpOsXPyTK6eT75OFI0I4kd/r5m7rBfrJKnIRmUEKgNwy1eyFR1QWc+HUoSpzEUIoduHUYQyqLLESYrqqXITzyeNcbhlv9sIvnjwGj8z475JwJMbcpevZVt+M26UxYlAfpowdisslO293RTKps2j1ZtZtqSMWTzCgdznHTRxBvl+Gpw/H7dL4wimjue+FBWZDmP6MEJlHCoDckY+x1MeU044cqC6TLNXU2snP//oyj/9nFoFQZK8/611Ryu3Xncet154txxMfRCye4I/PzuSBJ9+krmHv3SML8nx85eKT+dHNF1NZZukJN+udfuRAKwXAERifFSF1GQmnkke63NEXk4c/Ffg9TBneW3E62WX5+q1MvvIuHnrmrf1u/gD1TW18/3fPcvoNv6CxtcOGDJ2tua2TM2/8Jbf/5pn9bv5gnNT3x2ffZvIVd7NkzRYbMswcU4b1psBvusjUgP4K0xEOJgVA7jC99e8RPYtlw59DqG1o4dybf011XdNhv/ajxeu45FsPEo3F05BZZojFE1z6nT/wwcI1h/3abfXNnPeNX7N1++G/17nK43ZZnQegZJtw4XzyqZ479j+urIsGVpq+NCfc/ptnqG3o+p7scxav5ZHn3k5hRpnlz/9+h9mfru7y129vbOO2Xz+dwowy34CeRVYulzGqHCEFQO7IM3thUZ5MvjqYLbWNPP/Wx92+7rdP/pek+qNdM46u6/zuqf92+7r/vPspG7fWpyCj7FAs71nRBVIA5A7Td5t4Iqkyj6zy3zlL0PXuf2trG1pYvGaz+oQyzPL1W7s0dLIvXdd584MlKcgIC+8U54gnLb1nZblKjpACIHeYntUbisp49cFs2rrD9LUbLVybLax8DzZtS9X3L/MrgHA0YeVyKQByhBQAuaPZ7IXVDTJr/WA6AmHT17Z2BBRmkpnaA+ZXm7V1BBVmkl22NLRbuVze8DlCCoDcsdn0hTvaZRhA5A4TQzpOEk8kqaq3VABUqcpFOJsUALmjCTD1qRCNJ1hRLcuuRI7QM7vYXVHdRDRuegigA2hUmI5wMCkAcstmsxe+vbTadKNuC1vgJmSmvEg3axPodkskzP/sWnnPvGPhvYqFzwiReaQAyC0bzV44c7H53dd8HrfpayPRmOlrhTBFUQ9A2MJmT3kWtou2Uqxj4TNCZB4pAHLLR2YvnLu2lnW1Xd/sZk9+SwWArEAQaaQnIWlpBv1uYQvFq99r7j2zcXsbH62uNd0uMMfKxSKzSAGQW941e6Guw+PvrDR1rd9nvgCwMktciG5LqOtxag/sfyZEV5ktAB6duZyktUmMpj8jROaRAiC3LMPCBJ9/vL+Kxvbu35DLi0xvQsiO5jbT1wrRbXF1PU71LZ2mr60o7v57prE9xD/eX2W6TYyJwsusBBCZRQqA3JIEZpm9uD0Y5Z7nu7/tbc/ifLNNsqPZ0nKmlNMsbJnicsnbT7PwDbRy7UFjKuwB2NFqvgAw856594UFtAejptsE3sf4jBA5Qj6Bcs/LVi5+8r1VLN/SvU6EniXmC4DmtgChiKUPtZSqKDV/6ErPHnLIkpXvX2VZCr5/CTU9AIFwlDYLQwAV3XzPrKxu4u/vmhui28OrVgOIzCIFQO55CWgwe3E8keT6h2Z2a3vgAr+HkgJzh5Pouu7oLXNHDzV/dPrYYXLsupXvgZXv/UEpKgA21DSZOiMCoEehn7xuzAEIxxJ85Y9vW92sqxX4j5UAIvNIAZB7IoCls1RXb2vmO4/P7tY1g3uZP598Q7VzT30778SjyPN7u33d+OEDGDlIjl0f0r+SSaMHd/s6v8/DBSdPVJuMnoS4mt6m9TXmN84a0ru0W1//7b/N6nav3AE8CcjeyjlGCoDc9Fcsnnjy1KzV3Pfigi5//dBufqjtafWmGtPXplp5aRHfvPqsbl/3k29cmoJsMtOPv35xt6/5xpVnUllmvqg8oJi6oabVW8z3Wg3t3fW/130vLOCpWatNt7WHx1QEEZlFCoDctBZjwo8l972wgAdfX9ylr7VSACxevdn0tenws1suY9qEYV3++us+fyKXnnFMCjPKLBeeOpmbrzi9y18/cfQg7vm/y5TnocXMH+y0r8Ub6kxf29X3yoOvL+5WEX4I7wGWlg+IzCQFQO76iYogP3z6I25/4oPDrj0e1b/MdBuLHF4A5Pm9vPmn73H6tHGH/dpbrjqTx352QxqyyiwP3fklvnXt2Yf9ulOOGcPMR++gMN+vPomY+Ul7+1q03nyv1egB5Yf8c12Hu56Zyw+fNr2v177uURVIZBbzO7SITFcNTAeGWw306YZ6PtlQz8njBlCcf+DJfhoaf3tnhan4rR1Bvn7lGan50FckP8/HFy44gZGD+1LX0EptQ8vuQ+X8Pg/nHH8kf/vZjdx8xemy/O8AXC4X55xwFGdMH09DSzvV25t2T2pzuTSmjh/GL751JQ/cfm2Kfg50tE7TJ2bvpb6lkx898bbp6390+TR6lRYc8M9qmjr5woMz+NcHa0zH38cM4D5VwURmUb+QVmSSEcByQMknakmBj19cezxfOWP/J+FoPEGv6x41fUrZM/ffwtXnHms1xbRp7wyxrb4Zj8fNEX0qTE0UzGXhSIyt9U1EY3EG9q6gpMj8UtIuiYbR2tSsNnn6nSV88ZfPm7rW73Wz4x9fw+vev0j8z/wNfPOxWbR0KhuqiAFHAUomEYjMI48iuW098DtVwdqDUf7vsfc58YfP89qCTXsNC/g8bkYPMD8M8M685SpSTJuSonzGDuvPyEF95OZvQp7fy4gj+jBu2IDU3/xRO/7/zsINpq8dM6B8r5t/Utd5dcFGTrjzeb7w+xkqb/4Av0du/jnN/JFTIlv8DPgcMF5VwIUbd3DVb//LmAHlfOPcI7l42nDKi/OYPrIvyzabW640c25mFQAiw0TUrIDTdZ23LRQAx47qC0BTR5iX52/gT/9bypoac4dwHcZKFM0DEplLhgAEwERgPoqGAvbldbs4dlRfKkryeXm++Q/Hla/8mjFD+ynMTAggHkVr2a4k1Iqqeibc8AfT11967Ah2tAWZt7bO6sY+hxIBjgW6toRHZC3pARAAS4BvAo+mIngskeSDVdbX8r89b7kUAEI5TdHTP8DMhestXf/SPGvXd9E3kZu/QOYAiM88RooKAFVmzFlqdwoiG0XUHTn91idpuYFb8Siy6Y/YSQoAsadbgDftTuJgZs5dTn2THA8sFIpHQdEJgPUtnZYmAKbBmxjvcSEAKQDE3uLAFcCHdidyIEld5/u/e87uNEQWUdn9/50/vXnYDbFs9CHGe1vNaUciK0gBIPYVBM7F2B7UcZ7731yiMfkMEyroEA4oiRSJxXlhtmNXqryP8Z6Ww37EXqQAEAcSAC7AODrYUWLxBI88Z36XNSF2i4QgaW5jqn098sr8VM7at+Il4HyM97QQe5ECQBxMCKPL8JdYPDlQtef+O8/uFEQW0EKdymL96z3HTVDVgV8Al2O8l4XYjxQA4lCSwA+BiwA1G6UrsGLDNhJJRz5tiUyRiIGi3f/iiSQrN9criaVIE3AhcBcOK96Fs0gBILriNYzNgmbYnQhAKBLlxZlKjkEVOUoLdiiL9cLs5YSjjpmX8l+M9+rrdicinE8KANFVWzEmEn0RMH/YuSK/evw1dOfOuBZOlkwqm/wH8MDzjlg0UwtcizHev83mXESGkAJAdNfTGKcI/gxQ9xjVTUvXVvP+J3KOieg+LdSOqp7xmZ+uZ9H6WiWxTOrAeC+OBP5lZyIi80gBIMwIAD8FBmMcKNJgRxIPPPGGHc2KTKbrEFY3+e83/7bt6X8H8GNgEMZ7UWb5i26TAkBY0QzcAwwErgbeBdSsq+qCt+YuZ9m66nQ1J7JBqMMYAlBg8YZa3lmU1p3/EsDbwFUY77mfAyk5KlDkBikAhAoR4DngDKAfcDPGxMH2VDaq6zoPPOnYnYuF0ySTaCF1o1a/fu4DZbEOoQ14FbgJ6AucBfwbiKajcZHd5DhgkUoe4GhgCjAZGAsMB3qqasDtcrHkpV8wbtgAVSFFtgq0oQXVnCWxunoHR97wkOrNfxqADcAqYCHwKcapfY5ZYiCyixQAwg5FGE8zlTt//w+gj9lgnz/laF556DZFqYmspCfQmupAV3PDvuCuf/Dm/LVWQrQC12A84TdgrKxRNzlBiC5w252AyElRjPkDW4GNO//7XLPB1m6u48TJoxnSv1JReiLbaIE2iEWUxJq1dBN3PW55O+p7gb9jvAeakS59YQOZAyCc4HGM3ctMu/PB52RfAHFgiZgx+U8BXdf57l/+ZzVMB/AnBekIYYkUAMIJgsDfrAT4ZMUm/v3WfEXpiGyiBVqVxXrm3aUsXFdjNcxfkdn7wgFkDoBwigEYE6D8ZgMM6V/Jqld/jd/nVZeVyGyxEFqrmm0qwtE4Y778ezZvt3TvDmNMhLVcRQhhlcwBEE7RjrE6YLrZAK0dQfLz/Jx49Ch1WYnMpetobY3KJv796tnZvDxnpdUwDwEvKkhHCMukB0A4SU+MSYElZgP4fR4WPf8Lxgztpy4rkZmCbcbkPwXWbm1k4k0PWT30pw0YhsX5LkKoInMAhJM0Ar+1EiASjfP1n/9dJgTmukQMLahmH6qkrnPDA/9RceLfr5Gbv3AQGQIQTvMp8BWM/QFM2VLXSN/KMqaMG6IuK5E5dNDaGyGhZv+cP7/2MX95/WOrYeowTuuLWc9ICDWkB0A4TQBjjbQlP/j9s2yrb1aQjsg44Q5la/5rm9q56+8zVYS6BzmwRziMzAEQTuTF2A51uJUg5580kdf/+F01GTlUMqnz3oKVvDF7Mes21xFPJBnYp5zTpo3jsjOnWl4REY3FeemdT3jv45VsqW3E43Yx/IjenH/yJM6YPh63y2HPEIk4Wst2ZRP/Lvrx07z60SqrYdYD45Cnf+EwUgAIp7oKeNZqkKd+8XW+cMHxCtJxnsVrNnPjT/7GotWbD/jnfXqWcuu15/D1K0+ntKigW7HbO0P89cX3+MM/Z1DbcOBlb0eNOoLHfnqjo4ZatNZ6ZU///5i5iOvvVzJh/0rgeRWBhFBJCgDhVBrG0aenWwlSVJDHgmfvYfSQ7FoV8O7HK7no1t8RCB3+ZleY7+fMY8dz1nFHMmnMYEYP6btfQdDeGWLN5loWr97CzLnLeHveCjqD4cPGLsjz8dKD3+bs4440/XdRJtiubNOfDTVNHH3zH+kIWi4mZgGnATIrVTiOFADCyUYAy4A8K0EmjBjI/H/9jHy/T01WNqvZ0cLEy+6kqdX82TE+r4fiQuPb2hkME7Eww71HcQGLX/gFg/opO+Sx++JRo+tfgUgszrH/9xcWb6i1HAo4CrB0apAQqSKrAISTNWNMVD3VSpAdze10BEKce8JRarKy2W2/fpq5S9ZbipFIJgmFo4TCURIWj7QNR2O0tHVy0elTLMUxTU+ite1QNu7/rUfe4PV5q1WE+gnwiopAQqSC9AAIp/NhnIk+1mqgl37/bS626yalSGcwTOVJN1t6Yk8Fr8fNjg/+3O25BipoHY0QDiqJ9cb8NXz+7n+q2EdiJXA0csqfcDCHTeEVYj9R4GsoGEP96o8fZXOtmn3h7fLJik2Ou/kDxOIJPl62Mf0NhzqU3fy3NrRx/f0vqrj5JzF+ZuXmLxxNCgCRCeZg8bRAMM4KuPK7DxOKZO7n8vYmNVvbpkJ9unOLR5RN+gtFYlzyk6dpaldSTDwGfKQikBCpJAWAyBQ/ACzP8vpkxSa+fPdfM3ar4DwHn3SY1lMYk4mdB/1Y/3fUdZ3r7n+RT9cqOaCvDrhDRSAhUk0KAJEpWoDrUTAU8PxbH/Ozv7xsOSE7TBgx0O4UDmr88AHpaUjXja1+kwkl4X70xDu8MHu5ilA6cBOgpltCiBSTAkBkkreAB1UE+vlfXuaZNzOvl3b4Eb05cuQRdqexn7HD+jN2WP+0tKV1Nivb7Of5Wcv5xb9mKYkF/B54Q1UwIVJNlgGKTDMLOB/oazXQ/+Ys5fTp4xnQu9xyUunUs6yYF2ZaPpxGqYfuvC49PQDBdrRQh5JQc1dWc9GPnyZucRnkTouAawA13RJCpIH0AIhMEwGuRsHBKuFIjEu+/Xu21DZazyqNLjtzKtdfeJLdaex27fnHc+U501PfUCSAFlTTu161vYWLf/w0kZiSFRUBjJu/mm4JIdJEegBEJmrCmBB4odVAncEIb36wmMvOnLZ7Z7xMcP7JE2lo6eDTlVW25nHDJafw6E9vSP2hQNGwsd5fwdzNHa2dnPHdx6neoWyo/mbgHVXBhEgXKQBEploMjAQmWA3U3Bbg7XnLueLs6RTkZcZ2wS6Xi/NPmsT0o4azcsM2tjemdwnehBEDefyem7j9uvNSf/OPx9DaGpTM+G9sC3Dq7Y+zulrZfhAvAj9UFUyIdJKdAEUmK8UYex2qItgx44fy9qN3UlKUryJc2iSTOq/PXsRDz7zFrE9Wp2yJo6ZpnDR5NLdeezYXnjoZlysNHx+JGFrrDiUz/tsCYU67/W8sWm95j/9dqjB2+5NZ/yIjSQEgMt0YYB5GMWDZcRNHMOMvP6CoIHOGA/a0o7mdGR8t48WZHzNz7nKiFse43S4X048azgUnT+KSM45hxBF9FGXaBYkEWls9JKyP0wcjMc6940k+WKZsyKQTOB7jsCohMpIUACIbnAu8jqIhrTOmj+e1h28nz+/cTXe6oqU9wMJVVSxdW82K9VtZtm4rdY0ttHWE9tsNMc/vpbSogH6VZUwYMYDxIwZy1KhBTB47mPLSovQnn0wYT/6JmOVQ0XiCi370T/63YJ2CxABjq99LgFdVBRTCDlIAiGzxA+BXqoKdd+JEXvjdrVlzhPC+orE4bZ3GtrelRQX4vB6bM9pDcueTf1zNk/+lP3mGGZ8ou/mDsdPf/SoDCmEHKQBENnkc+IqqYCcePYrX/ni7LSfc5SyFN//WzjCfu+sp5qzYbD2vz/wT+JLKgELYRQoAkU3ygPcBZYvSxw8fwIy//oB+lWWqQoqDUTjmX9/SyTl3PMGSDXUKEtttIXAiEFIZVAi7SAEgsk0fYAGgbNP8oQN68dZff8Cwgb1VhRT7SsZ3jvlbv/lvqW/lzO89zvqaJgWJ7VYLTAWUnBgkhBNIASCy0VEYWwb3UBVwQO9y3vrrHYwZ2k9VSLFLPGqs81ew1G/l5nrO/sET1DS2K0hst1bgFGCpyqBC2E22AhbZaCnGeQGWtwveZVt9Mydf/3M+WLhGVUgBxg5/bWrW+b+/ZBMnfftR1Tf/AHAecvMXWUh2AhTZaivwMXAFoGSKezAc5ek3PqK0uIBpRw5XETK3hQNoHU1Kdvh79I0FXHPfvwmEo4f/4q6LYiz3m6UyqBBOIQWAyGZVwArgMhT1diV1nRkfLaOuoZWzjpuA2y2daKYE29E6WyyHiSeSfPtPb/CjJ94hmVS6A2ICuBZ4TWVQIZxECgCR7dZiFAIXoXDOy8JVVcz6ZDXnnTQxY3cNtIeO1t6s5EjfpvYgn7/7Kf49a7mCvPaiAzcBT6sOLISTSAEgcsEyoBljLFeZ6u1NvPT2J5w6dSy9K5TsRJzdkgm01gaIWV9Ft2RDHafd/jeWbFS6zG+XbwJ/TUVgIZxECgCRKxZgrN8+U2XQ1o4gT732IWWlhUwZOwRNk4U1BxSLGJP9LG7tq+s6f3rtY6669zka24KKktvLD4AHUxFYCKeRTyuRa24GHiEFK2DOPu5I/v7zm+hbqWz1YXYItaN1tmH0rJvX0Brgqw+8xOvzUrISQwduQ27+IodIASBy0dXAPwDlp/2UFuXzt3tu4tIzjlEdOvPoSbT2Joha7/J/fd4arr//BZo7UrIJXwK4AXgyFcGFcCopAESuOh94AchPRfBpE4bz9mN3UlTgT0V454tF0DqaLXf5ByMxPnfXU7y3eKOixPYTwSgIX05VA0I4lRQAIpedgnGka0kqgpcU5vPqw7dz8pTRqQjvWFqgFYLWN+OZtXQTF979T9qDEQVZHVA78HlgdqoaEMLJpAAQuW4y8D+gMlUNfPFzJ/DAd6+hsiwldYZzJGJGl3/c2mY8LR0hfvrUuzz8n7kWZw0cUjNGL9D81DUhhLNJASAEjAFeB4alqoHKshLuv+0qrvv8idm5UiDYjhZstTTPT9d1npixkO8/OoOm9pTM8N9lI/A5YHUqGxHC6bLwk0gIU8qB54HTU9nICZNG8acffZnxwwekspn0UTTWv3ZrI9/4w6upHOvf5UOMnSF3pLohIZxOCgAhPuPBWAZ2Syob8XrcfPmik7nrpgsZ2KcilU2ljp5E62yFcKelMNU7Wrn36fd5YsZC4omkouQO6hHg24D1M4eFyAJSAAixvxuBPwK+VDbi83q4/sKT+PHXL6ZfZVkqm1Ir1GlM9NPN37AbWgP89oU5/OE/HxGOpvx+HMdY4/9wqhsSIpNIASDEgR0PvAT0TnVDBXk+brj0VO684fPO3lI4GjYO8LHQ3d/UHuQ3//6Qh1+eSzBibdigq01inAj5XjoaEyKTSAEgxMENBl4BjkpHYyVF+fzfVWdyy9VnOWs3wXjUeOKPhk2HqG1q5+GX5/HIq/PpSN2yvn0twzgEqipdDQqRSaQAEOLQ8oD7MQ6IScv7xef1cNU50/nWF89h0ujB6WjywOJRtGA7RMzPyF+4roYHX/qI52ctJxpPKEzukHSMIZzvA+arFiGynBQAQnTNGcBM0vyemTx2CDdedipXn3scxYVpOnY4FjZu/Caf+EORGG/MX8Ojb3zCO4s2KE7usHSMzX3eSHfDQmQaKQCE6Lp2oNiOhosK8vj8KUdz2VnTOOf4I8nzKz/GAKIh48Yf634XfTgaZ8Yn63hh9nJem7uazpC1zYAsiAI5uv+yEN0jBYAQXddGirYN7o58v4/Tp4/jsrOmccnpUygqsNAzkExCuBMt1AnJ7s3GD0fjvL1wAy/MXs6rH61K5Za93RHBGLYRQhyGFABCdJ0jCoA9FeT5OG7iSE4+ZgwnTxnN1PHD8Hk9h75IB+Jh46bfjfH9WDzBgjXbmLV0E7OXVvHRii3pmsnfHVIACNFFUgAI0XWOKwD2tasgmDx2CCMG9WHM0H6MGtyX8tIiY1JfOGDc9JOHnpDX3BFi7dYG1lQ3sHZrI4vW1zj1hr8vKQCE6CIpAIToOscXAAdT2aOQgZWllBTkUVzgoyjfT/HOo4o7ghE6QxE6glHag2G2NrTR0BqwOWPTpAAQooukABCi6zK2AMghUgAI0UUuuxMQQgghRPpJASCEEELkICkAhBBCiBwkBYAQafDsbecxfWRfu9NwvOkj+/Li9y+wOw0hcsJhFgwLIVQ49cgBXDhtKHPX1PGLFxfw3vKtdqfkKMeO6svtFx7NeZOHEIml7cwAIXKaFABCpNFxo/vyxt0XsnjTDh7531Ke/2g98UTS7rRs4dI0zp40iFvOO4rTJgy0Ox0hco4sAxSi60wvA9z+5E2U5Pv2+//VDR38ecYynpq1mpbO3Di4rkehny+dOoavn3Mkgyr3/3ZGYgnKvvBns+FlGaAQXSQFgBBdp7wA2CUSS/Dmwir+/s5K3l+xFV03m6JzTRrai6+ePo6rThxFgf/gnY9SAAiRHjIEIIQD+L1uLpk+nEumD2d9XSsvzVvPy/M3snxLo92pWTLuiAoumT6cS48dzsh+ZXanI4TYg/QACNF1KesBOJgtDe288UkV/5m/gfnr6jKiZ2DMgHLjpn/cCEb37/5NX3oAhEgP6QEQwsEGVZZwy3lHcct5R7Gpvo1XPt7IrOXbmL+ujs6wMw7mKfR7mT6qD6eMH8hF04YxrE+p3SkJIbpAegCE6Lq09wAcTCKps2xzA3PX1DFvbR3vr9iWtkmERXlepo7ow7Gj+nLs6L4cP7offq9bWXzpARAiPaQHQIgM5HZpTBrai0lDe3HLeUeRSOqs2dbMiuomVm5tYtXWZqrq29jS0E4wEjfVRoHfw6DKEgb3KmHswHLGHVHB+CN6MmZAOW6XPDsIkemkABAiDTSXuifkA3G7NMYdUcG4Iyr2+7OGthAN7UGaOsI0d4bpDMeIRPfebMfvc1OU56W8KI+K4jwqSwqoLM1Pac5CCHtJASBEGuT1qMTrihELdpLumXyVpflyMxdC7EcKACHSQdPw5Bfj9hcQD3USDwfTXggIIcSepAAQIo00lxtvYSme/GLi4QCJUABdz82tgIUQ9pICQAgbaC4X3oJiPPmFxEMBEuEAelIKASFE+kgBIISNNM0oBLz5RcQjQRLhAMm4uVn7QgjRHVIACOEEmoYnrxBPXiHJeIxEOEg8IvMEhBCpIwWAEA7j8nhxFZXiKSwiEQmRiIRIxuKAFANCCHWkABDCoTTNjSevCE9eEXoyQSISJhENOrcY0HZuDiS9FkJkBCkAhDi0XsBxwImAbYvpNZcbT34hnvxCoxiIhklGIyRjEXS7briahtvjx+Xz4/L6cHk8gEY81Eks0G5PTuAFfgfMAT4C6u1KRAinkwJAiL31A44HTtj569E47MzJV0sfAAAgAElEQVQMzeXGk1cIeYUAJOMxkrGo8YpHUreaQNNwuX24vF5cPh9uj/+zp/49ePKLjAIlFk1NHofmAr6z8wVQx2fFwBxgEY7sPhEi/aQAELnMA4zisxv+KcDAVDQ0f/VWzpo8PBWhjTkDHi/kGwWBnkyiJ+IkEzH0RGLn7+M7u+b1wxQIGprbbbw041eX24PL40Vzd/3jwu3LM10ALKlqMHXdQfQFLt/5AmgHFvBZQTAHSM8pSkI4jKOebIRIsSJgIp/d8E8E0nJ2rcft4udfPpPvX3USrgM8Naedru8cOtABDU3TDvg0b1YiEiLa0dLdlHjozcX85Nl5RONp2xMhBizjs4LgXaA5XY0LYScHfBIJkTJ9gSl8dsOfijFGbJszJw/nqTsup095sZ1ppFwyFiHS1tTlr29sD3HDI+8wc8mWFGbVZZv4rCD4CFhpbzpCpIYUACKbDOWzsfsTgLH2pnNgvcuKeOqOyzlrygi7U0mZ7hQAs1du4ysPv01dSyDFWZlWByzks4LgY4yeAyEymhQAIlMVAmdiTNKbjDFTv4etGXWDpml874oTufcrZ+L1pPaoYDskY1EibY2H/Jp4Isl9Ly7gNy8vJJlZSwfbgLkYEwoXAm8DnbZmJIQJUgCITFGJcZO/DjiVDLrZH8q0MQN59u6rGNKnzO5UlDpcAbC1sYPrH5rJvLV1acwqpVqB2cCTGL0ESmcyCpEKUgAIpxrB3svxRtubTuqUFubx6G0Xc8UpE+xORZlkPEKk9cBDAK8t2MTNf3mX1kAkzVml1RqMXoIPd/66zt50hNifFADCCTwYXfm7Ntw5Duhja0Y2uPH8Y/jDLReQ77d1nqISByoAwrEEdzw1h0dnLrcpK1vVs3dBsAiZRyBsJgWAsEMxcCyfPeFPwxjTz3njBvfmubuvYvyQ3nanYsm+BcCamha+9OAMVlR3fWVAlgtiTCbcNbFwHsYeBUKkjRQAIh36s/fs/COB7Jv5pki+38uD3zifmy6Yancqpu1ZAPzj/VV894kPCUTkgfcQEsByPisIPgRqbM1IZD0pAIRqLozld3ve8AfbmVCmuvzkCTx628X0KMqzO5VuS8YjNNTVcetjs3j+Ixn+NmkLnw0ZfAisAtK2Q5LIflIACKvyMDbbOWHn6zggu6a022hwnzKevesqpo9NyQ7FKfPxqiquufd5NtW32Z1KNmnBKAZ2bVL0CbKNsbBACgDRXSUYO+rt+YSfeY+oFhUXFTNx4kRGjRzF7A9ms37D+pS15fW4+fmXz+B7VzpkG+FD0HWd374wh7sen0k0nkhZO8OHDef8c8+javNmFny6gO3bt6esLQeLA0v5rCCYhSw/FN3g7E8T4QT7no43CaObP6f06tWLqcdM5ZgpxzD1mKlMGD/B2D8fiMfj/OHhP/DgQw+STNVJfMBpk4bxzzsvp19FScrasKKhNcCXf/Mib85fm7I2NE3jC1dfy/e+8z283s9WS+xo2MGiJYtZtHghi5YsZtXqVfYdk2yvfbcxXoWcfigOQgoAsSc3xnr7XTf8k4BBtmZkA4/Hw9AhQ3ff8I899lj69+t/2Os++PADbv32rTQ0pu4hzKnbCL+7aCNf/NXz1DV1pKyN8rJyfvnzX3LSCSce9ms7A50sX7GchYsXsWjxIhYuXkg0asvxxHarxxgq2FUQLABy8hsh9icFQG4rxHii33XDP4Es2WGvOwoLCxk7ZuzuG/70adMpLjZ3WE9DYwPf+s63mP3BbMVZfsalaXzvypP4+ZfPsH0b4XgiyU+efIdfPTs7pdv5Tp86jfvvu59elb1MXR+Px1m7bi3zPp7HwsWLWLx0MW1tOTk/IQAs4bOCYA7G3AKRg6QAyD1TgXOAszDW33f9kPcs0bdv372680ePGo3bre5Gqus6jz/xOPf+4l5isdQtfTtm1ACevfsqhvUrT1kbh7K1oY1r7v03c1ZsTlkbbrebm2+8ma/fdDNul7p/o0QywfoNG3YPGSxcvDCX5xF8DMwE/ofRWyByhBQAuWEYxh761+z8fU679557+fJ1X055O0uWLuEb3/wGW7ak7ojbkgI/f/nORVx92lEpa+NAXvloFV/9zUs0d4RS1kafPn144JcPMHnS0SlrY5cX/vMCP77nJylvJwNsAJ4F/gFstDkXkWJSAGS3M4FbgfPIwYl7B+PxeHj+2eeZNnVaytvq6Ozgjh/ewSuvvpLSdr545iT+/O0LKczzpbSdcDTODx6bwUP/mZvSdk4/9XTu++m9lJaWprQdgNVrVnPNddcSjsiKuj0kgTeBh4B3bM5FpIgUANnpBOA+jEl84gB6VfZixpsz6N07PVvuvvjSi9x5950Eg8GUtTHmiF4896OrOHJoao5RWFPdwFX3PsfSjak7wc/v93PbrbfxxWu+sHuVRSq1tbVx2TWXs61mW8rbymAfY3yevG53IkItKQCyywTgQeA0uxNJlby8PMJhNU9qk4+ezEvPv7TXcrJUWr9hPV//v6+zevXqlLWR5/PwqxvP4VuXHKc07lMzF/ONP7xKIJy6CeRDhwzlt796gP9v777jo6qyAI7/pqe3SSchgdBb6L2IqIBKURFx7Q1du+ta14KNda2o6NpWEeyuDQQVECmCoqCgKKDSWyjphZQp+8eIi9Iy8+6bN5M538/Hj5+P5N53DMm88+6795x2bYPT+NHj8XD51VfwxbIvlMznsDuoq2/SHQ4XANcBa4wORKgh9dibhgTgYeBFmtA7fpPJREpSCjnZubRt1ZZunbvRsW1H8HrZW6z9qN2uXbuoqqpi6HFDFUR7bM4UJ2edeRZVVVV8t+o7Xa7hcnv45Juf+X5jESf1bK25s2BFTR0XP/wu981YQIOOhX1GnzqaZ554mqzMLN2u8WePPvEYH876UMlcebl5dO3SlZzsHBITE3E4HOCF+oYmdeKuBTARSMVXkbBJZzuRQFYAwt+J+G78zY0ORCurxUpSYhKpKak4U1JJc6Yd9unc6/Wy9Osv2LVbzVL0lEencOa4M5XM1Vgff/oxN950o65H0ZqnJ/H6P85iQKfASjmsWL+Dsx94k1936NfBLzY2lrv/cTejTj5Vt2sczmcLF3DNDdcoKRaUnJRMty7dDvvKwu1xU1lZSXlFOWXlZZSVl+FyuTRfMwRsAS5F9geENUkAwpcDeAS4ijD9e4yOiibVmUpqiu+fxISkRr/3rW+o57PF86mqrtIcR1RUFB+8+wGdO3XWPJc/duzcwVXXXMU3K/Q7eWW1mPnHOUO56/zjG11G2Ov18uT7X3Lzcx/rWs63sEshTz3xFLnNcvG43LhcLl0rKR6wafMmxp9zlpqfHUcUvXr0wm5r3OZLr9dLVXUVZeVllJeXU1ZRRl1d2D5Ie4GngL8D0uoxDIXljUOQB7yF7xx/2IiNifXd7J1ppKY4SYjXtsO7vKKMz5Z8htut/SaVm5PLxx99THJycPsYBbOM8Ku3jSfLefQCR3vLqrnwof8yZ7m+5XwvvvBi7vzHnYes8Hg9XtwuFy6XG7fLpeTv9mA1NTWMP/csNmzUfsLNbDbTo2sPEuK1lWauq6/zJQPlZZRVlFFVWYU3vKr3LgXOBPTbHSp0IQlA+DkZ3znd0CwI/xuL2UJyUvLvT/jOlNRGPyX5Y+v2LSz/drmSuYYMHsKMaTOUFgVqrKXLlnL1dVezZ88e3a6RlhTLK7ecycjebQ7755+v2si5k99mZ3GFbjE4nU4ef+Rxhh0/rFFf7/V6cR+UDLhcroAr23u9Xv5289/4ZN6ngU3wJ+3atKNZ1rFLRPvL5XL5Vgh+e21QUVkRlJURjXYC4/ElAyJMyCbA8DIRmAFEGx3In9msNtKcaeTl5tO+TQe6F3anZV4BGWkZxMfF63ZTTUxIor6+jpKyEs1zbdmyBbPZTL++/RRE5p/muc0584wzWb9+PZs2b9LlGjW1Dby+YDUllfsZ1r0Ai9lXGsLl9nDvjAVc+sh7VNTotxzdv19/3nz1TTp3bvyrFpPJhNlixmqzYrPbsTsc2Ow2LBYzmEy+d/iNTAhefPlFZrzxaoDR/1FmRiYFLfTZb2s2m4mJiSElOYXszGzym+eT5kwjNjYWi8VCfUN9KCYE8cD5+PoMSBIQJmQFIDyYgMeA640O5IC42DicKf9/f691GVQLj8fDoi8XsU/ByQCz2cy0/0xr9BOqasEuI2yzmjnngbd1LedrtVq59upruf7a63VJBD0ez/9XCVzuw742+Orr5Vx6xaW4PdpfKcTHxdOzW0/MZuNqa1XXVP9/H0F5Gftr9avIGIAngBuQLoQhTxKA0GcBnsW349YQJpOJ+Lj432/2aanpxETHGBXOYdXW1TJ/0TwlH4SJiYl8POtj8vKMa4QYjDLCMQ4bZrOJqv36HVXLzs7m6Sefpnev3rpd4888Xg8el+e3vQQudmzfwRlnj6OkVPsqkc1qo1ePXkRHhdYiXH19PRWVFb/vI6isqMTjNXSV4FXgIny9BkSIkgQgtFmAl/AtrQVNY4/jhZrikn0sXLZQyfJo+/btmfX+LKKjjfugD1YZYb2MGD6CRx96lKQk4xpM1tfXM3bcWFavXq15LhMmCjsX4kxxKohMX263m8oqw48fvgWch5wQCFmSAIQuB/A2MFrvC9lsNtJTM0hzppGakkpSYuOP44WaXzb+zKo1q5TMddqY05j65FQlc2kRjDLCKjkcDm6/9XYuvdiwRavf3XTLTbz+5utK5mrVshV5ucatCmnh9XqpqqqirKKM0rJSSstKg5UQzMS3OTBszzo2ZbIJMDTZgA+BU/S6gNVipXlOcwo7daV7lx40b9YcZ7KT6KjosL35AziTnVRVVVJeqb3Azrr160hOTqZb124KIgtchw4dOOnEk1i+fDnFxfoV5VGhTes2vDHjDU468SSjQ+G1N17jsSmPKZkrPTWdNq0Of3oiHJhMJhwOB4kJiWSkZ5CXm+dL9DGxv3a/koJIR9AW6IHvYSbkdi5GOkkAQo8JeBk4Q4/JHXYH7dt0oE/3vjTPaU5sTGxY3/APJzMjk127dyopsLLkiyUMHDCQZtnqj3v5IzU1lbPGn0VxcTE/rPnB0FiO5OyzzuY/z/+HrKzglfM9klWrV3H5Xy9XUkcgNjaWrp27GrrpTzWTyUR0dDRpqWk0y26G1WqlurpaySbJw2iNr3aJmrrLQpmm9cnfNDwI3KJ6UovFQpuWbWjbuh02a+i/z9eqqrqK+YvnKdlJn5aaxiezPyEzU58ue/4KRhlhf8THxfPPyf/ktDGnGR0KAKWlpYw8dSTbtm/TPJfVamXYoGEkxCfS4G7A5XLhdrtocDfg9TStTe4ut4stW7ewdftWvY4Z/gu4VY+JRWBkBSC0/BX4p+pJU5KdDO47mNxmuVjMkfFXbrfbSYhPZPtO7TeBmpoaVq1exbjTx4XEU2DrVq0Zdeoovv3uW4qKigyNpWvXrrz52pv07dPX0DgOcLvdXHjJhaz5UU3Duj7d+5KWmg74ilvZrDbsNgfRjmgc9iisFisms+85Ssdl9KAwm82kJKeQmZ5JZVUltXVqum4eZCBQDnylemIRmMi4G4SHcfiW/pWtypjNZjq160yvrr183ckiTHxcPF5FnQN37NxBZWVl0DoHHktiYiLjx43HbDaz/OvlQb/5mEwmLrnoEv499d+kpKQE9dpHM/nBybz3wXtK5mrXqh2tW7Y+4p+bTCYsFit2m50oexQORxRWi+33JNsTpq+8bTYbWRlZmM1myivKVf9snQSsBX5SOakIjCQAoaEQmA0oq5UbFxvHkP7HkZOd0+Te8fsjzZlGSVmpksYv3636jhYtWtC+XXsFkWlnNpvp368/qc5UPlvwWVCv/cB9D3DDdTcYUjb5SGbPmc2keycpmSs9NZ1e3Xr79bvjSwh8qwQOexRR9mhsVpvve+QlrOr7m0wmkhKTSEtNo6S0ROWJARNwKr7PO2OXr4QkACEgCfgMSFc1oTMllSH9hhAbG6tqyrBlMpnIyshix67tSnqzL/h8AccPPZ6M9AwF0WlTUlLC4088zqNTHlXeNOdYFi9ZTFFREYVdCkPi52zDxg1ccNEF1NVr3/gZEx3D4P5DsFqtmuYxmUy/vzZw2H2vDex2O1aLDfNvZYxDPSmw2+1kZmRSUVlBba2yVwI2YCS+suYhVcIw0kTuo2FoMAHvAsp2T+U2a06vbr0i5l1/Y5WVl7HgCzWdA/Py8vh41sckJmrrZhioquoqnnv+OZ574Tmqq6sNieGA2NhYJl46kSsuv4K42DhDYqiqruKUUafw64ZfNc9lNpsZOvB4UpKC81rD4/HgcjfgcvuqFro8gTc70pPH62Hdz+vYVaS04d9HwBjkeKBh5C5hrNuBq1RN1qFtB7p37o7ZZPxGtVATFRVFbEwcO3Zt1zxXeXk5P6z5gdPGnBbUTYEul4vX33ydyy6/jPkL5uvaK6CxGhoa+Gr5V7z2+mt4vV4KuxRqfnL2h9fr5ZrrrmH512o6Qvbo0oPszGwlczXGgX0ENqv9oNcGVkxmM16vJ2Q2FppMJtJS0zCZTJSWlaqatg2+KoFLVE0o/CMJgHGG4Svzq+QO0rFtRzq27aRiqiYrMSFRXefArcHrHOj1epk9ZzaXXH4J/333v1TXGPvUfzi1tbUs+WIJ77z7DjExMXTs0DEoydHUZ6by8rSXlcyVl5tPp3bG/g4deG1gt9qJckRjtzkwm0143J6QeF2QnJSsOgkYAiwDNqqaUDSeJADGSALm/vZvzdq1aken9o1vsRrJMtIy2LNvD/v3ay+ru/zr5RR2KaRli5YKIju8hYsWcsWVV/DStJcoKyvT7TqqVFZWMv+z+Xw691NycnJokd9Ct2st+WIJN958o5Kn5JSkFPr37h9yq2dmsxmb1UaUIxqzxYLX6zG8FXByUjLge62mgBkYAUwHQi+zbeJkD4Ax3gAmqJioQ5sOdDT4qSXcqOwcmJCQwMezPiY/P197YAdZtXoVkx+czNJl4d1avWePntx+6+306d1H6bw7du5g5KkjlZRGttvtnDD4RGJjjN/M2BgNrgZqamtwu41ttLdx80Y2bdmkarq3UPSZKBpPEoDgOw1QclC5RfMW9OzaS8VUEWdf8V4WfblIydNUh/YdmPn+TCWdAzdt2sSDDz/I7DmzQ+b9r1Ymk4mTR5zMLTffQkHLAs3z1dXVcdq401j9vYIOfyYTg/sNJj3V+FMd/qqrr2N/bY2hbX/X/bKOHTt3qJrubOBNVZOJY5NXAMGVBswBND9qpDnT6NuzX0Sf8dciJiYWm9VG0R7tR5H37tvL9u3bOXnkyQHPsWfPHu6bfB9/v/nvrFu/TnNMoeaXX39hxmszKCoqokvnLsTFBX5i4Nbbb2X+gvlK4urcoQt5OflK5go2q8WKwx6F1+sJ+jHQA5wpTsorypWspgEnAK8BFSomE8cmCUBwzQB6ap0kPi5eyTnlSOdMdlJTU01ZhfZ3mWvXrQ2oc2B1dTUv/OcFrrjyClasXGH4+109eTwevv/he6a/Op2qqioKuxT6XaFyxmszmPLkFCXxZGc2o3vn7krmMorJZMJus2OxWHC5XEHfKHjgdEBxcbGKOhtRQCd8SYAIAkkAgmcCcKfWSex2O8f1H0p0lPblZgGZ6Zns2lOkpO75ki+W0K9vP3Jyco75tQ0NDbzx1htcOvFSPp37qZIiRf6IjoqmsGNX8nLyKC0vDeqRQpfLxTcrvuG1N3yf8106d2lUMrtq1SquuOoKJU+78XHxDOo7qMnUy/CVJHbgcruC/krAbDbjTHFStKdIRQJbAPwKfK89MnEssn4cHPH46l9r7ik7oPcAsjONbU3b1FTXVDN/8Tzq67XfhI/VOdDj8TDn4zlMfnAyW7Zu0Xw9f1mtVtoUtKVdq3a/l/H1eDxs3raZNWt/UFJJz19ZWVlcf+31nH3W2UcsLay+w98JJMQnaJ4r5Hihpq5aj0Y+x1RcUsyqH1apmGo30A4I/WMvYa5ppL+h70F8TTA0aVvQllZHaU4iAmO32UmMT2Cbos6BK79dybgzxh1yM1vyxRImXjGRl6a9FPRWvmazmRbNWzCgz8DfG70cYDKZSE5KpkVeS0xAaXlpUDcgVlVVMf+z+Xw0+yNSU1Np3br1H/a2uN1uLr38Ur7/Qc1DYZ/ufX7v8NfkmMBmtWM2mWlwBbdQVEx0DG6Pm/IKzT/bcUA08In2qMTRSAKgv474Cv5o+l6nJKfQp3tf2fSnk/i4eLyo6Ry4a9cuKioqOH7o8YBv6fqa66/h8SceZ+9e7fP7w2QykZOdy4DeA8nLzcdqOfJSu8ViISMtg/zmLXC5XEr2RvijpKSEj2Z/xMJFC2mR34LcnFwAHvjnA7z73rtKrtGudTtat2yjZK5QZrVasVisQU8CUpJSKCkroa5O80pSL2Am0jBIV3I30ZcJWAQM0jKJ3WbnxONOIiY6Rk1U4rC8Xi9fLP+Coj1q6p3ffuvtrFq1io8//diQI33Zmc3o3L5zwEvdFZUVrFn7AzuKlB3z8svwk4bTt3df7n3gXiXfv/TUDAb3GxxRSbTL1UBlTWVQf/5qa2tZvnK5ig6CS/F9djaN87AhKHJ+E4xxDvCq1kl6d+tNXm6+9mjEMdU31PPZ4vlK2gcbxZnspHOHLqQ505TMV1Jawg9rv2fPvj1K5jNCTHQMJww5EYfdv1MHTYHb7aKiuiKoSUDR7iJ+XPejiqkuwFclUOhAXgHox46v01+ylkmyMrLo0qFQTUTimCwWC+mpaWzetjnsCvEkxCfQvUt3Cjt1VVrVLjo6mvzcfFJTUimvLDdkg5kWZrOZQf0GEx8bb3QohjhQTjiYJ03i4uKoqq6ipkZzye3ewL8BY8seNlGSAOjnWjSWtrTZbAzsMwibzaYoJNEYUQ51nQODITrad6SvZ2FPEhP0a1EcFxtHy7yWJCYkUloW3KODWgS7w18oMpvNWC1WGoKYBCQlJbGzaKfWo4EJQCnwpZqoxMEkAdBHPPA2Giv+de/Sg/Smuls5xKnsHKgXu91Oh7Yd6dO9L85kZ1DebZtMJhLiEynIb0VMdAylZSW4DK5JfzQt81rSoW1Ho8MICRazBYvFErSVAF+lQoeKjbW9gOeB8Fp6CgOSAOjjDiDwurD4Sv126+xfVTmhVkZaBnuL91KjoHOgShaLhbYFbenXsz8ZaRlBabv7ZweODhbkF2Cz2SgpLQ65KoZJicn069nfkO9PqLJYLJjMwTsiGB8Xr6JUcDTgBhaoiUocIAmAepnA6/j2AATEZDIxoPdAohxR6qISfjOZTGRlZLFtx1YVO5qVxJOTncvAPgPJyc45YtGcYDKbzaSmpNIyryUmTJSUlYTE3gm73c6Q/sf5XWo4ElgtVjxeb9C6CSbEJ7Bjl+aTJD2Al4Hw3Z0bgoz/BGl6JgHHaZmgdcvW5Muu/5BgtVpxpqSyZfsWQ29sGWkZ9O81gFYtWoXknhCrxUpGWgZ5OXnU19erKAYTMF8CPYDkpBTDYgh1dpsdt8eN26N/EyG7zY7L5dL6M2EDzMCnaqISIAmAain4Gv4E/NjhcDjo32tASDzdCZ+Y6BhlnQP95Ux20rdHX9q36RAWK0J2m51mWTlkZWRRXV1NdU110GPo0qFQjs02gs1qp76hLiiJbVJiEruKdmnt41AIvACE1ju5MCZ3GbVuRWPJ326duuFMSVUUjlBFZefAxjj4SF+MwiN9wRId9f+jgxWVFUE7Otgss5nsnWkkk8mE1Rac44FmsxmbzaZ1Q6ANqAM+VxOVkARAnVh87/4DLtcXHxdPz669IqpSWTjJTM+kSFHnwCOJiY6hS8dC3Y/0BUtcbBwt8wtIjE+grLxM15tNfFw8A5tQh79gMJvMmDEFZVNgXFwce4v3am26VYivLkDwu1Y1QfKbos4NwGgtE/Qs7NU0O5Q1EWazmYz0TLZs36KkJe3Bfj/S16NP0I70BZPv6GCBbkcHrVYrQ/odJ+WyA2C1WnF73cp/pv/MhIkoRxS79+zWMk0Uvi6BS9VEFdkkAVDDDryJ7/x/QFKSUyjs2FVdREIXdpud5MQktu7YqmS+Q470mZrukbXfjw628B0dLC0rUXZ0sE/3vqSlqil9HImCtR8gJiaGklLNzYI6AVPxHQ0UGkgCoMYEfDWrA9a7e29iY+IUhSP0FBcbhxc0vc/8vT1vr4E0y2oWUZs+/390sAATaD462K51e1pLm2xNTCYTFouV+gb9V9ZjYmLYVaSp4VYcsB5Q0x86gkXOp46+ngVyAx2clppOx7adFIYj9JbmTKO0vDSgpkE52bn07zWA/Nx8rNYjt+dt6n5vP5ybj9sdWPvh9NQMenWTfTMqWMyWoNQHiIqKUlEcqBnwoqKQIpYkANp1A+7XMkHPwp7ExcrTfzgxmUxkZWazd9/eRn+Qpaak0qdHX9oWtMVuD7hOVJNjs9nIzswmJzuHuvp6KiorGjUuKTGZgX0GRnQSpZrNZqOhoV73VwEOu4Oi3ZqO1eYAc4CdaiKKTJIAaDcZXxIQkKTEZLp06KIwHBEsFrOFnOxcautqj/r0mpSYTK9uvencvrNsUjsKhyOK3Oxc0pypVFRWUnuUxCovJ49+PftJIqWYCdNv/QL0fRUQHR2tYi+AHfhAUUgRSdbNtEkBtuOrVR2Q/r0G0CyrmbqIhCFKy0vZun0LJaUl1NbVYrfbSYhPJD8njzRp6BSQvcV72bJtM+WVFdTV1RIVFU1KUjJ5OXlS5U9n1TVV1OmcBOwr3sfqNau1TFGL79XrPjURRR5ZO9NmAhpu/gnxCRHfprSpSE5MJjkx2egwmpQ0ZxppTtnZb4SYqFgaXA14vPo1eEp1phIXGxfQPprfRAF/AZ5UF1VkabpnjoJD087/Vi1ay+YlIUTIMZlNRDkCfrZptJxmOVqnOF9FHJFKEoDAtcclWgIAACAASURBVAF6BzrYZrORl5OnMBwhhFDHYXfofjw1KyNLa3OrHkBnReFEHEkAAneRlsEtmreQ3ctCiJBlMpmIjda3D4XZbCYrM0vrNOeqiCUSSQIQGDMafuhMJhMF+a0UhiOEEOpZLTZsVn3bT+dk52h9FXoucqItIJIABKYfvnOoAUlPTZdz/0KIsBATFavrebHoqGhSkjWd6sgGBioKJ6JIAhCY07UMzpde5UKIMGGxWLDbHLpeQ8FrgNNUxBFpJAEIzNhAB9qsNpplad75KoQQQRPtiNZ1FSDNmaZ1T9QZSF0bv0kC4L+uQMtAB+c2y42oxi9CiPBnMVtw2KN0m99sNpOZnqllihygu6JwIoYkAP4bo2WwHP0TQoSjaLu+qwCZGZoSAJDXAH6TBMB/wwMdGOWIwpmSqjIWIYQICrPZjMOq316AxIREohyaVhlOUhVLpJAEwD/xQM9ABzfL0nzcRQghDBMdpW8zq7RUTaWfu+PrzyIaKZLvRrnAIKADvqp+bYAkIAHfjV6q9IiQZjKZiHJEkZLsJC+neVA3l9bV17Fh0wZ27t5JVXUlDQ0NQbu2EAFwAZVA+W///AysB34CluBr6hZxIikBMANDgLOAYYBU4hFNSmpKKn179iM6St8a7lt3bOXb1StpcMlNXzQZvwCfAW8BiwH9uiCFkEhIADKBq/A1jWhucCxC6ComOoZhg0/Q+i71iDZu2cjK1St0mVuIELEFmAE8DRQZHIuumvJ5tDxgMvAKcDyQaGw4QuivwdVAWXmpLsWmyivKWPbNUrxer/K5hQghScBgfA+OWcAafK8NmpymmABEAXcCb+Ar2Svv8kVEqa6pJjXFqbzc9MrVK6iorFA6pxAhzIav4+tf8d0rl+PbS9BkNLVTAMfjy9buwpcICBGRtm7fqnS+hoYGivY06dVQIY4kCrgH+AE4zthQ1GoqCYAFmATMBQqMDUUI45WWlSqdr6yiDI8nIvZFCXEkrfBtFHyQJrJ63hSWx5OAd/E9/QshAJfZROvTJiibz/vtclj6ubL5hAhTZuAWoAcwjjDfGxDuCUAm8DG++vxCiN8kZeeQN3y0svnqk1LgqX8pm0+IMHcCsBRfZdgdBscSsHB+BZAPLENu/kIcIq9LwAUrDyunfWesNrvSOYUIcx3xFREK2wYv4ZoApAGfAi2MDkSIUNT79LOVzhedkEinYSOVzilEE9AC370oLJu8hGMCEAfMwVe6VwjxJ+0Hn0D7QcOUzzvm5ntlFUCIQ7XFd0+KNToQf4XjTsZpaOjIJ0RT5szN55pXZ+FQXAMAID41naTMLL6f95HyuYUIc83wVZp93+hA/BFuCcBE4DajgxAiFLXpN5jrXptNQrrmvupH1LxzN7LadGDtks9oqKvV7TpChKEu+JoKfWd0II0VTr0A2gKrkAI/QgBgsdlISMukZY8+9B13Ll1OPDVo164uK2Hx9OdYPXcWezZtoLq0OGjXFiKE7QcK8TUXCnnhlADMw3f0QqnUvJZ0GjqcVn0GktW6PcnZOUTHJ2K2hNviiBBCRC4PsL7WS4X70D/zut3UV5VTvXMbZRvWUvTNF+xY/CmV2zfrEcqnwAg9JlYtXBKAs4HXVU1mMpvpNnIswy67joJe/TGZwuXbIIQQ4kjcwI/7Yb+nEQ2rvF52r1zKjy8/yZb5H+JVW+lyPPCOygn1EA53PhvwM75z/5oV9OrPX/45lZwOXVRMJ4QQIoTUer2s2Q9uP5pWFv+0ii8nXcOe775SFcYGoB0h3jwoHNa5zwcu1DqJ2WrllBvu4KIpL5Go4yYpIYQQxrGaTFhNUHaYVwFHEpOWSZtxF2FPTGbXsgUqVgNS8O0D+F7rRHoK9RUAM/AjvkwqYI6YWCY+/xadjg+L1zJCCCE08ALrjrAf4Fi2LZzD59eejWt/jdYw1gKd8G1PCEmhXgjoODTe/G2OKK6eMUtu/kIIESFMQL7dFNATbu5xJ3PiCzOxODQfOGsPDNY6iZ5C/RXA3Wis9X/pM6/SWUqYCiFERLGZYL8H9vuxF+CA+Jx8Epq3ZPOnmuv6eIEPtU6il1BOAGKBl4CAa48OvegqTvrrjeoiEkIIETaizSb2BLgNL7lNJ/bv282+NSu1hFAAPEGIbgYM5VcAQ/DV/Q9IcnYup93+gMJwhBBChJNoM8RquMv1uuVBYjKaaQkhgRB+DRDKCcBQLYPH3nKvLvXQhRBChI80W+BjbbHx9LjhHq0hHK91Ar2EcgIQ8DfNmZtP79PUtkMVQggRfpItgW0GPKBgzF+Ia5anJQRJAPxkAzoHOnjAhAsxW60KwxFCCBGObCaI1pABmK02Wp12npYQugAheUMK1QSgAF8SEJCeo89UGIoQQohwFm/RVvKm5SnjtQy3Ay01BaCTUE0A2gY6MDkrh4yCgIcLIYRoYqLNAZwFPEhSq/bEpGdrmSIkb0qhmgA0D3hg524q4xBCCBHmos3ai946O2q6twR8T9NTqCYA8YEOzChoozIOIYQQYc5m0rYCAJDYorWW4QHf0/TU5BKA2OQUlXEIIYQIcxYFLd8dSU4twyUB8ENMoAPt0QEPFUII0QSpKHlr01ZXJiSL0oRqAhBwumZSkOkJIYQQf6Tp3hKSN6ZQTQCEEEIIoSNJAIQQQogIJAmAEEIIEYEkARBCCCEikCQAQgghRASSBEAIIYSIQJIACCFECKutqjQ6BNFEhWSLQiGE0MvaxfP56r+v8us3y6gpK8URE0vzzt3oOWY8PU4dh8UWcCNSJer317B4+nN88+FbbP/xe1wN9diiomnRvTd9zziHfmeeL+3OhRLyUxTC3A0N7Nu6kd0bf6G2qpK66ipqKsrA68UWFY09OoaEtAySs3Nx5uYRk5BkdMgB2bn+Jzav+obK4j3EJTvJ6diV5p27NamiTqU7t1Gyczv2qGjf31VistEhRZzK4r28fO2F/Pj5p3/47zXlpZTu2s7qubP4ZOq/uPSZ18lu28GQGDd9+zXPXTae0l3b//DfG2r38/OyRfy8bBHzX3iCv/7nv6Rrq00fsPr9NaxfupB9WzdSv7/GkBjMFiuJGVm06TeYpMxmhsTQFEgCEEKKt21m/bKFrF+6kE3ffs2+bZtwNzQ0erwzN5+cDl1o03cQ7QafQLN2nUL6JvrTonm8e98tbP/p+0P+LKNlG8beeh/dTz3DgMjUcNXXseiVZ1n0ynPs3vjz7//dbLHQqs9ARl5zKx2GnGhIbLs3rGfRK8/x06J5FG/fousHeWyyk8yCNnQdOZbB500kKi74ZdGrS4t5eMyQP/w9HM6OtWt4eMxgbnz/c3Ladw5SdD6bvv2aR8cNo6F2/1G/bue6H3lo9GBunb2M1OYtghQd1FZWMPuJySx8+RnDbvx/ZjKZ6Hj8CM6441+GJW3hLFTvDk8C1wQycML9Uxh68dWKw9FPyY6tLH/3NZa/+zq7flmrdO7krBx6jD6T3mMnkFfYQ+ncWs1+/H5mPXIPXu/Ru3Qdd9GVTLj/iZBOZA6nZMdWnrnwNLb9uPqoXzfonEs5e/JTQVt29no8zHx4Ep88/RAelyso1zxYfGo6Fz05jY7HnRTU6z59wVi+n/dRo78+Na8ld85bGbRkpX5/DXcN6kjpzm2NHpPfrRe3frQsKL8bJTu28tS5p7Jz/U+6XysQ9ugYLnl6Bl1HjDnsn7u9sKJGW0fAn6Y/zVf3XR/o8KeAazUFoAPZBGiQdV8sYMqEEdzepxUfPHin8ps/QOmu7cx/7nEmj+zD5JF9WP7ua7ga6pVfx1+Lpz/HzIcnHfPmD7Dw5Wf46LH7ghCVOjXlpTw+fvgxb/4AS157kRk3XR6EqHym3ziROU9MNuTmD1C5bw9TzxvFqk8+DNo1f1n+hV83f4B9Wzby9l1/0ymiQy2e/pxfN3+Azd99w+pPZ+oU0f/V1VQz9fzRIXvzB18C9cIVf2HTt18bHUpYkQQgyNYs+IR/jRrA4+NPYu3i+Xg9nqBcd8vqlbx0zQXcPagjX70zA4/bHZTr/lnlvj28e/+tfo2ZM+UBdv0cuh8+f/bOpJvYs+mXRn/9l29PD8oNcekbL7HsrWm6X+dYPG43L11zwSHvufWy/N3XAhq39M2Xg3KDBVgx653Axs0MbJw/5j7zCDvWrtH9Olq56uuYcdPEoH2mNgWSAARJ8bbNPHPhaTx17qlsXLncsDj2bd3Ey9ddxAPDexkSx+IZz/t9rMnjdrNw2r91ikitkh1b+eq/M/weN2fKAzpE83/uhgZmPjRJ12v4o666itmP6/v/fMDm7wJ/Kpxx0xVU7tujMJpDeb1etv946D6Yxti2ZpXiaP7I3dDAgv9M1fUaKu1Yu4a1Sz4zOoywIQmAzrxeL3P//SiTjuvC6rmzjA7nd9t/+p6Hxgzi7bv+5tdGQ63WLPgkqOOCbfXcWQGtrmz5/ltKdmzVISKf9csWUrZ7p27zB2LlzHeC8rNXVVIc8NjKfXuYcdMVCqM5VF1VJQ11tQGN1Ts52fTd19SUl+p6DdXC5bMiFEgCoKOqkn1MPW8U7953S8jsmj2Y1+Phsxef5KnzRgUtCdi3bXNA40p2bDXstYU/in5db8jYY9n6w7e6zR2omooy9m3dqPt1PB5tPzerP53J0jdfVhTNoTzewJes9V7u3rd1k67z6yEcYzaKJAA62bJ6Jfed0CMsstG1i+f7/V4+UPU11QGN87jdIZlE/VlNWeBPS9WlgT+pHktl8T7d5taiqrTE6BAa5a07rmfP5l+NDiPowu30DYRnzEaRBEAHaxfP59Fxwygr2mF0KI32+ctPR+QHXChpzKmIgOcO0dWTeGeq0SE0Sl1NNdOuuzgsVqFUSsnJMzoEvznDMGajSAKg2IqZ7zD1vNHUVVcZHYpfPC4Xy9993egwRASJTUohNTd4hWy02vDNMuY995jRYQRVy+59wq7CaMehw40OIWxIAqDQms8+5qVrzg+Js/aB+HX5EqNDEBGkx+gzw66m/cyHJh22cmVTZbHZOO7iq4wOo9Gate9E+8EnGB1G2JAEQJENK77kuYlnBXVHvWoVOu8oFuKAqLh4Trn+dqPD8Jurvo4Xrzw34F374Wj4lX8nq03ol9m12uyc8+AzmC0Wo0MJG5IAKFCyYytPXzA2LDapHU1UbPBrtIvIY7ZauXjq9LBt4rLr55+Y9fA9RocRNFFx8Vw9/UMyCtoaHcoR2aKiuXjqdAp69Tc6lLAiCYBG7oYGXrjiL7ru4A6WnA5djA5BNHEJ6Zlc++pHFJ40yuhQNJn77KP8vGyR0WEETWrzFtw2exnDLrsOq91hdDh/0H7wCdw6exk9Ro0zOpSwE14v4ELQB/+6k40rv9JtfpPZTHp+KzJbtSUhPZOYxGQ8bhfVpSVUl5WwZ9OvFP26Tsl54O6nnK4gYiH+KN6ZRkZBG7qNHMugcy/DERtndEiaeT0ept1wCXfN/5ao+ASjwwmK6IRExt/zKKNvmsTaxfPZt3XTUY+Xbluzip8WzQ3oWrmdutJhyJEbRtmjo0lp1py2/YfgzM0P6BpCEgBNNq9awbxn1e8KtkfH0HXEGLqfegZt+g0mNinlqF9fU1HGxhVf8d2c91kx822/S+0CtOo9QDbPiMMaf+9jDLs05BqZGa5422bevvtGzn/sBaNDCaqouHi6nXzaMb9u8fTnAk4AWnTvw+n/mBzQWNF4kgAEyON28/ptVymtxBXvTGPYZddy3IVXEp2Q2OhxMQlJdDp+BJ2OH8H4ex/jmw/e5KNH72t0s5X41HQufuqVQMMWImItffNlOh0/gu6nnmF0KEL4TfYABGjJqy+wZfVKJXOZzGaGXnQV9y5dy8hrb/Pr5v9njphYBv7lEu5Z8iOn/u1O7NExR/36jIK23PjuZ7KMJkSAXrv1Kir2FBkdhhB+kwQgAK76OuZMUbM8lZCeyfVvfsKEB55QWnDDERPLqL/fzX3L1jH04qtJysj+w5/ndixk/L2Pcef8lWS1bq/sukJEmqqSfbx681+NDkMIv8krgAAse3Oaks5q2W07cO3rc0jOylEQ1eElZWQz4f4pTLh/CpX79lBXXUWcM42oODnyJ4Qqq+fOYumbLzNgwkVGhyJEo8kKgJ88LhefPvOI5nlyOnTh7+8v1PXm/2fxqemk5rWUm78QOojUhkEifEkC4Keffjv+okVq8xZc9/qcY+7uF0KEj0htGCTClyQAfvrqnRmaxltsNi55+lUS0jMVRSSECBWR2DBIhC9JAPywv6KcVZ/O1DTHmJvvoWWPPooiEkKEmkhrGCTClyQAfli7eD4NtfsDHp/VpgMnTLxBYURCiFATiQ2DRHiSBMAP65Z+rmn86JsmYbHZFEUjhAhVu37+iZkPTzI6DCGOShIAP6xfujDgsRktfbXQhRCRYd6zj0VUwyARfqQOQCNVlxZT9Ou6gMf3n3ABJrPkWyL8vH3X33j7rr/5Pc4RG4czN48Og09kyAWXk96itQ7Rha5IbBgkwovckRqpaMPPmsb3GjtBUSRChIe66ip2rvuR+c9PYdJxXZj58CSlvTPCQfG2zbwVQPIkRDBIAtBIWp7+01u0xpmTpzAaIcKLu6GB2Y/fz4y/X250KH5RUatj2VvTWK3x9JAQepAEoJH2bAy8wldBr34KIxEifC1982WWvTXN6DAa7Zx/PYPZYtE8z/QbJ0rDIBFyJAFopKqSfQGPzWrdTmEkQvgvlJbeP3zwLtwNDUaH0Siteg9g2GXXaZ5HGgaJUCQJQCPVVVcFPDZFlv+FwUp3bTc6hN+V7d7Jz1+Gz+74sbfeR077zprnWT13FkvfeElBREKoIQlAI9VWVwY8NipWmu8IY1Xs22N0CH+wefUKo0NoNKvdwYVPTsNqs2ue6607b5CGQSJkSALQSFqWLKX4jzCaK8Sq0lWVFBsdgl9yOxZy6t/v0jyPNAwSoUQSgEZyxMQGPLauplphJEL4z+qIMjqEP4hLcRodgt9GXHUzbfoN1jzPhm+WMe/ZRxVEJIQ2kgA0kiMu8GV8LRsIhVAhITXd6BD+IL+wp9Eh+M1kNnPB4/8hSsNnwQHSMEiEAkkAGknLL/2ejb8ojEQI/yVn5Rgdwu8SM7JoreBJ2gipzVsw7u6HNc/jaqiXhkHCcJIANJKzWfOAx277cbXCSITwXyiVoR5z8z1KNtQZZdA5l9LlxFM1zyMNg4TRQudTIcRlFLQJeOyGb5bhqq9TGI0Q4anf+PMZcPbFRoeh2fmPvUBCWobmeaRhkDCSJACNlNmqbcBj6/fXsO4Lba2EhQhnZquVkdfcygWPvWh0KErEO9P4y4NPa57H6/Hw2i1XKohICP9JAtBIaXkFOGLjAh7/1TszFEYjROizOaLIKGjL0Iuv5u4Fqxh72/0h9SpCq24jx9Jv/Pma56nYu1tBNEL4T9oBN5LZaqVV7wH8+PmnAY3/ds57FG/fIk2BRNgZf+9jDLv0WqPDCEkT7pvCz18upnjbZqNDEcJvTScdD4J2A4YGPNbd0MC8fz+mMBohhNGi4hO4+KlXlDQMEiLYJAHwQ/vBJ2gav2jGc+xYu0ZRNEKIUKCqYZAQwSYJgB9yO3Ulq3X7gMd7XC5m3DQxbDqhCSEaR1XDICGCSRIAP/UZd46m8Zu+/Zr3HrhNUTT+Kd62mXnPPsYrN1zK85dP4O27/sa3H72Lq6HekHiEaCpUNgwSIlhkE6Cf+p5xDjMfultTM4/5z08hLb+A4y4MTn/w6tJi3rnnJr7676uH9IX/7MUnSUjPZPw9j9JrzFlBiUeIpii3YyGjbrqb9yf/w+hQhGgUWQHwU3J2Lj1Gnal5njfvuI4lr+l/JrqsaAcPjRnCl29PP+Tmf0DFniJe/Os58sElhEbDr7xJScMgIYJBEoAAnHztbZhMJk1zeD0eXr3pCmY+POmIN2atynbv5NEzTqDo13WN+vpPpv6LpW+8pEssQkQClQ2DhNCbJAAByG7Xka4jxiiZa/bj9zNlwnBKdmxVMt8Bezb9wuNnnsSeTf41IvrvvbdQW1mhNBYhIomqhkFC6E0SgACdfueD2BT1WF/3xedMGtKZj5/8J3XVVZrn+/Lt6TwwvHejn/wPVlNeyopZ72iOQYhIpqphkBB6kgQgQOn5rRh+9c3K5qurqeaDB+/ktt4FfPjQ3X4/uXu9XlbPncVDowcx7fqLqa2qDDiWX75aEvBYIYSPqoZBQuhFTgFoMOLqm/n6vTf8vlkfTXVpMXOmPMCcKQ+Q27GQtgOPp0W3XmQUtCU5qxlRcfF4vV6qSvZRXVrCjrU/sH7ZItZ9sUBZOdLi7VuUzBMM9ftrDt9p0WQiJiEp+AEJ8Zt4ZxrnPvRvnrnodKNDEeKwJAHQwOaI4rJnX+dfowbq0u5324+r2fbjauXzHkuonmW+rk2yX19vtTvIatOe7qecztCLriI6IVGnyJq2t+/6G2/f9beAx8cmpZDZqi1dR4xh8PmXR9QGucLho+l/1gUse+sVo0MR4hDyCkCj5p27Me7uh4wOQ6nsdp2MDkEJV30d29as4sN/3cUd/dvy06J5RocUkarLStiw4kvevf9W7ujfNuCGWuHqrHsfx5mbb3QYQhxCEgAFhl50FX3PPM/oMJRpipuXqkr28dR5o1iz4BOjQ4lolfv2MPX80az65EOjQwkaaRgkQpUkAIqc/8jzdDp+hNFhaJbfrRdtBxxndBi68Lhc/OfKc6ks3mt0KBHN43bz0jUXULpru9GhBI00DBKhSBIARSw2GxOff4uWPfoaHUrAHLFxXDjlJc1FjkJZTUUZnz4tZ7SNVlddxezHHzA6jKCShkEi1EgCoJAjJpbr3/qUjkOHGx2K3+zRMVw17QNN3Q7DxYqZ7+D1eo0OI+KtnPlORHXGtNodXPLMa8rqhwihlSQAijliYrly2vv0GjvB6FAazRYVzVWvfNhkl/7/rHTnNqpLi40OI+LVVJSxb+tGo8MIquy2HTj1xjuNDkMIQBIAXVhtdi55egZjb7sfszW0T1o6YmK58uX3aDdwaFCuZzaHxkao6rISo0M4hJ6vXkwhugGtqjT0/h70dtJf/05Br/5qJgvh13VaPvtkw2RwSAKgE5PJxMhrbuWWD5eE7BGg5OxcbnzvczoMOTFo14xzpgXtWkcTr1McsUkpAY+NS0lVGMkfJaSGxvf9z+Kd+v0/hyqzxcLFT72ipB5CTJJ/tTGCKT41PeCxiVJBMSgkAdBZfrde3DH3G4ZccAUmc+h8u7udfBp3zltBXpfuQb1ui+69g3q9w8ls1Y6YRH0+ODNbtQ14bEZBG4WR/FHzLj10mztQsUkppOa20P06JlPgv3d6PYmmNm/BmZMe0TxPWnP9v3+ByuvSPeBVrbzCnoqjEYcTOnekJiwmMZm//HMqt360jPxuvQyNJT41ncuefYMrXnyH2GRn0K/fLwTqJfQ+Tb/9GYXDRwV008gr7EFKs+Y6ROTTpu9gkjKb6TZ/IHqMPjMor8gCXWUwWyy6/o4M/MslmmtutO47SFE06iVlNgsovoT0zIjZj2Q0SQCCKL9rT26b/SU3fbCIdgOPD+q1HTGxDL/qZu77Yi09R58Z1GsfrP3gE4L6yuHPkrNyOGHi9frNn51Lv/EX+D3ulBvu0CGa/7PYbIy55R5dr+GPqLh4Trn+9qBcK7dTt4DGNWvfWfd30ec98lzAr6PMVit9x52rOCK1xt72gN8rn6NvmoTV7tApInEwSQAM0Kr3AG54ey43fbCI/mddSFR8gm7Xcubkcfo/JjP56w2c/o/JIVEP/6InXia9ReugX9cRG8cV//kvjtg4Xa8zftIjZLXp0Oiv73/WBRSeNErHiA5c50IGnH2x7tc5FrPVysVTpwdtRaLnmPEBjesV4Dh/JKRlcO7Dzwa0VD7onEtDdn/RAQU9+3HGHQ82+uv7nnkeg865VMeIxMFCdavlSKBPIAM7HT+CFt2Mf8/cGCnNmtN1xGhOuOxamrXvjCMmlurSEmorKzTNm5ydS99x5zL2tvsZf8+jtO4zCHt0jKKotXPExtFz1Dh2rP2BvVuCcwwsq00Hrn1tNs07d9X9WlaHg8Lho/j5y0WU7yk66tcOPv9y/vLPqUHb9dzlxFPwer1sXPklXo8nKNc8WEJ6Jle88Dadjh8ZtGum5xewfunnlGzf2ugxSRnZXPTkNKx2/RtjZbZqh9vt9qsNd7P2nbjs368HJT6tCnr2I6VZLuu++Bx3Q/1hv8ZstTLiqpuZcN8UXU7DeIGdGktO7F39DdsXB1xK/GvgY20RqBeqZ0ieBK4JZOCE+6cw9OKrFYcTXHs2/cLmVSvY9cs69mz8mb2bN1BdXsb+inLqqqvwuF1ExSVgj44hIS0dZ24+aXktad6lOy279wn5p4KDrV3yGV+/9zqbvv2ayuK9eNxuAGqrK/G4XMccb3NEYYuKPuyfxTvTyGrTnh6jxtFzVHDeNx/M1VDPkhnPs+iV59j1y9rf/7vZaqVtvyGMuOaWoL8KOmD3xp9ZPP15flo0l31bN1O/v0a3a8U708goaEO3kWMZdO5luq/AHE7pru08eHJ/ynbvPObX2hxR3PDOPAp69gtCZP8354nJzHrknt9/B46kZY8+XPny+5p22RuhYu9uFr3yLD/Mn82ezRtwNzTgzM2nw+ATGHz+RDJbtdPt2m4vrKjRVvzrp+lP89V9Ab8+fAq4VlMAOpAEQIggKNu9k5LtW7FHx+DMyQuJVzGRpnj7Fp679Ey2fP/tEb8mOSuHic+/aVhJ7y2rVzLz4bv5ceHcQ1ZonDl5DJt4HUMvvDLk64uEGkkADk9+ioQIgqSMbJIyso0OI6I5c/K4bc5XLH/vdb7676tsXPkVddVV2BxRNOvQmV6jxzP4/MsNfV2WV9iDa179iMrivWz69mvK9+zCERNLdtuOZLftKAVyhFKSAAghIobJbKbvuHN/3z1fwOCSQAAABSBJREFUV1ONIybW4KgOFe9Mo8uJpxgdhmji5BSAECJiheLNX4hgkQRACCGEiECSAAghhBARSBIAIYQQIgJJAiCEEEJEIEkAhBBCiAgkCYAQQggRgUI1AQi4ZJPXq63akxBCCHEoTfeWkLwxhWoCEHBhcj1rmgshhAg/R++u0DgN1VVahmsarJdQTQAqAx1YXVqiMg4hhBBhzq1gZbiurFjL8IDvaXpqcgnA7g0/q4xDCCFEmGvwau97V77pFy3DJQHwQ+Mbd//J0Tp9CSGEiDz7PRpXALxeitdourcEfE/TU6gmAOsCHVhWtIOiXwMeLoQQoonZ79G2AlD661pq9u7SMkVI3pRCNQHYCDQEOnjFh28rDEUIIUQ4q9S4ArBptqZ7Sj2wSVMAOgnVBKAB+D7Qwcveno7H5VIYjhBCiHDU4IX9nsDHe1wN/Pr+DC0hrAZC8oYUqgkAwIJABxZv28zy915XGYsQQogwVOryajqE/+v7r1K1U9Mr/IDvZXoL5QRgoZbB7//zH9RWVigKRQghRDjap+HZu6G6km+fuEdrCJIABGAhGo5OlO/exfv//Ie6aIQQQoSVGi9UaVj+//rBm6nZvUNLCBXAEi0T6CmUE4Aa4F0tEyyc9m+++fAtReEIIYQIJzvrA1/+3zDzdda/+aLWEN4B9mudRC+hnAAATNc6wSvXX8L6pQsVhCKEECJc1HihOMDl/11ffs4Xt01UEYam3YN6C/UEYBGwVssEDXW1TD1/NN/Pm60oJCGEEKHMC2ypC+zZf+uCj5h3+Vjc9XVaw/gRWKx1Ej1ZjA7gGLz49gGcpmUSt6uBlbPewev10rrPQEzmUM97hBBCBGqvy8tufyvJeL18/8IjLL3jr3jq61WEcQPwg4qJ9KK9QLL+rMB6oKWKyVr26MPZk6fSvHM3FdMJIYQIIfs9sGa/F3/2/u37YSVfTrqGvd9/oyqMX4D2qGlEqJtwSAAAzgSUlfczmUwUDh/NsMuuo3XfQZhM4fJtEEIIcSQuL/xYC7WNqPzn9Xgo+mYJP778BFsXfAQKOgYe5HTgfZUT6iGc7nyfAiepnjSlWXM6Dh1O676DyGrdHmdOcxxx8VhtdtWXEkIIoRMPsG6/l8rDPPp7GuppqK6kasdWyn79iaJvlrB98Vyqd23TI5Q5wCl6TKxaOCUArfGVVIw2OhAhhBDiMGqALsAGowNpjFDfBHiwEmA3MNroQIQQQojDmAh8bnQQjRVOCQDAt/g2AxYaHYgQQghxkDeAO40Owh/h9ArggFh8tZV7Gx2IEEIIAXwFDMP3CiBshGMCAODEV1+5vdGBCCGEiGi/AAOBPUYH4q9wrYhTDIwENhodiBBCiIi1ETiBMLz5Q/gmAABbgAHAd0YHIoQQIuL8AAwGthodSKDCOQEAKAKGAnONDkQIIUTE+ATfsr+mXsFGC/cEAKAcGAFcD/hb/VkIIYRoLDdwD75CPxUGx6JZuG4CPJJBwItAG6MDEUII0aSsAy4DvjA6EFWawgrAwZYAnfCtBlQZHIsQQojwtx/fU39XmtDNH8KvEFBjeIDlwAx8/39dAJuhEQkhhAg3NcDTwARgFiHe2S8QTe0VwOGkA1cC5wMtDI5FCCFEaNuI7wHyaWCvwbHoKhISgANM+PYIjMdXsamdseEIIYQIEWuBz4C3gKWA0t7AoSqSEoA/y8aXELQH2uLrNpj82z9xyGsDIYRoKhqASqAMKMVXvW898BO+vWO7jAvNOP8DgB1DUZnTic0AAAAASUVORK5CYII=;" parent="1" vertex="1">
          <mxGeometry x="260" y="320" width="192" height="192" as="geometry" />
        </mxCell>
        <mxCell id="4LaL1iU1O6QQDgwiPbJz-17" style="edgeStyle=orthogonalEdgeStyle;rounded=0;orthogonalLoop=1;jettySize=auto;html=1;exitX=0;exitY=0.75;exitDx=0;exitDy=0;strokeWidth=3;" parent="1" edge="1">
          <mxGeometry relative="1" as="geometry">
            <mxPoint x="940" y="440" as="targetPoint" />
            <mxPoint x="1180" y="440.25" as="sourcePoint" />
          </mxGeometry>
        </mxCell>
        <mxCell id="4LaL1iU1O6QQDgwiPbJz-2" value="" style="shape=image;imageAspect=0;aspect=fixed;verticalLabelPosition=bottom;verticalAlign=top;image=data:image/png,iVBORw0KGgoAAAANSUhEUgAAAVQAAACvCAMAAACVbtbpAAAAGXRFWHRTb2Z0d2FyZQBBZG9iZSBJbWFnZVJlYWR5ccllPAAAA2hpVFh0WE1MOmNvbS5hZG9iZS54bXAAAAAAADw/eHBhY2tldCBiZWdpbj0i77u/IiBpZD0iVzVNME1wQ2VoaUh6cmVTek5UY3prYzlkIj8+IDx4OnhtcG1ldGEgeG1sbnM6eD0iYWRvYmU6bnM6bWV0YS8iIHg6eG1wdGs9IkFkb2JlIFhNUCBDb3JlIDUuMy1jMDExIDY2LjE0NTY2MSwgMjAxMi8wMi8wNi0xNDo1NjoyNyAgICAgICAgIj4gPHJkZjpSREYgeG1sbnM6cmRmPSJodHRwOi8vd3d3LnczLm9yZy8xOTk5LzAyLzIyLXJkZi1zeW50YXgtbnMjIj4gPHJkZjpEZXNjcmlwdGlvbiByZGY6YWJvdXQ9IiIgeG1sbnM6eG1wTU09Imh0dHA6Ly9ucy5hZG9iZS5jb20veGFwLzEuMC9tbS8iIHhtbG5zOnN0UmVmPSJodHRwOi8vbnMuYWRvYmUuY29tL3hhcC8xLjAvc1R5cGUvUmVzb3VyY2VSZWYjIiB4bWxuczp4bXA9Imh0dHA6Ly9ucy5hZG9iZS5jb20veGFwLzEuMC8iIHhtcE1NOk9yaWdpbmFsRG9jdW1lbnRJRD0ieG1wLmRpZDpEM0U0ODlGRkY1MjA2ODExODIyQUNFOEFCMjIyRjYzRiIgeG1wTU06RG9jdW1lbnRJRD0ieG1wLmRpZDpENzUwOERDMjJGRjcxMUUzOTYxMDgzOEY5NEY0MkUzMyIgeG1wTU06SW5zdGFuY2VJRD0ieG1wLmlpZDpENzUwOERDMTJGRjcxMUUzOTYxMDgzOEY5NEY0MkUzMyIgeG1wOkNyZWF0b3JUb29sPSJBZG9iZSBQaG90b3Nob3AgQ1M2IChNYWNpbnRvc2gpIj4gPHhtcE1NOkRlcml2ZWRGcm9tIHN0UmVmOmluc3RhbmNlSUQ9InhtcC5paWQ6RDRFNDg5RkZGNTIwNjgxMTgyMkFDRThBQjIyMkY2M0YiIHN0UmVmOmRvY3VtZW50SUQ9InhtcC5kaWQ6RDNFNDg5RkZGNTIwNjgxMTgyMkFDRThBQjIyMkY2M0YiLz4gPC9yZGY6RGVzY3JpcHRpb24+IDwvcmRmOlJERj4gPC94OnhtcG1ldGE+IDw/eHBhY2tldCBlbmQ9InIiPz4Dh2wQAAAAZlBMVEUAAAD///8AK2QAK2QAK2QAK2QAK2QAK2QAK2QAK2QAK2QAK2QAK2QAK2QAK2QAK2QAK2QAK2QQOG4gRncwU4FAYItQbZRge55wiKiAlbKPorufsMWvvc+/ytjP1+Lf5ezv8vX///+X3zc0AAAAEXRSTlMAABAgMEBQYHCAj5+vv8/f7/4ucL8AAA4eSURBVHja7Z3bmqI6EEazgQgBOfwgotIoef+X3BcBJRDONtNK6qpn9ENZViV1SkH+0/J2IRqBhvq1UMn3iEXpyDs01HlisghAZGuobyPqHFGJqaG+w+bZMcRLHA11FUzm+xHawjTUhcbuBS2USayhrtqQwrZyxuecXzXU5Ui9imOaXa8/RVEURfHg5flenjTUZWIIpOfbg0uSpSkvr7HeqBaIEwFIbiVvSZadztmD80dxBqiGOkdNjwCSnHckP53P8SnnnPMzYGioM1yoAMDlpaX3ovr7Ht/SS5ZwzjlPcNQR1QymERAXFdBHlgBIOeecl0me3JNzzjnnd0CHqfOYnmo1zcU+L6Bm1/Qnu8Xib4Q6oTKLaVYbflE5T2fOOS9ORfpI8gvnnD/GFFVD7WPKkwpqzjnnSZEWt2v2wznnKXyd+pu874dNpveKacY553l2T3l6P5Wc8ysiQ0OdKkFjPeW8PANAfOWcc366X3Iec3DOc0QW0VAnigfEksP/KIrKD3ic+OlxT3k6jamGWssBwJ2rpXzwCy8ynvJsClMNtU6hRMCND0rJ7yeEE5hqqJX4tUM6ID8xAoNoqFOFAfFjRFHPgDvtahoqIYSYtT/aL0UyVkPVUOca/wUILKKhzsigAhg0/vIEHA2ioc4IpSLgOsT0ngDejAtqqIQcgWSQaTyPqYZKCAXw806mGioh4fAuVZ7mMtVQCRvZpc6Y6PJrqFJ8ehnyT4HIJBrqXBc1LocV1SEa6uzk1FAs9cBonl9DVWT7T0PuVD5akNJQ2+ICKPig9UdEQ51X6kOzLKWS2e6UhhqM7FK8WGL9+4bKRjN+15GuKQ1VZfwjGb8UAdFQ5xr/SLp/0ZK6Z6guRmt990VL6o6hHuo+qQG5AZaGOi/mT8oRqBlANNTpoVQw0DzRaFLzNdRZ2f6x+inn5bJ9aq9QPQwn/J6uv6OhzmGajTLl15FTKBrqfKY8XbZP7RLqVKY8XhRP7RGqEWCkzN9w/T0NdZLPHwHxzxSmPF+4T+0NqnEEkD4mMeXZsnhqZ1ANFgHxjU+UZEnWf2dQDRYBOD+mMi0xclpSQxVI04JPlp+lS+peoFIPM5Fyflm6pO4CajW6Yx5Szk9Ll9Tvh2oxMV0mu89Dujib8u1QTdsT42UUcyamLKm2htoDFHFW8AWSjYxJ2xtUyo7Ra+5RyRdJMnaqfz9QTbsxoSu9FnypPJYvqV8F1XKeCorkvAJoVfOz9w7VsL2owbPka+W8fEn9Eqh2PYIzvfys51k5VIuX1G+AarpCR5N3Aa3Sft5+oVKhpPHlzt8pZ+CwV6jUFxN5fvh7pcSidr9vgGr6Qkkf/N2SY2F56tOhGu7SCHSS9bt7hGpHPZMO32T9h/1BNf3XgKP3yw0LK/4fDdWJ5OGRb5ZkcSXlc6HOqokukAKLKykfC5VGQJzz35MzVsSonwnVAXAuf5HpA6scqg+EanhzSveLJMMqh+rzoBoBkNx/lekDK63/06AaAZCW/NcVdZX1fxhUI5jYBLlWUd39QN2CKU+BFUn/z4PqTZhy+A4fdWFX+kdCPUijeJfJz8gmVyb7gmpEiNfu+1cUow1Uqzf/T4LqTjj5NG7bip+lUSYsAKSrEtSfBdUaP0o6ZRNSRaXPWOIRA3mxI/MPRoZITDsZAVXy9NwYlpbz+36gOsMD+aa69YkqeZq+Xs8557uBakXrjZ/HSpcsqUlXTHk68mC0b4FqBOPnyKdU8xSxQ1GvCTVTfllT8/8gqB5QrFbUs/JU2llALU/PI8A/+4j9nYln9Eared2f5gEAJS8aS0O51qf6CKj2G7wpLh7PWapyUrhlaA6pSVcG/58Alb0hPBXVvO5cv8fruajXZjH1+NVQDSd8D9MrVIMTshfUUloovrVGZVHHDYA+pvf8mqav5++maXa9FcXQZOnuktpQ1LO8eXlfBNWkNmOe33ymdnLtMi3zLIZa4vSsgPs4AUCsTJ5WH1PKbpb1HVAPzG8TSs83RQbk/iLqN6T1bPMkTc9XIVkavx6D1kmeeocQkEtf6fxB1H8RqlW1l6dper1er3lRFD3dEkUKAKHHqKVQdMrY0Q97tLhQJE99UzzdTzrAVmAN1T8C1TwCcXab4OA/UgChY42vx8zvPElekTz16ii47sZ+PDewyDY+Gaod4TQpXVJeAHh0xl7H3NeycOsaf70fGb5Csd1PhupNDZjyGPAWODv0wNCZP1vKbWiHtl779JPN35kyeKuy/GDhnR66cX8KhJIqWu6La+CYn737GwHSfLyH7xojWtyL1x3nnynTppQy5tB16dS/Yf6vBS3uLUEXJyBYrD1WR1Hz1S0Tf373t48BQj/qreuXF6zKHPvtuZ452sb/fVDrxEnPOOM8xrSHa/ZtVO0ZlPn64v5HQLX8viA/T1a4N1XRUDaBG7A2u/8RUFnPsLgyTwCEq7SKyQNoywy/afx/Bqrhq5v4qyifrQJgyc/wu58ATHr88YdD9VQlucftJBIe65pwSCAlp28it2KTr4fa6XJ4/FxEq9hqpMRFowerEL9TdCDfD9UHcHpm6l6555CtXvkOjaC/qC7sW2QHUJX5jMB9w72b0TOpn1dIQ5uQPUAlhLrNhEbku7b5lhusH+TzUye2fx3pHyunUHpgjB0ofZ+34wL4Ka7P9cSjhOwL6vvlIK0nR9vY5FO/G6rxKltF3kZEvx5qNQQoOjrWlh/73VBNxpiqPqihfp5oqBrqnDQKpfuAao1vwNab9mhvSTuEQSUZ86qfYv5LqP5oYth8Uz7eFjH+ggpBq059ZLQ/CdQMqem/ghqOdih6q4aXyBma+SN7qLpb6HgYhQogPPwbqKM1DHPtwZBfgapOGCjgG/8AqjnaTOth2VP1lBWU+dM6e6GKPrYxqPUivilUOlZuM1cPhXhuOcGSkgl9ajellFKHea+UZCevjWfVnFKnit3c7aE6YweUPawbXdak6jA2O3lIFZ9P3box0+6DSkg9zFHc3aZQ2Uhl2HzDsfBVQtU/qh2qqKLV33F83t2mUP0RaB5+tcdhMVRiiG8mLydtqMZzFd8UqsjteyOJOufvQa393mAIqlDVzaFieOyD2LHf5FO9GWpFlQ1BZfXNbQnVrEsawxllpU9l2MewCl2qXdiktE7qWdWfdgAgsNsvS5epHv4ReIdGZDoBKnEBIDLGoFobQ316geaQoqp8KtPreuLsxd8Xf1ZviszWy42lsXmAJWIdjkNQxeLFBqC6/8L8HQBB1KeqRgQgVN4V6zjZlgJqDZ6RHqhO1I6TrDlQKYDmI6o6UIP69S2hMgCu26eqDACo4lVVT0BEO1BtWdE7UA1PEQLZM6AK5+XQC5X+E5fKB8DMnlXVECrc9amMoO7CpwYhtH74xKEFNYwAeNS0qRpq+zLVSmDPgHqQB9a1oIoPoFtDDQBQYaWmWlFNErR9qgpG46iImJoeHWWobee8DVW8p3EOwxCLCpsOlUTSii9DtQKgPu2yJVSxOapVtVJUoc3dgqjsu9ZHyVpQHdIP1VV4a9azJ2YiVDmKblzQqOwn2jyhYlZfSamqrLIdt6VgjrLvsbZlCapP+qHSwctMheqgeRAYAHzpcHIdcW0IlVabo0pVjahiwGSfSviu3WSmGXWhHgaghupQzQhnQaXSit/NDhrbJ6md+jYVqloravu2WN8wU9qBGpJ+qPZrvWtVxGZBNaVfuJtNtbdPUrNaQbuq+lRUcZempGGR0bu+NaG6A1CDZ0ygjJOmQpX3JoWHVuVcN4T62oM6qspediVZGO3PBZhtqId+qGb/8F5jHdTQ9+Vz8J6xLdTgaTttVX0pqnBbHAm20R81NqHSfqhDyfHjKqj1P0zKwlfssSHUxp23VLWhqLJP5Q+UmVvOP/pfJt5Aucqeu6ay3ogqrCsq20E1G1rXUtWwBUBaC9nAVjwRqo/+mUh01e4vfTnjWCXZt4MqfWGvadd287tKPhWmQ41GoLIhk57jp9KBL+eLhX47qE5TBSVDaiqqCLCb35tOg+pvALU3opLdanM7qLI37r18Jbu74ZuN7+38HahDsX/DQ7O3gyrfWUNVJUUVPg6dv6aOQe0722/NzFKxQajCB9wOaiv/9FRVu2XjTe0c2mGc6VC9ASfiMDOfag1CNTaG2mL3VNVQkaNjDTIR6XcwJ0J1Btxdb17mPyCDUMm2UE20Rr1VqtpW1CYsoUaH/lBoIlRr4IRvNBWqSL7Y5C+Zf+f7VqraVlTZp4p6DZfNgErCXu/fnhymHttZmz+wUTmd+/IARE7Ha3KaN+b27f8i9zcVqtPn8Fa5vwlQu90zf8Cl6lY3TUBV6Jd8KjPqad7zMQequFmrD9U41Kpq6JFhqEex7G4GVeHW1OVN2mVNJSvv9u57mAVVWHn3x/EmZv6rsF7+Hl2oXlVf2AyqwuU01R0pssUHdYFeVW2eDFXoUJuqN6lGZdg+FP1p3YRKUH+nzaCq9nF1l5+MXyye0ug0oTfBLKhVOYp16n4DLhWl9MBcv9l60Ybq1edTnLqLNTK2g2qq8JnKFvIWoqp0GlbD92q9sdksqM/L1J3Ah2Nf3b+vP91QWFQ3979lL5V6tfJU/qPbIm3VqfXQ9+uRqJFNZkJ9lU6j12WUHSpqWLYyadApU23aSe0ooZoq95G131rlKcd6qUagVk0Y471UKlaOQSZArc+wbAWVqb14TxHo0K77Q6V2KtGuNxtq9zIGGYca+V7P4JE2UW/zc1TqdlFiUNX/0e7Aj9ds03q8hKI/VTIC5Qe+LuNXyif1p7aOUQ4fpJTeKH3UtofT1onVPQW69DLfMUJJi4aqoX6F/A/bLl78nVA/0QAAAABJRU5ErkJggg==;" parent="1" vertex="1">
          <mxGeometry x="1150" y="320" width="340" height="175" as="geometry" />
        </mxCell>
        <mxCell id="4LaL1iU1O6QQDgwiPbJz-10" style="edgeStyle=orthogonalEdgeStyle;rounded=0;orthogonalLoop=1;jettySize=auto;html=1;exitX=1;exitY=0.25;exitDx=0;exitDy=0;entryX=0.088;entryY=0.25;entryDx=0;entryDy=0;strokeWidth=3;entryPerimeter=0;" parent="1" source="4LaL1iU1O6QQDgwiPbJz-3" target="4LaL1iU1O6QQDgwiPbJz-2" edge="1">
          <mxGeometry relative="1" as="geometry" />
        </mxCell>
        <mxCell id="4LaL1iU1O6QQDgwiPbJz-3" value="" style="shape=image;imageAspect=0;aspect=fixed;verticalLabelPosition=bottom;verticalAlign=top;image=data:image/png,iVBORw0KGgoAAAANSUhEUgAAAgAAAAIACAYAAAD0eNT6AAAABHNCSVQICAgIfAhkiAAAAAlwSFlzAAAOxAAADsQBlSsOGwAAABl0RVh0U29mdHdhcmUAd3d3Lmlua3NjYXBlLm9yZ5vuPBoAACAASURBVHic7d1ptCRnfef53xMRuWfem3epvSSVVEISslgEtG0WgQEzFo3t7nZbHONZ3Ixn6J7DwDE2bRuJ9tS0G9o2wovcBgnowe5z8PEBd9vQGDAwwBwJGwzILAIJLaVSLffWrbvmvblGZMQzL0TJMqoS0s3IjMiI7+eVXlT9//+qUt74ZcTzPGE0Zv/2d/5ov2ecnzLG+UnJXinpgKS5cfcFAOA8a63CYahhGKjX76vb7cj3/aTHeozjGOs6nu947mbBK3zGLZd/5/Zj//aecfY04yp87NY7Fn1j3yqrt0gqjqsPAAC7MRgMtLGxrv6gn/QoT2AklavVe8vV6s+/59ivfn1cPWL3tltv/1kjfVBSfRz1AQCIhbXa3tnWxsa6bNKzXIAxxtYb9Vvf985/96ux14674NtuveNmI/sfxlEbAIBx6PW7OnduRVGUwhhgjGrV2l9/4Ld/48Y4y7pxFnvbrXf8gpH9Q3HxBwBMkYJXULFQVKfTSXqUCwoC/8oXvuLGo3ff9fm/iKtmbAHglt+9/QWy+ss4awIAMCmFQlGSVb+fvjUBkhQEwXNe+OP/9IGv3fm5b8VRz4mjiCTZSL8jFvsBAKZYc3ZOnuclPcYFWWs1GPTeE1e9WL6t//rv3n6jsXp7HLUAAEiKMUbGGPV63aRHuaAwDMsv/PEb/bvv/Pxdo9aK5Q6AifQ/xVEHAICk1Ws1yaR3KdvQD34xjjojB4A33HFHwUj/NI5hAABImuO4qpRKSY9xUf7Av+JfHTtWHrXOyAFgYUdHxcl+AIAMKZZGvr6OTWQjUxxWXzpqnZEDgGujg6PWAAAgTTw35RvaQv/aUUuMHACsY/aMWgMAgDRxUh4AjLFHRq0x+iJAa9O5XwIAgF0yKV4EKEnWjr7tPrZzAAAAwPQgAAAAkEMEAAAAcogAAABADhEAAADIIQIAAAA5RAAAACCHCAAAAOQQAQAAgBwiAAAAkEMEAAAAcogAAABADhEAAADIIQIAAAA5RAAAACCHCAAAAOQQAQAAgBwiAAAAkEMEAAAAcogAAABADhEAAADIIQIAAAA5RAAAACCHvKQHAACMLvLKGtQOya/u17A4p7BYl3U8yUYy0VCevy2vv6FSd1nF7pJMFCY98tjVCr6uWtzS4dkd7a111Cj5KntDDa0rf+horVvV2Z2qjm82dXJzRpFM0iNPFAEAAKbYoHpAncVna1C/VNZc/KbusDQnNS5TW9fLiXxVth5Uff2bcv3WBKcdPyOrqxc39aOXLunowpYc2Qv8qkCStK/e1Q/tlV6pk9oZFPT3y/v0NycPa2dQmOzQCSEAAMAUGpaaah14iQa1Q0/790ZOUZ35a9WZf6aqm/dqZuXv5ISDMUw5WZc2t/Waq4/r8MzO0/69jVKglx45rRddsqQ7HzmsT3x7fgwTpgsBAACmTHvhOm3v+1HJuCNWMurOXatB44iapz+nUudMLPNNmpHVK4+e1MuuOHWRb/xPnedGevkVJ/Xcvaf0wS/O6Ksn6zFNmT4sAgSAqWG0dfCl2t7/4hgu/v8g9KpaP/Iadeavja3mpLhOpJuuu18vv+LkyBf/x5sr9fTLL3xQP/Pstdhqpg13AABgKhhtHn6FerNXjq1+68ANknFUW79nTD3i5TmRfuH6e3TF/LjWMUT62WtPycjqv35zz5h6JIc7AAAwBbb3/cgYL/7/oLX/RerPHBl7nzj85NXHx3jx/x5r9S+feVovPpKtxZISAQAAUq/fuFTtxedMqJvR1sEfU1hoTKjf7rzg0Fn9k8PLE+pm9W9+5IRmy9naOkkAAIAUs46n1oGXTLRn5JbUOnjDRHs+HbPlgV5z9fGJ9nQV6q0vf2SiPceNAAAAKdZeeE4i38b79Ut2tcVwEl515QkV3cl/Gz8609I1+3oT7zsuBAAASCnreOrMX5dY//bi9Yn1vphmeaDn7F9NqLvV61+wlFDv+BEAACCl+o3LFXnlxPoP6oc0LKZrLcDzD63IMfFt93u6Lqlvq1aMEusfJwIAAKRUb/aKpEdQv5H8DI933b6kvv2fZ/Waa9cTniEeBAAASCUjv3Yw6SHk19OzDqBRCrSnlvwz+OsPZmNLIAEAAFIoLM4ocopJjyG/vJD0CI852NiRifG0v93aU5v+9yZInAT4GMc4KhYK8gqePNeTY4wch3wExMFaK2uthmGoIBxqGAQKhsOkx0q1oDiT9AiSpMiryjoFmShIehTNV/pJjyBJKrvJ/13EIdcBoOAVNFOvq1qpqFQqyeTsXdBAkobDoXqDvtqdrjq9jqxN/ptdmkRucov/vl/kleT6yV/0KoXkZ5AU6zsHkpS7AGAkVStVzTWbKpfKXPKBhHiep4ZXV6NWVxhFau1sa2u7pTDM1mlru+bE97KfUUUqKA3TFJyUXHitVdGz8ofTfQXJVQAoFUvau7iocrGU9CgAHsd1HM3PNtWcmdFWq6WN1hZ3BFL09cSkZ5TUePQuwHT/xeQiABgZLczPqTnTnPJ/LiDbHONovjmnRr2us6vn1B9kY7EVkEaZX+Xmua4OHzioOS7+wNQoeAUd3n9Is410LIQDsijTAaDgeTp84KDKJW75A9PGGGnvwqL2zC8S3oExyGwA8DxXh/YfVMErJD0KgBE0Z2Y0Pzef9BhA5mQyADiOo8P7Dqrg5WKJA5B587NNNXkcAMQqkwFg3+IeFQp88weyZHFhQZVSevbGA9MucwFgpt5QvVpLegwAMTMy2re4R47J3I8tIBGZ+iS5rqs98zwrBLKqUCioOTub9BhAJmQqAMzPNuWk6PQsAPGbn23Kc/mcA6PKTABwXVezjUbSYwAYM2MMdwGAGGQmAMzWGzI8GwRyYbYxw1oAYESZ+QQ16vWkRwAwIY5xVKtWkx4DmGqZCADFQkHFQjHpMQBMELt9gNFkIgBUypWkRwAwYZUyr/MGRpGJAFDmcBAgd1zXlcdR38CuZSIAFDn1D8ilYpHPPrBbmQgAnPkP5BMv+wJ2LxMBwHEy8ccA8DQ5DqsAgN2a+iun0aMHgwDIH84CAHZv6j89VpKVTXoMAAmwls8+sFtTHwAkKYr4IQDkURhFSY8ATK1MBIBwOEx6BAAJGPLZB3YtEwHAH/pJjwAgAQEBANi1TASAwYAAAOSNjaz8gM8+sFuZCAC9fj/pEQBMWHfQZxEgMIJsBAB/oDAMkx4DwAR1e92kRwCmWiYCgKzVTqeT9BQAJsVatfnMAyPJRgCQ1GpvcxoAkBPtXlfDkAWAwCgyEwB831enyzcCIA82traSHgGYepkJAJK0sbXJXQAg49rdtgb+IOkxgKmXqQAw8H21treTHgPAmNjIam1jI+kxgEzIVACQpPXNdfYGAxm1urnO4T9ATDIXACJrdXZ1VZb3AwCZstNpq7XDHT4gLpkLAJI08Ac6s3pWnBECZENv0NfK2mrSYwCZkskAIEm9Xk9n11YIAcCU6/X7Wlo5y6l/QMwyGwAkqd3paPncsiLLK0OBadTudrW0clYRr/0FYpfpACBJnV5Pj5w5o/6AbUPA1LBWG1ubWj53lgAPjImX9ACTMBwGOr28pNmZGS3OzcmYzOceYGoN/IHOra8R2oExy0UAkCQrq63tltrdtuZm5jTTqMshCACpMfB9bbQ21el0ONALmIDcBIDzhsNQqxtr2mhtqlGtqVFvqFQqySQ9GJBDYRiq3e1op9NWv9/nwv94UXrecGpSMkuYop/UfjT9XyBzFwDOC8NQWzvb2trZluM4qpTLKhaLKnoFea4rYxwZJz3/swHTLooiRZHVcBjID3z1B758f8BF/yKcKD0Hmhmbjln6gZv0CJIkaxxlYV1qbgPA40VRpE63q06X94sDSAc32El6BEmSiQI5w37SY0iStvqlpEeQJAU2G5fO6b+HAQAZ5A1aUgp2QBQG6Xn3wkq7lvQIkqTNXjqCyKgIAACQQsYOVewlf/phsb2U9AiPWetU1PaLSY+h+9bSEURGRQAAgJQq75xIegSV248kPcJjrIzuPbeQ9Bj6q28vJj1CLAgAAJBSla0HEn0M4PktFbsrifW/kLuX9ybavxVUdLqV/F2IOBAAACCl3GFH1e0HE+tfX/t6Yr0v5uTWjE5uzSTW/6Pf2ZdY77gRAAAgxernvpbIPnxvsKXK1v0T7/tU/PWDl8smcCbATljWp+6bn3jfcSEAAECKef62Gmt3T7ir1ezyXTIp2IVwISc2Z/TV05P+Jm70h188MuGe40UAAICUq6/+vYrd5Qn2+7pKnTMT67cbH7//qM5s1yfW7wsn9+ue5erE+k0CAQAAUs9q/tSn5Q22xt6pvHNCM+e+MvY+oxqGjv70m9eq4xfG3uuhVlPv+9sDY+8zaQQAAJgCzrCvxUc+Lm+wObYele2HNXf6s9KUHNC81Svpjq88V+vd8th6PLw9q9/46yvGVj9JBAAAmBJO0NHiwx9VuX0q9tr1ta9r7tRnUvPin6dqvVvWHX/3nNh3BkTW0d8u7dMtnzwqOx156GnLxoHGAJATTjjQ/COfUGf+Om3v/Sey7mh70l2/pebyXSq1T8c04eR1gqI+8NVn66VHTullV5xSwRlt8eLp7Yb+7O8P6u772zFNmE4EAACYQrWNe1TefkidhWerM3ft0w4CbrCj+to3VNu8T7LT9a3/QkJr9PmHL9Xdy/v0siOndP3Bcyq6T+/PtdKu6f87cVjfPLtX7U5HEgEAAJBC7rCnmZUvq3Hua+rPXKZ+/VL5tf0KCw3p+/bJGxvJHWyq1FlSeeeESp1lTcuz/qej1S/pY/ddqb9+4HJds3ddVy9s6pLmtuYrT3yjYRA5OrtT0/GNpr59bnGiuwrSgAAAAFPO2KEqrYdUaT0kSbKOq8itKfJKMjaSiQZyg24q3i44KYPQ1TeW9+ob3zs62HMjzZQGqnihhpFRf+hpu19M5EChtCAAAEDGmCiUG23LDZKeJD2GoaONbiXpMVKFXQAAAOQQAQAAgBwiAAAAkEMEAAAAcogAAABADhEAAADIIQIAAAA5RAAAACCHCAAAAOQQAQAAgBwiAAAAkEMEAAAAcogAAABADhEAAADIIQIAAAA5RAAAACCHCAAAAOQQAQAAgBwiAAAAkEMEAAAAcogAAABADhEAAADIoZEDgLWOjWMQAADwVDnRyBVGLRC5dmPUGgAApEkYhkmP8KRc2aVRa8RwB0DLo9YAACBN0h4AjOvcN2qN0QPAsHBcUjBqHQAA0mIYpPeyZiQVKtUvjlpn5ADwO7/2izuSvjBqHQAAUsFadXu9pKe4qFKpvPYHt/zSyqh1YtkFYI39r3HUAQAgad1+T1GU3kcAXqHwyTjqxBIASjsLH5R0PI5aAAAkqbW1lfQIF+W63rBbDv/POGrFEgCOHXutL6P/K45aAAAkpdNpqz/oJz3GRVWrtTs+dOzYdhy1TBxFzrvl3be/z1r973HWBABgEobDQEvLS6ndAVCtlB/6z+/691fGVS/WkwC3C/6brPS5OGsCADBuYRhq5dzZ1F78y6XSRqm277lx1ow1APzhm988KLXP/oSkP4qzLgAA4+L7vpaWz8j307n1r1KpfrfS2H/Ze469sR1n3VgfATzeze9672tlnHdINrbbFQAAxCWKrFrbW9pubSmy6TvV3nO9oFKr3fa+d97y1nHUH1sAkKQ33HFHYWEn+jkj8zMy+h9kVR1nPwAAfpDBYKBOt6N2eyd1t/wdY1QslZe8YuFjpjj8lfcdO9YdV6+xBoDHe9Ntt5VqYeGACXTINW4lrrrDYeA9eOKBWPZEAgCyzRgjE8OVb252/mZjTGzpwTjaDgvePZ4aX4/7Vv9Fe06iyTjddNNNxVahPkh6DgBAfswG7dJHPvIRP+k5RhHrIkAAADAdCAAAAOQQAQAAgBwiAAAAkEMEAAAAcogAAABADhEAAADIIQIAAAA5RAAAACCHCAAAAOQQAQAAgBwiAAAAkEMEAAAAcogAAABADhEAAADIIQIAAAA5RAAAACCHCAAAAOQQAQAAgBwiAAAAkEMEAAAAcogAAABADhEAAADIIQIAAAA5RAAAACCHCAAAAOQQAQAAgBwiAAAAkEMEAAAAcogAAABADhEAAADIITPuBsduu23GHxRulMxPydgrJOeQZGfi7BGGw7k46wEAssVaqzAKFQ5D9ft9dfs9hcPhSBVjG06ScdzQdZye67qrnut9tNqov+v3b3nLcpw9ntBzXIV//T++Z84tuL9uZd8kqTKuPgAA7Ea319Xm5oZ83096lCdwjFGlUvlSqeD93B+94+2PjKOHO46iN9/63p8wrvMFSa+SVBhHDwAARlEoFDRTb8g4Rv3BIOlx/hErKQiCw/5w+OYXvvLVg6/d+bkvxt0j9gBw87vveKOk/yKpHndtAABiZYzK5YqKxaK63W7S0zyBtdb4g8GPv/AVNz7za3d9/s/jrB1rALjl3e/9l7L6YNx1AQAYp2KhqEKhoE4vfSFAkvwguO7FL79x4Wtf/Pwn46oZ24X65ne99zoZ8wlJxbhqAgAwKcViUTaKNEjZ44DzgmHwIy961U99/Wt3fva7cdSLbxugMb8rq2ps9QAAmLBmc16um86b2JG18vvdD8RVL5YAcPO773i5Hl3wBwDA1HIco+ZsM+kxLqo/6C/+m1ve+eY4asUSAIyNfiGOOgAAJK1eb4z/kJwRBAP/jXHUGTkA3PThD7tW5jVxDAMAQNIcx1GpXE56jIsaBIMrbzp2bOT1diMHgCtPbR2VtDhqHQAA0qJUTG8ACMPQ2esXbhi1zsgBwI3Cg6PWAAAgTVwvnQsBzwuN+aFRa4wcACJp76g1AABIE8/1kh7hSUXD6PJRa4wcAIzhqF8AQMakeRWgJDm2NHKJOOYAAADThQAAAEAOEQAAAMghAgAAADlEAAAAIIcIAAAA5BABAACAHCIAAACQQwQAAAByiAAAAEAOEQAAAMghAgAAADlEAAAAIIcIAAAA5BABAACAHCIAAACQQwQAAAByiAAAAEAOEQAAAMghAgAAADlEAAAAIIcIAAAA5BABAACAHPKSHgAAMDrrePKrBzSo7ldYampYaEiuJ1krEwbygm15/Q0VO8sq9s5JskmPPHbFKNLRbleHej3tHQzUCIeqhKEC48h3HK2VCloplXW8WtPZUinpcSeOAAAAUywoL6i98Gz1Zy6XdQoX/XW+9kmzj/63E3RUbT2g2vq35A67E5p0co70evrRzQ1ds9OWZ6OL/rrLepLUkiStF4q6u9nUl+fm1HfycXOcAAAAUygsNNTa/0L1Zy5/2r83KtTUXnyuOvPPUm3jW2qsfk0mGo5hysmaCwK9emVF17Z3nvbvXQh8vWr1nG5YX9MXFhf12RzcESAAAMCU6TWv0taBlzzpN/6nwjqu2ovPVX/mqJqnP/u9RwPT6SUb63rl6qoKdrRHG+Uo0o3nzun6SHp/wdG9hdH+jtMsH/c5ACAjtve/SJuHXj7yxf/xhsWG1i//Z+rNXhlbzUlxrNVPnz2rG8+dG/ni/3h7+z3dfHJJP9HN3iOS8wgAADAlWgdfqvbCs8ZS2xpHm4dfoV7zqrHUHwdH0uvOnNYPb22Opb6JIv3PS+f06k42QwABAACmwM6e56sz98wxdzHaPPgyDeqHx9wnHj9xbkXPbLfH28Ra/fzyqp438MfbJwEEAABIuUHtkHb2Pn8yzYyjrUOvUOhVJ9Nvl561va0Xb2xMpJexkd50dkX1J9lRMI0IAACQZsZV6+ANkszEWoZeRdsHXjSxfk9XYzjUP19ZnmjPgj/UW9bG86ghKQQAAEix9sKzNCzOTrxvb+ao/Oq+ifd9Kl65tqpSOPlv41e3tnV0GE6877gQAAAgpazjqr3w7MT6txefl1jvi5kZBrq+1UqmuZVev56duwAEAABIqX7jiCKvkmD/SxQVaon1v5DnbW3LjXG739N1WbutckZOUSYAAEBK9WeuSHgCo17iM/xjP9TeTrS/iWxmtgUSAAAglYwG1YNJD6FB7VDSIzymGobaPxgkPYaeRwAAAIxLWGgo8spJj6Ggspj0CI851O/LJHj7/7x9fjbOBOBdAI9T8DwVCkV5jivjGDk5eSMUMG7WWlkbKQytgmGgIAgUZWxPddyGpcmv/L+Q0KvJOl4qXha0kJILbzkIkh4hFrkOAK7rqlGrqVqpqlIuyzFc8IFJ8QNfvV5P7W5X3X4v6XFSJ/LS8za6yC3LjcZ84t5TUAmTDyGS5ETJ34WIQy4DQLlU0vxsU7VKVTKTO1wDwD8oFooqFoqanZnVcDjUVntbrdY2dwa+x5r0/HiOTEFu0kNI8tJy3bVWRSv5U375SM//YRNQLBS0Z35R1Upy22oAPJHneVpszmt+pqn1rU1t7WxLKXjWm6z0XF3S8j0pDc//z3OsTc9fzC7lJgDMN5uan52f9n8vINMcx9Ge+QXN1Bs6u3pOfpCOZ75AFmX+obfrujq0/4AWmlz8gWlRKhZ16YFDatTqSY8CZFamA4DnuTq8/4CqZW75A9PGOEb79uzVQnMu6VGATMrsIwDP9XR4/wEVvELSowDYJSNpvjmnSFabW1tJjwNkSibvABjj6OC+/Vz8gYxYaM5rps7jACBOmQwAexcWVCoWkx4DQEyMpL0Le1QupmdvPDDtMhcAGvW6ZuqNpMcAEDNjjPbt2cNiXiAmmQoAjnG0OLeQ9BgAxqRYKKo520x6DCATMhUA5ppNeW4azqsCMC7zs3NyHD7nwKgyEwAcx1GzMZP0GADGzDFGc7N81oFRZSYAzDQavL0PyIlmY1aGxQDASDJzxZypsfAPyAvHcVSrVpMeA5hqmQgABa/Atj8gZ+rVWtIjAFMtEwGgUi4nPQKACauUKyl6Xx4wfQgAAKaS57ryvMyeZg6MXSYCQLHA7X8gj/jsA7uXiQDgeewJBvLIK/C+D2C3MhEAXA4FAXLJNZn4EQYkYuo/PUZiPzCQU47DZx/YrakPAFaSrE16DAAJsHz2gV2b+gAgSRE/BIBcimyU9AjA1MpEABiGw6RHAJCAYMhnH9itTAQA3w+SHgFAAoKAzz6wW5kIAAN/kPQIACbMWiufAADsWiYCQG/QT3oEABPW7/dZBAiMIBMBoD/oK4pYDATkSaffTXoEYKplIgBYK+102kmPAWCC+MwDo8lEAJCk7Z2dpEcAMCGdblfDYZj0GMBUy0wA6PsDdXq9pMcAMAEbra2kRwCmXmYCgCRtbG0kPQKAMev0uuqz8BcYWaYCQH8w0HabRwFAVllrtbaxnvQYQCZkKgBI0trGOqeDARm1trnB3n8gJpkLAGEU6ezqCu8HAjKm0+2otd1KegwgMzIXAKRHHwWcXT0rMgCQDQN/oOXVVT7TQIwyGQAkqd3tanV9jR8YwJQb+L7OnF2W5c1/QKy8pAcYp9bOtsIw0v49e2SMSXocAE9Tr9fT0rkVXvsLjEFm7wCc1+62dXLpDAuHgCliJW1tb+vMylku/sCYZPoOwHl+4OvU0mnNN+fUnJ2VEXcDgLTyA18ra2vs9QfGLBcBQJIia7W2uaFWe0fzzaZmqnWJxwJAagRBoI3WlrY7bbGNBxi/3ASA84Ig0Mrqqja8TTVqDTXqNRULxaTHAnIpslbdXlfb7Z1Hj/Lmwv8YY9PzrgMTpWOWMC1f2oyR76RklhHkLgCcFwyH2mhtaqO1Kc9zVS1XVSgUVCwU5bmuHMfhBgEQFyuFNlIUWQ2HgYIgUG/QV3/Q55p/MVF61i2ZyE96BElS4KRj2Zo1RllYmZLbAPB4w2HIEcIAUsUL0vEzyURDOWE61mNsFgpJjyBJClw36RFikY44BQD4R7zBlpSCHRDeYDPpER6zUiolPYIkqVVKRxAZFQEAAFLIREMV+mtJj6FSZynpER6zWiyqm4Jv3w+Uy0mPEAsCAACkVGXnkaRHUCkFM5xnjdF99XrSY+iTjVrSI8SCAAAAKVXZekBK8EBzz99RqbucWP8L+frMbKL92+WSHvaysXyOAAAAKeUGO6q0jifWv7bxzcR6X8zxWk1LpeRuwX9ivplY77gRAAAgxernviaTwGJAN9hWdfPeifd9Kj6zd08ifXvlkj5WqybSexwIAACQYgV/U7W1b0y8b3Ppi6k5AOj7PVCr6xuTfhRgjN67Z3GyPceMAAAAKTez+lUVuysT61dfv0el9smJ9duNj+7fP9FtgV9amNPd5WydGksAAIC0s5HmT39a7gQOByp1zmhm5Utj7zMq33H0p4cPqz+BbYFnGnX9p7lkFx+OAwEAAKaAE3S1eOKv5PnjCwGl9mnNn/yUlKL3EDyZ9UJR77/0MrW88R3Ms9yo6+b9yaw5GDcCAABMCddvaeHhv1Sxezb22tXN72j+5CdlomHstcdppVTS+45cprMxPw6wjtE9c0392v49mo449PQRAABgirjDrhZP/Hc1Vr4iY0e/WLvDjuZOfUbNpTsT2W0Qh5ZX0B1HLtdd8wuxvKRntVTUey67TL+1OJeJl/5cTDZOMwCAPLGRGmt3q9p6QO3F56rbvFrWeXrPwp2wr/r6N1Vbv0cmRW8e3K3AGH1q7159tdnUj62v6Vnb23Kf5qsmNwsF3TW/oK82m9rudcc0aXoQAABgSrnBjmaX71Rj5cvqzx5Vv3Gp/Mp+Rd6FD8pxgx2VOksq75xQaefk1H7jfzJrxaL+/MBBfWrPXv3Qzo6u6rR1Sa+navjEG/lW0lqxpOPVqr7TaOh4rZbguYuTRwAAgCnnRL6qm/c+dnBP5JYVFuuKnJJkIzmRL8/fzsQ3/aeq7Xn68tycvjw3J0mqD4dqhENVw1BDY9R3XK0XCxqa/D4JJwAAQMY4YV9Or5/0GKnS9jy1M3KGf1zyG30AAMgxAgAAADlEAAAAIIcIAAAA5BABAACAHCIAAACQQwQAAAByiAAAAEAOEQAAAMghAgAAADlEAAAAIIcIlddw0QAAE71JREFUAAAA5BABAACAHCIAAACQQwQAAAByiAAAAEAOEQAAAMghAgAAADlEAAAAIIcIAAAA5BABAACAHCIAAACQQyMHAGsdG8cgAADgqXKikSuMWsA6dmvUGgAApEkUhkmP8KSs7NlRa4wcAEzoLI1aAwCANAlTHgCc0N43co1RCxQLhROShqPWAQAgLYIgSHqEizKSqjPmb0etM3IAOPaW129Z6a5R6wAAkArWqtvrJj3FRZVKpY3fe/vbz4xaJ5ZdAEb6b3HUAQAgab1+X1E08hq7sfG84mfjqBNLAOg53Q9IOh1HLQAAktRqbSY9wkW5rhuaYeWNcdSKJQD83i//cs/I/GYctQAASEq311Wv3096jIuqlCsfet+737oWR63YDgJ6x6+84f2S+bO46gEAMElhONTa2mrSY1xUuVw98/5K9Pq46sV3EqAxttjWL0r6u9hqAgAwAVEUaWVlJbXb/4rFUrtg68/VsWOxLU6I9SjgY8f+dbfYLr3MSh+Ksy4AAOMyDIZaWl7SwB8kPcoFlcuV0yUze3lct/7PM3EWe4y15m233v6/GWP+b0kHxtIDAIARWFntbG9rc2tLUZS+b/6u64aVcuVD769Er4/zm/954wkA3/PWd/2XWkmd11tjfkbSDZK8cfYDAOAH8f1AvV5H2zs7Gg7TdeCPkVQoFTeLXukzZlh5Y9zf+r+/10T82m/dMeu64WXWcQ47MrW46obh0DvxyMN/Glc9AEB2xXXRm2nM/oGV4vxW3jKRvu0WzJff8463n4qx7kVNLACMy0033VRsFerpfHADAMik2aBd+shHPuInPccoYl0ECAAApgMBAACAHCIAAACQQwQAAAByiAAAAEAOEQAAAMghAgAAADlEAAAAIIcIAAAA5BABAACAHCIAAACQQwQAAAByiAAAAEAOEQAAAMghAgAAADlEAAAAIIcIAAAA5BABAACAHCIAAACQQwQAAAByiAAAAEAOEQAAAMghAgAAADlEAAAAIIcIAAAA5BABAACAHCIAAACQQwQAAAByiAAAAEAOmUk1etNtt5VqoXfIBOaAa9xKXHWHw8B78MQDn4yrHgAgq4yMkUwMV7652fmbjTHh6JUeZRxtO9J3tgrDr3/o2LHtuOo+ac9xFj927MNFv7H+87LOv5DsqyTFduEHAOBps1YD31e329FOe0dhGNs1PBaOMSqUSmeLRe9jXnHhV95z7I3tcfUaWwC45dbbX2el/yDpinH1AABgt6yN1NpuqdXaUhTZpMd5As/zgmq18p473vnvfmkc9WMPAMeOfbjo1zffK9n/Ne7aAADEzfd9rZxb0XAYJD3KBZVLlROzYfP63//9t2zFWTfWAPCm224r1f3ip4z0Y3HWBQBgnMIw1PLZZQWBn/QoF1QslTaHDfdInOsDYt0F0PAL/4mLPwBg2riuq/379sl13aRHuSB/MJgrtqO746wZ25/05nff/r9I5jfjqgcAwCQ5jivPK6jT7SQ9ygUNh8P5F778xgN3f/HzH4+jXiyPAI4d+2DZbwy+K6tL46gHAEBSlpaXNBj0kx7jgjzXDYtzpb3/+dixjVFrxfIIIKgP/hUXfwBAFszNNpMe4aKGYei6ffcP4qgVSwCw0s/GUQcAgKRVKhU5TnoPyvUD/9Vx1Bn5T3jstttmJL00hlkAAEieMapWqklPcVH+YLDwS+/4vQOj1hk5APj98hWSCqPWAQAgLQqF9F7WrKReq/3iUeuMfo/D0cgpBACANHFdL+kRnlTkmmtGrTF6ALB2buQaAACkiOOmdw2AJBmZ/aPWGPlPaEw0sTcKAgAASYpGvn6nO+IAAICxIAAAAJBDBAAAAHKIAAAAQA4RAAAAyCECAAAAOUQAAAAghwgAAADkEAEAAIAcIgAAAJBDBAAAAHKIAAAAQA4RAAAAyCECAAAAOUQAAAAghwgAAADkEAEAAIAcIgAAAJBDBAAAAHKIAAAAQA4RAAAAyCECAAAAOeQlPQAAIF4FJ1Kj5KtSGCqyRr3A0/agqMiapEdLjDWewkJV1i1JNpITDuQGHUk26dESQwAAgClXcCI9c++6rlrc0JHmtpqVgcz3XdhCa7TWqer45qzuPbeg45tN2Qxf+yKnqH7jiAYzl8qv7FVYaDzxF9lQhf6GSp0lVbaPq9A7N/lBE0QAAIApVS/6esllZ/TDlyyr5IZP+mtdY7Wv3tG+ekcvvGRJW/2S7jpxWF9Z2q9hmJ2nwZFX1c6e56vbvErW+QGXOOMqqOxRUNmj9uJzVBhsqr7696q0HpzMsAkjAADAlDGy+tFLl/SqKx/5gRf+i2mWB/rJax7Siy5d0sfuO6oH1udinnLCjKP2/HVq732+Iqe4qxJBaU6bh1+h9sKzVHr405JW4p0xZQgAADBFqsWhXnvdfXrGwmYs9earPf3C876tux45pE/ff0SRpm+dQOhVtHnpjfIre2OpF1T26NyVr1O79jztveePY6mZRtm57wMAGTdbHugNL/h6bBf/84ysbrjstF73nHvluVGstcdtWJrV+uX/PLaL/3mRcXRq5hotveDNkpm+UPRUEAAAYApUC4Fe/7x7tKfWG1uPa/eu63XPuk+OmY7VgWGhofUj/0zD4szYeiwXD2rp+jeOrX6SCAAAkHKOsfofn3Ov9tS6Y+91zZ51verKE2PvMyrruNq45FUKvcrYey2XD2vjmteOvc+kEQAAIOV+7PJTOjLXmli/G46c0dH5rYn1243W/pcoqOyZWL+T88+Tv/CMifWbBAIAAKTYQrWnl11+cqI9jax++pkPynPSuR5gUDuo7tw1E+0ZSjp51esm2nPcCAAAkGKvOHpSnjP5Z/KL1Z6uP5jObXA7+344kb4tU1XnkhsS6T0OBAAASKnZ8kDP3reaWP8bLjvzhBMFk+ZX98uv7Eus/8rhlyXWO24EAABIqefuP5foivyFak+XNHcS638h3eZVifbfMnUN6wcSnSEuBAAASKlr9mwkPUIqZni8QeNIov2tpO3D2XgMQAAAgBQqOJEOzSb/7fuKufTsBgiKcxPZ9veDdGYvS3qEWBAAACCFFmtduSk4kGdvrZuadQDDcjreV9Bxx3fw0CTxLgBJruOoXK6oVCiqUPTkOZ4cx9EUHokNpJYNI0XWKggC+cNA/UFfA99PeqzUmqsMkh5BklTyQlUKQ3WDQtKjKCxe4JW+CRiYbFw6s/Gn2AXHcTVTr6lRb6hcLCU9DpBLYRiq0+tqu91Wv99LyffMdNjtW/7GoeyFqQgAdpdv+YtbaI3kOFKUznMSnqrcBQDPK2h+ZlYzjYZMRl/wAEwL13U1U29opt6QH/ha39pSu9NOeqxUSNNLedJyIJA16XhqbSVZeTKa7jtYuQkARkazMzNamJuXw4UfSJ1ioagDe/ZqMNPUuY1V9QfpuAUOZFUuAkCxUND+PftUKqbj9hGAiyuVijp84JA2tza1vhXva28B/IPMB4BapaIDe/fJpOTWEYAfzEiab86pVCrp7LkVRZbVAUDcMn1VrNfqOrBvPxd/YErVKlUd2n/g0V05AGKV2U9VrVLVgcU9MuzlA6ZauVTWoX37WbsDxCyTAaBULGr/3r0SPzCATCiXytq7OLl3vwN5kLkA4DhGB/bsk8NtfyBTGrW6ZhvZOIENSIPMXSUXm/MqFJI/sAJA/Bbn51XwMr92GZiITAWAUqmomZnZpMcAMCaOcbQ4v5j0GEAmZCoALDTnWfIHZFy9WlW5xPHdwKgyEwCKhaKqlWrSYwCYgLnZdLwVDphmmQkAs40G3/6BnKhVq/JcN+kxgKmWiQBgZNSop+M1kQDGz+jRg74A7F4mAkCpVJTLSWFArtR55AeMJBNXzWq5kvQIACasVC7xSm9gBJkIAKUSb/kD8sYxjoqc+QHsWiYCQNEjAAB5VCzw2Qd2KxMBwOVkMCCXPI+dAMBuZSMA8BwQyCXe+QHs3tR/eozEW/+AnGIRILB7Ux8ArCRrbdJjAEhAZKOkRwCm1tQHAEmKIn4IAHkURoR/YLcyEQCCYZD0CAASMAz8pEcAplYmAoAfEACAPPKHw6RHAKZWJgJAvz9IegQAExaGoYaEf2DXMhEAuoNe0iMAmLBevydWAAC7l4kAEASBfJ4FArmy0+0kPQIw1TIRACRpp91OegQAExJFkbpd7vwBo8hMAGi1d2TZEwzkwtbONmcAACPKTAAIw1CtnZ2kxwAwZpGNtLXdSnoMYOplJgBI0vrWpkIOBQIybbPVUhiGSY8BTL1MBYAoirS2sZ70GADGJAgCbba2kh4DyIRMBQBJ2m7vqN1hQSCQNVZWZ9dWefcHEJPMBQBJWllfY1sgkDGra+vqD/pJjwFkRiYDQBRFOnP2rAKOCQUyYWNrS632dtJjAJmSyQAgScNwqDNnlxRwVCgw1TZbW9rY2kh6DCBzMhsAJCkYDnX67LJ63DYEpo61VufWV7W2ucGRv8AYZDoASN+7E7C8rI3WFj9EgCkRBIFOnT3D2R7AGHlJDzAJVlbrmxvqdDras7CocqmU9EgALiCyVputTW22Wqz2B8YsFwHgvL4/0KnlM6pWqpqbbapSLsskPRSAR0/ybO9oq7XFYV7fk6b8Y/lJ+UQZ+CvJVQA4r9vrqtvrquB5atTqqlarKhdLMiYD/6LAlBgOh+r2+2p3O+r2Oqm64KVBEKXnCW1aZjFROnZ2OZJMOP1bzXMZAM4LhkNttLa00dqSMUbFQkHFQlGu48g4jlwnHf/TA9POWqswsrI2VBAM5QeBhmE6fpinVS9Iz4/nrp+OWZxwkPQIkiTXZCOtpuNfNQWstRr4vgb+9Kc6ANNvvVtNegRJ0o5flB+6SY8hSXL9dLwEqhKlI4iMiq+4AJBCm92S+sPkv6MtbdeTHuExxf5a0iNIkipBNs6lIAAAQApFMnp4YzbpMXQ8BTOc5wx7Kgw2kx5Dsxv3JT1CLAgAAJBS3zq3mGh/K6NvJzzD9yu3Hkq0v2ek+sk7E50hLgQAAEip75xbTHQB3kPrs9rslRPrfyHV1nclm9xW0cX+ssywl1j/OBEAACClgtDR35w6lFj/Lzx8aWK9L8b126q0Hkykt5G056GPJtJ7HAgAAJBidz1yWJv9yX8L/865BT28mZ7n/483s/J3MtHkX/R2oH9Kxa0TE+87LgQAAEixIHT0sXuPTvQ0vl7g6a/uPzqxfk+XO+xodvmLE+1ZNqH2ffuPJ9pz3AgAAJBy96/N686HD0+kl7XSn3/7Km310v3OlOrWd1Xb+M5EejlGOnr/n8kZdCbSb1IIAAAwBT790BF9Y3nv2Pt8/LtHdd/qwtj7xGH27N+o1Dkz1h6OkZ5x5jMqr35rrH2SQAAAgClgrfTn91ylr57ZP5b6kYz+8t5n6EunDo6l/ljYUPOPfEKV1gNjKe8a6RmnP636if93LPWTlvwxUwCApySS0V985xlabtf16mc8JM+J50z6Hb+oD3/zah3fbMZSb5KMjTR3+nPy/G3tLF4vmXi+11aCbT3z/r9QaXUyjxmSQAAAgCnzpZMH9ND6rH7q6uM6urD7k/Eia/SVMwf0mQcvS9XLh3ajce6rKu88otb+F8uv7tt1HWOHqq99QzOPfFGrq+N9vJC06f4XB4CcWu1U9f/cfZ2OzG3rRZee0dWL60/5jkAvKOibZxd118lD2uhWxjzp5BR6q1p8+C/Vr1+i7vx16tcPP+U7Au6wo8rm/apvfEvOsKeOzf7bKgkAADDFTmzO6MTmjCqFoY7Ob+lIc1t7ah01ywMVvVBRZORHnta7Ja20azq+OatHNmc1jLK7BKzcPqVy+5Qir6xB/bCC8j4FpaaiYk2hU5IThVLky/NbKvTXVeqcUbF7TlI2XvP7VBEAACADeoGne1YWdc9Kus7uT5Iz7Kuy9aAqSubkwLTLbgQEAAAXRQAAACCHCAAAAOQQAQAAgBwiAAAAkEMEAAAAcogAAABADhEAAADIIQIAAAA5RAAAACCHCAAAAOQQAQAAgBwiAAAAkEMEAAAAcogAAABADhEAAADIIQIAAAA5RAAAACCHCAAAAOQQAQAAgBwiAAAAkEMEAAAAcogAAABADo0eAIwZxjAHAACpYa1NeoQnZYz8UWuMHACszLlRawAAkCZhGCY9wpMyxj0+ao2RA4AzDJdGrQEAQJqEYbpvbltr7x21xsgB4LuXLz4oaX3UOgAApMVgMPId9rExjmMHxeDOUeuMHAA+8trXhkbmE6PWAQAgDcIo1KDfS3qMiyoXSw/98bFj/VHrxLILwCr6UBx1AABIWrfdUZqXABaKxQ/EUcfEUUSSbr719s9KemVc9QAAmDRrrU6dPpXaNQDFYmnrT373N+fiqBXfOQCR+VVJg9jqAQAwYZtbW6m9+BtjVCmX/4+46sUWAN75q//6bhm9Ia56AABMUqfbUau1mfQYF1Wv1f/k9nfe8mdx1XPjKiRJd37649+44VU/2ZfRKxXj4wUAAMap1+tpdW1FqTz/xxjVa7VPvv+3f+OmWMvGWey8W9713n9hjfkTSY1x1AcAIBbWantnWxsb66lc+GeMY+v1+m+/7z++/W2x14674HnHbr1j0Tf2rbL6JUmlcfUBAGA3BoO+NjY31O+PvKMufsaoUqnc63iFn/vAO2/55lhajKPo4x1713v3+sb5acm+xkrPMNJBSbGsYAQA4Kmw1iochgrCofr9rrqdrvwgPYf9OI6xruv6rltYL3jeZ1Su/Nb7jr31vnH2/P8BcCuFhmqPrZgAAAAASUVORK5CYII=;" parent="1" vertex="1">
          <mxGeometry x="740" y="320" width="180" height="180" as="geometry" />
        </mxCell>
        <mxCell id="4LaL1iU1O6QQDgwiPbJz-4" value="" style="shape=image;imageAspect=0;aspect=fixed;verticalLabelPosition=bottom;verticalAlign=top;image=data:image/png,iVBORw0KGgoAAAANSUhEUgAAAiYAAAE1CAIAAABcBry5AABWQklEQVR42u29d1hc17X3v/eZyjAzMPTeqwSIKoQkUJcAFcuS5diWWxy/sZObJ+3NTX4p914nN/k5sZPc5NqxHcddtiVZkiXHVkMC0UWXANERvQ8wDDD1zJz9/nGkMZFgaAMMo/V5/PiR0HDmnL332d+91l57LUwIQQAAAACw9FDQBAAAAABIDgAAAACSAwAAAAAgOQAAAABIDgAAAACSAwAAAAAgOQAAAABIDgAAAACA5AAAAAAgOQAAAABIDgAAAACA5AAAAAAgOQAAAAAAkgMAAACA5AAAAAAgOQAAAAAAkgMAAACA5AAAAAAASA4AAAAAkgMAAACA5AAAAAAASA4AAAAAkgMAAAAAIDkAAAAASA4AAAAAkgMAAAAAIDkAAAAASA4AAAAAgOQAAAAAIDkAAAAASA4AAAAAgOQAAAAAIDkAAAAAAJIDAAAAgOQAAAAAIDkAAAAAAJIDAAAAgOQAAAAAAEgOAAAAAJIDAAAAgOQAAAAAAEgOAAAAAJIDAAAAACA5AAAAAEgOAAAAAJIDAAAAACA5AAAAAEgOAAAAAIDkAAAAACA5AAAAAEgOAAAAAIDkAAAAACA5AAAAAACSAwAAAIDkAAAAACA5AAAAAACSAwAAAIDkAAAAAABIDgAAAACSAwAAAIDkAAAAAABIDgAAAACSAwAAAAAgOQAAAABIDgAAAACSAwAAAAAgOQAAAABIDgAAAACA5AAAAAAgOQAAAABIDgAAAACA5AAAAAAgOQAAAAAAkgMAAABYEdwH7YEJIff/hGEYo9FI07RKpZqYmNDr9TqdjqZpo9Fo+jyHw+Hz+Xw+XyAQiEQiiUTC5/M5HA5FURhjjLHp4qY/s38AAAAAHjjJYfWAEGI0GicnJ8fGxkZGRgYGBrq6uvr6+iYnJ1m9mZyc1Ov1BoOBYRjTr2CMKYqiKIoVHpFIJBaLJRKJvb29q6trQECAl5eXi4uLVCqVSqU8Hg/EBgAA4MGSHEIIIgghxDCMVqcdGBjo7uru6enu6e7p6Ozo7+tXqVQ6vd5oZNUFIYT+RSkIQni6P9+5+J0/UBTmcLisDrm6ugQGBvn7+3vfxd7enqLueC8xvucLAAAAHizw/Y4mm9Ebg8EwMjzS0dFRWVHR3NLS2dExPDxsMBiW4ds5HI6Dg0NAQEB4eHhMTExoaKiLq4tAKATrBwAAkBybMGimKM3AwEBdXV19fX31jZv9/f0qlYoQsvxPyu7xCIVCV1fXmJiY6HUx4eHhfn5+AoEAY8z660CEAAAAyVl9kmM0GhUKRW1tbWFh4a1bt/r6+miaxtb0cJhDubq6RkVFpaWlxcbGOjk5wa4PAAAgOavHsiGsWUP39vYVFxflZOe0tbdptVpC7hg+VjedY4wxEvAFPr4+G1M2btu+PSAwQMDnY4oC7QEAACTHiiWHIarJybq6usuXL1dXVw8MDBiNxtXU9Bi7urquWbNm1+5dsXFxMpnMFGgAAAAAkmMVlg17wxqN5uaNm5cuXiwrK5uYmGAYZrV2AIWFdnZRUVEHDhxITEyUSqX4LjA6AQAAyVlhyVEqlTdu3Pjqq69qq2vGx8dtohMQQUhsLw4JDcnMzNy0aZOTkxNYPAAAgOSsDKwRo9frmxqbPvvsZFlp2cTkJLK98G6M7eyEsetiv/HYYzEx0WxQNVg8AACA5CyrZUPTdEd7x+dnPy8qLByWD9vqWSITMpksLj7u0OHD0dHRfD4fJAcAAJCcJVcalsmJiaysK5+fOdPV1bW6AgQW1TEUdnN3f/jhhzMyMlxcXMDcAQAAJGcJYRjGYDDU1NScPHGiorxCo9E8UB1DEEKI8Pj8yMjIxx9/fMOGDUKhEDZ4AAAAybG82BBCJsbHL128dPzE8aHBIZv3pM2kOhghhLGjo8O+vfuOPPqoi7MzpjDF4cDABQAAJMcS8ywhBoOhtbX1g/feLysre9CMm5ngcrlRUVFPPvXU+vXreXzIWQAAAEiOJewbrVZbUFDwwQcfdLS1P5jGzUxKTFGUm5vb0888vXvPnqkJqgEAAEByFjKrjoyMHP/006/On1eOjSGQm+mwF4vTtqR985vf9PHxAdUBAAAkZyFiQwjp7Ox89x/v5Ofn6/V66BgzcDic+Pj4F7/znYiIcHZfB/xsAACA5MxVbxiGaWpqeuNvf6usrCQMWDdz6DaMQ0NDv/u9f4uPj4d01AAAgOTM1bgxGo3FxcVvvvlmZ0cH6M18ug65urk988wze/fuZY+Lgp8NAACQnBkFhyFEr9cXFhS88eabvb29GGEE8QLzVB2JVPrcc8/t379fJBLBWVEAAEByppMbhhCG0ev158+ff+fddxWjo9ATC8be3v6RI0cef/xxiVQCtg4AANbMSkxPBCFCdDrdxUuX3nvvPdCbRaJSqU6eOHHys5NqtRpNqckNAADwoFs57P6NXqv75z//+c4779hI9QErQGhnd/iRw0899ZREArYOAABg5dyVHL1en52d/eGHH4LeWBCNRnP61Kkzp0+DrQMAAEjOHfvGYDBcvXL1b3/728jICLS+Jc1VhHRa3aeffHrm1GmtVmsqnwoAAPCAWjkMw1RUVPzjH2+Pwv7N0qBSqT755JMrV67QNA2tAQDAgys5DMPU1NS89tprA4OD0O5Lx8TExDv/eKewsJBNyA0NAgCA9cBdnq8hhPT397/15pvtbW0PorBTFIfDEQgEXC4XY8wwjF6vp2maYRi2xrZlGRoa+sfb//Dy9IyIiCSIwGEdAACshOWIWGMYRqFQvPnGGxcvXHwQynoShHg8nkQi8fT0DA0L9fHxcZLJxGKJWGzP5/MxRTFGo0ajnZycnJiYkA/L29va2trb5UNyjUZtNBiRJXKmYYyTk5N/8u8/8fL2hug1AAAeFMkhhGi12o8++uiTjz+m9bRtu3owxg4ODuGREUlJSXFxcR4eHg4ODlNn/Pu1hG0fpVJ5+/btivKKmzdutLW1LTKxKfstFEVlZGZ+//vfZ4+IwlgHAMDGJYcNUcvLy3v1lVeUY0obbkculxsYGLhp06YNGzYEh4YsrJ6N0WAcHh6ura0tLCgoLy9XKBSLdLsJhcJnnn3msccfFwqFoDoAANiy5LBxum1tbb/59a+bm5tttf4NRVEeHh579uzJzMz09PKkKA7CaIHpzghiGAYRotVpGxsbz549W1xcrFKpF5Z6DmPMEOLq6vKf//VfCQkJFEWB6gAAYJuSw5YkUCrGXn311by8vKXYJLeCxkNiiWTnzp0HDhwIDQ3l8XiWbcCJiYny8vIvvviiqrLSQBsWeI8YR0dH//KXv/Tx9aEoDqZAdQAAWDE4L7300hJdmmGYa9dyPzt50lbPiLi4ur7w4gtPPPGEh4cHh8OxuA3B5/P9/f3j4uLUanVXZ5fBsEDVGR4epigqLi6ejZeDQQ8AgK1JDutSe/ONNwZt8RQOh8OJio7+/g++v2XLFnabxOJTOXtNiqIkEklMdIyDg0Nra6tarV7AF7ER6pGRkV7eXiA5AADYluQQhBBRqdXv/OOdstJS2wtRoygqNTX1Rz/60dqotazdsNTzuIAvCAkJ8fHxaW1pUSoXEoWh1WpHRkfXJ6+3s7MD1QEAwHYkhxDCGI3Xi4s/+ugjnU5nYxMcj8/buXPXd7/3b76+fsu2IY8x5vF4fn5+QcHBzc3NYwrFAi4yNDQktBNGRUUthQ8QAABgTkv2pbioXC4/efKkSqWysamNoqitW7e++J0X3d3dEUZobg9H7mKcApuNxpR8cy62IIfDiYuL++EPfxAYGLiAhqUNhgvnz3d0dMCgBwBgpbB8xJpep//g/fePHTtmY1EDFEVt3Ljxhz/6oZe391ycaQzDGI1GlUrV1dXV1tbW29urVCo1Gg3DMDweTywWy2Qyf3//oKAgd3d3oVDI4XDmchtGg6G0pPQPf/jDAjbJKA4nPSP9xz/+sb29PRg6AAAsPxbOsUYY0t7efv78+QWHV1mpMmMcHh7+7W9/29PT07zeEEIQIXqa7uzouH69pKiosKenZ2JikqZpkzFz97exnZ2do6NjeHh4aurmpKQkFxcXTFHIbMIbisNJWp/0zLPPvPHGm5MTE/N6CoYx5uXmpaWmpaamcrgcGP0AAKxiySGEaLSarKwsuVxuU1EDGEkdHJ5+9pngkBCKY27/hs3X2dne8cUXXxQXFw8NDd1zIOnOb95pG6JRqzVqdX9fX1FhYVhY2J709C1btzg7O5vZbsEY8/j89IyMvv7+4598Or+cdQSpJifPnT0bHR3t5OwEhg4AAMuMxcIH2G2J2trad999RzWpsqU24vF4hx45fODAAR6fN9M0zUqsQqE4efLkG397o7KycmJiwrzuEvJ1jmeGYYaHh6uqKm9WV0ulUi8vL/Ob/Fwu18vLq7amVi6Xz/dxRkdHg4KCgoKDQHIAAFitkoMQ0mq1H3zwQXV1jY21UVx8/AsvvODo6GgmbRrDMK2trW+88caXX345rlTeIzbsCRsujyvgC3g8HpfLNf186seMBuOQXF5VWYkx9vf3N58YTSQSOTo4lJeX63S6eT2OwWAYHx9P2ZgCAdMAACwzFnKsEUQYUn2zurioCNnWQRw7O7uDBw+6u7ub96fV1tT++c9/am1tNRqNCGNE7mzYYIxljrLg4OCg4GB/fz+ZTMbn89VqtXxI3tHZ0drS2tnZqVarCSJ3vG0MUYwq3n3n3c6Ojm+/8IKZ7+VwOMkbNuzcufPs2bPzcmMSQm7dulVYWLh3714ImAYAYBVKDiI6ne7ChQvjynGbaRqCEcY4LiF+ffJ6M+FkRqOxurr6f/78P60tLYQQjDBBCGHE5fG8vb23b9++MSXFPyBAZGfHmZJvho1nUygUt1tvZ+dkl5aWDg8PM0aG/We9TpeVdYU2GH7wgx84OzvfrwpsCINIZLd///6SkpK+vr55PZpOr7t44WJqaqpMJoN3AACAZcNijrWmxsaPjx1Tq9U20jAYIYSkUul3vvOd0NDQaU0Bdvuqs7PzD3/4Q0tzs2lvBlPY2dn5yJEj3/3ud9PS0tw9PAQCwf3nRimKEolEPj4+69evT0xMVKlUfX19RoOBvQ5DmK6uLrVaHRMTw+fzZ7JFHBwcBgYH6hvq55uoWzkxHhkZGRAQAFYOAACrTHIMtOHkyZNlZWU21TYYJSQkfOMb3xAIBDPNy2NjY397/W8VlRWEuTPlczicoOCgH/7wh3v37nVycjJlxLnnCngKPB7PxcUlPj5eIpG0NLdotdo7lhAh7e3tIpFozZo1M5lZFEXx+Pyi4mKtVjsv6aANtIGmN27axOPxQHUAAFgeFpt94M5Kv6uroKDA1tSYw0lNTZVKpTOZOLSePv/lV/n5+cTIENYRR1Fro6J+8YtfbNy40YxpMo26Yezg4HDkkSP/9r3vubm7EYwQRhghrUZ79vOzTU1NbLaCaX8xMjJy3bp1C0j2efPGzfq6epNYrjrIv4IIQQwhDEGEEObuf1M/AADAol+0Rb5NFtjLMRqN+fn5AwMDNmbiuLq6RkdHz6Q3DMN0dnZ+8cUXhilJFvwD/L//g+9HRETMMZXAPfYKX8DfuWsnQeT1119XjilZMejv6/vs5Gc/+fefiMXi+00lhJBIJNq6dev14uv0fMpXY4THx8dzsrOj1q4VilZf6BrbBTRNa7VarVar0+povZ6madYtSVEUXyDg83gCgUAosuPxeGDMAcDCXjSj0ajT6TQajcFg4LHvlFC44MgjC0iOWq2+fv26jaUbQAhHRET4+PiYEdoLFy709/ezgo8xcpTJvv3tb4eHhy+gBLVJQvh8/s6dOzs7O08cP8GKGSGkuLi4oqJi69atM/3Wmsg1Hh4e3V1d8x1MJSUlhw4fDgkNWS1LLYQQwzBKpbKjo6O5ubnuVl13V5dardbqtAbaYDQa2c9QFMXKjEAgkDhI/f39w8PDAwICfH19ZTLZVPmZ42tDCFEqlS0tLVZSbJDD4YSFhUmlUvMfYxhmdHS0ra1tOY08QohYLA4PD7ds0cKp6PX65uZmlUpl5h4QQl5eXr6+vku91DAajW1tbaOjo2Y+IxAIwsPDl60ePCGEpunm5ubJyUkzg5zH44WHh4tEomk/wDAMwzC9vb0lJSWFhYUjIyMGg4HL5bq6um7cuHHTpk1snbC5v0QWk5zm5ubOzg4b03YelxsfHy8QCGb6QE9PT2FBgenwP4fLzczMTElJWWQZNIqihELhoUOHamtrq2/cZH84OTmZlZWVkpIy05B193APDgqar+QghIaGhsrKyqxfcli9UavVXV1dBQUFZWVlXV1dkxMTc/EKEoRqamrOnz8vEonc3d3Dw8M3btwYHh7u4uIybVjHTLS0tPzHf/yHRqOxhgaRSCQvv/xyVFTUrDdfW1v78ssv6/X65VMdgqKio373u985Ojou0Td0d3X95je/mTXN4ObNm3/xi1/MNKVaUHKOHz+enZ1tvr9+/vOfp6SkLJup3d7e/utf/3poaMjMZ1xcXF599dWZYoh0Ol1RUdHHH388OTkZGRmZnJwskUgmJyfr6upOnTqVlZV15MiRrVu3mpkkLSw57AimaTo/P398fALZEIQQkb19VFQU+tccAVP1/57QZE8PzwMHDpgJNJiXrePu7v7okUdvt7SyixRCSGNjY3d3d2ho6ExrqIDAQJSbu4C35UZV1cGHDy71a7lIB5rRYKirq/vnF/8sLS1VKpVGoxFjPMcZFCOECCJGRjUx2TYx2X67LSc7x8XZOSkpadv2bdHRMUKhEOE7K7UZ8wwhjBii1+p0Gu3KtwlGPB5v2pF5/1giDNFptPM9L7w4xUG0nl7S8VBUVNzX22cw0DMFarI/rqqobG1pjYmJQUs5tDHCtJ42PzD0Wt2F8xfWxcSI7O0X7AWZOzRN5+Tk9Hb3MOwe5wywkUrTzm96vf7zzz8/ffp0amrqwYMHPT092c1p1pvd399/+vTpt99+W61W7927d1771txFdv/Q0FB5eTkhDLIhMMZOTjIXF5eZBodGoyktLTWZOBjjTZs3eXh4WGrWpigqPj4+MjKyoqKClXa5XF5TUzOT5GCE/f38+Hy+fj7bOSyNTY3t7e1r1qyxWskZHR398p9ffn7mzPDw8D0rnoVdUKfV9vb29vX15ebmJicn7z9wYG3UWj6fvwxzwfKPZIKWO24Cf524dknQqNVlZWVGg8HMk7HfPz4+XpCfv2bNGh6ft7TPO4dRV1lR0Xa7LSo6ehlemeHh4bzcvFmdwPhu6Oz9VygtLT158uTOnTufe+45LpervJtRRSAQSKXSwMDAF1980cHB4dixYz4+PomJicshORhjQkhDQ0N/fz+yOfz9AxwcHKZdSLJ1ndva2kw/kUqlmzdt4vP5FpwppA7SLVu3VFVVGY1GjJHBYKitrd23b9/9hhQ7rQQGBUkkkpGRkfl+1+jIaFVVVUREhLVNuOx6tq2t7f333y8sKNRbep1OCBkbG8vKyqqqqsrYm5mRkeHnZ67sHlmFwQcrF6e3VKJDCGnv6Ohob5+rEX/jxsTEhMxJtnQrqjkODKVSWVBQEB4RzqcES3gzhDAMU1ZW1j+w8GlZo9GcPXs2KCjoG9/4hkgkampqeuWVV9jdeqlUumXLlszMTLFYfPDgwerq6tOnT0dGRt4f3DTjenox9rPRaCwqKtJqtcjmAlA9PT1n8lESQlpbW8cUY6af+Pn5BYeEWLZIKIfDCY+IEIlEpp80NTXNVIUaY+zk5GRvb7+AL2IYpri42DrP8La0tLz88ss5OTl6vW7pXlH5sPzYsWOvvvrq0NDQTHM0sbIhbv3Rd0vUXgzDFBUVjY6OzlFNOzo66upuWYn85+TkLHmNRIKUSuXlS5e0i/AAt7e3d3d379+/38XFBWOs0+nkcvnevXuff/75sLCw999/v6amBmPs5uaWmZnZ0NDQ0tIy98UNtZgWVCrG2lpvI8YGTzw4SKXTv9gEIYJ6e3pNEckYY19fX4lEYvEVpYuzM5uQhr2wQqEYGxub6VsEfL6dnd3C/ALdXV1dXV3Wc3KFXal1dXb97fW/NdY3IGbJJ3yMsbe3t4ODAwRSW7nRNjo6WlpSOve4QZVKVVhYtKzREzMzMDCQk5PDhvIvUQMxDFNZUdlQ37CYRm5ububxeGvXrjW9Djweb926dZs3b96xYwdFUSZvSnR0NJ/P7+npmbtJvShfSnt7+wJqU1o/HA7HwdFx5p1kNKZQTI2y9fX1tbhXihAikUi8vb1NP9Hr9aZogvs/z+XxHBwcFrYsGlMqb9y4YVVdMDk5+e6771ZWVCxPULK3t/eRI0cgtbaV6w1CqLa2tr2jfV6/WF5W1tXVZQ3R7UajMTs7u6enZ4kkhyCkmpy8dPHifHOR3NPOg4ODEolEIpGYPDcGg6GhoaG0tPT8+fMSiYTdVGYPsNvb27MB4nN8dxYVsXbr1i12ErQ9yZnZYiAMYTQajWnQcDgcDw8PClOWna0wxnyBwFEmQ4jNTI2MRuPY2NhMXUtxKNGCHGvsm9Dc3Mye81rxxmfzLJSWlhYVFS1smmB3Gef+eR6Pv3fvXn9/f7OmIMKQvmClJUer1ebl5em02nn91pBcXlJSEhgYOJcYv6Wmv3+goqKC3TVcCs1pa2urr69fpK4zDHPPNoFOp/viiy8YhpHL5d/73vcCAwPvTDsUxYaxoRmCey1p5ag16traWis5GWdxyREKhdNPWxgThIyMceoEJxAKl+I22POMU0cDffdw6LTzLMWhFjzOOjo6FAqFNcwrCCHFqOLM6dMq1eQCmksoFAoEAh6PN/dXOjg4OD093RrkFjBPV1dX9c1qZj7rCYyxwUBfv35dq9VagwlrNBouX7q0gDCfubzFBgOdlZU1Pr7YdP5SqVSj0UwNfxWJRN/5znd+8pOfODs7j42NsS8XuwjQarXz2kXmLvjx5EPy1tZWG0xdhVF4RHhkZKSZQczlcKc2hVq1JFVQGYaZGqbF5iYwY8AyxgXKPyaot6enq6PT1cUVUyv8WhIjU1VV1djQOMf9G3uxODQ0NCQk2MvLy9nZWSSyJ4SoVCrl2Jh8eHhwcKCnp7evr3d8fIKQaWKL7ESi/fv3sdukZqYkNocel8fl8Lj4jtkzhzUnQUbGOOt5VYpDYUyx54LmtpYlHA6HPR5rkWkUY8zhciz4CrFXs6xVgRG+VVsrlw/N29wkqL29/fbt2zExMSuvOgTdbr1dXFh04KGHKIqy4OtGCGlray8pKZlfcfrpBkNgYKBGo+nt7WV99YQQiqKcnJz8/f137Nhx+fLllJQU1tDp6OhQq9UeHh5LLjkIoc7OzsXLqdUZ7xg5OTk9+dRTLq4uM40YjLBIJDK9TkajsW9pwsR1Wt3U1RCXy5XJZoz1NBqN8zULpqJRa5qbm+Pi4zkUZ2W7QKfT5eflzeXoIkVR0TExjz/xeExMjFQqNbkCWMcaC1sCtbOz8+bNm9evX2+/3WaKzWP1Jz4hfvuOHXNJGBUUFPTzX/xiXu8zwzDnzp67UVVlfmW2fceOLVu2UBQ19wUcl8v18/OzVJv7+fs9+81vTg2PXOTc5+DgYPHDxWqVqrSkdGHrqrGxsXz2gI4V2LJarfbixYubN292dnHBljukStN0dvbVRea6ZLuMzYKTnZ0dHBzM5/O5XK6joyOHw+HxeFu2bCkoKCgsLPTz89Pr9Tk5OU5OTmx5lyXcy2EDimpqahZw8NDKEQgEhw4dSkxMNOOWwQhNnfoZhunu6jIaDVzKoqOZEKVSaUpwwJo4YrF4ppWjgaYnxifmu40xtU9v3bp1UKcTcUUr2gN4YmKiubl51qegKGrr1q0vvPiir980sRsm7eHz+S4uLi4uLrGxsQ8//PCNyqr8/PyysrIxpRIhIpPJDh06NGumMvZSzs7OM6W5m9mLYiwpKZndsxcUvH379vk69y04oUsk0k2bNs2lHeY+nCzrMkII3b59u66ubsEOg5KSkocfftjb29sa3GstLS2lpaUZmRmEYEvdz/DwcEFBoUV2OmQyWWpq6oULF6Kjozdt2hQQEPDLX/7Sy8sLY+zv7//SSy9RFMWe/rl+/fqjjz7q5ua25FaOXq/v6OiwtY0cjNetW/fwww/PmrfGz89PIBCYVuKdnZ0KhcJ1Pu0+B/sbDQ0OsvECLC4uLmasHK1Wp1arF/Oqd/f0qFQqkf3KSg4aVSjmYj2HhIS88MILPj4+M83U9zQUl8t1dnLevn17SkpKXX396dOnyyvKN2zYEBcXN8cF2gKmhrn8CiEEYzT3ReJSuXss/CZZ+FkMBkN+Qf5M59LmNLy7u6uqqth5c8VnGo1Gk5WVtWXrVrFEbClVLi0t7e3tRdgCncnlcg8ePNje3v72229zOJzExMTAwEB2iHI4HF9fX61Wm5+f//777ycmJmZmZs4rqzR3YeNJo9FMzT5iG3i4uz/55JNOTk5mHx4hCgcGB8mcnfr7+tlm7uvra2xqcp45Qc4CBpDRYKyrq2OTSBKCECJhYWESiWSmz4+MDE9MLCrT3ejIyNDQkIury8q+k4ODg7N61TCF1ycn+/j6zi9iAiPMoURi+6T1SaFhoQUFBeHh4Qs8zLQSi/0HFjaDS3lZuRmvJofDEQgEM51oxgTptbrC/ILdu3YL7YTW8FBNTU01tTUpKSmLV2hiZEZHR69euarX6yyyeGBt+hdffPHDDz/861//mpycnJiY6OnpKRKJNBpNT09PRUVFWVlZQkLC888/P9/TbAt0rI2Ojk5dgNuGS+3RRx+dy5qXTbsZGho60D/AqsHk5GROTk5iYqKlkpMTQkZHR3Jzc012JI/Hi4uLmzanDrtp0dLSusittfHx8fb29jVr16xsR8iHhmYphIERj88PCw+jOPMOTDd9XiaT7du3zxqiZoG5UF9f32Y2yY2Hh0dCQsL58+fNyFJzc3NPT3dwSIg1dLpSqbx44eK6devsF3q2wWSgMgxTWVlZX1dnQWOVPRz9/e9/Pz8/Pysrq6ioiJ2F9Ho961578cUXU1JS7O3t59uYC7Ry+vv7VbZ1Iic2NnZPevocC3kJhcL169dfL75uqs9WWVHZ1dUVEhKygOJs06pIcXHx7du37zY4cnNzM5OpnhDS09O9yEgVmqb7+/tWfEWr0WhmddhyOByxeLEeCdtL4mmrGI3GmzdumqlAiDGOjo7evXt3cXGxGe/L8PBwaWlpYFCQRV7SxVNZWdnY2BgfH79IQ0etVl+5ckWrtXCOc4qiJBJJRkZGampqd3d3d3e3SqWyt7f39/f39vaWSCQL8wYv5K0jhHR1dWm0WpsZ097e3s88+6yjo8PcO2PDhg1syBDrPBkZGf7ss880i9tNMdks7W1tp06dNo0hjHFMTIyXl9dMv6TT6drb2xffDkNDQ6tif46macXoKAKv1YNBf39/aVmpuYUzl5uyMSU0LMz8eV6DwZCfn28ma9QyMzY2duHCBZpeVKEHgkhbe/utW0uSR47dvJFKpWvWrElPTz98+PCePXsiIyOnBoguk+SslrlpLgjshN94/LHomGhqPmsfDw+PbVu3mqwio8GYm3Mt63KWXqtb8PkYRIjRYJwcnzh+/ET7lEzVDg4Oe/bs4XJnNEn7+vrabrctvikUo4pFmkqLH+T2sxYUIcigp2tranU67cKbGlgNsMGxVVVVA/0DMw8HJHN2CgkNFUvE69atM2/BtLa2NjQ0WInkEMLcvHmzt7d3MZU4aD195cqVJd3mYCu7szaN6Q8LN54WtsaUy+W2sTWKKSolJcU0oc+9KSmK2r1nt6+vr+knKpXqo48+qqioYAhjqpo8P/MGIY1Wc+bMmZzsbJOiUxS1bdu2mJiYmSZiNr5ZLpcv/vUeGR1Z6ZTSxM3NzYy4sjAMk5+fX1RYZDAYYIvetlGpVHm5uTq9bsaOxmjdunVeXl4URaVs3Gg+1FutVufk5MyyWbiMDAwMZGVlLeZ+2tvbigoLV5EBMG/JYesBDw4OIpvwa/j4+Dz55JPz9Uuyau/t7XPo0CHhlGw3g4OD//u//1taUqLX6+c1CNjVnEqlOnXq1CeffGKqdkwI8fX1PXTo8EwH69iT9nl5efSi3yKM8djY2Eq7HbCbu/uspW0pihodHX399dcvXbqkUqnYtGwwO9uimYNut7Q21DdgMuNykMfjmSJ3/P39IyIizC5WSH19vZVE27KJE3Nycrq7uxemGTRNX8vNHRwcXEVRMAuRHJVKNTIyghFe5YMZiexFTz55NDwsfGFHLjgczq7du9PT003JQthdrldf/eO5s+dUKtUcbR1CCCKot7f3rTfe/PjYx1NjnR0cHJ544omAwICZ9AYRUltTe6u21iIrALVKvdIZJYizk5PMfJz6lBXia6+99rvf/a60tPTOmSTCpqYB+bEVxSFMdXW1+THp7e0dHx/PviD29vYpKSlmUgxghHp7eivKy++MlpV1sRCEEOrt6c3Kypq35BCECJEPya/lXFtdexwLcaxpNBqtVruqFYcgwprh23fs4PK4C1sjYApLHaRPPv3U2qgoU2sQQgb6+//+1lt/fOXV6hs3tVqt0WicaUwwDGM0GMaV43m5ub/9zX+fPXdONSVdG18oeOjhgzt375rR0USQXqcvyM+fmJi0yPuj0+tVS5Mvbu5KLpZK1katRdTsSxpCyMT4eG7OtZf+879e+f0fsq9cHZbLaZo2Ghmwe2wDpXK8nJWHmTUkOjra1dXV9ErGJyY4u7qYqdSp1+kK8gtUE5PWMEIwQUaD4XrxdcWci8597RcxMhUVFYOLy3Cz/CwkSJrH43l5eakmJ2k9vUqHMsZUcEjw008/vchMUBhjLy+vH/3oR//7l79WV1ebpEWtVl+9evXGjRsx62LStmxZs2aNs7OzUCg07ccYjUa1Wj0wMFBVVVWQl9/U1HTPQU6+QLB///4nnnjCXBEXQhobG4uKiiy1rqdpemJiYgVPqxBC+Hz+rl27CvLzlWPKOf6KUqnMysoqKCjw9fWNXLMmdfPmsIhwJycntrXh5M3ydJzpjbDgBRsbGxobGxmGmemyfD6fNWvYQcueJomNjR3oH5jJ7scY19bWtrS2rlu3btlcNez5/Jn2bDo7OgoLiw48dGA+YWBEoVBcvnRppnPTAoFAIBBYYRrMeUsORVE+Pj6//vWvrxcV5+XlNTY2qhcfGbzsiCXio0ePWuQYDcY4LCzs+z/4/l//8teamhqT6rC1JbJzcgqLitzc3Pz9/X18fBwcHDgcjk6nUygUXV1dnZ2dY2NjBv29VQJFItH+A/ufefZZBweHaaMGWJedWq3+4osvFh84MNXqWlkrh501oqKi1icnX71yhcy54CzbGk1NTc3NzVevXg0IDNiwYUNSUlJgYKBIJGJ7GbRnJgYHB48dOzZrnifz8sDn8zMyMtic3JZaAOXm5qpUKjMXlMmcgoODp2Z0FQqFGzduvHrlqmHm4OPx8fGC/PyoqLUUh788Lezq6uru7l5dXT2TdyHrStbm1M3Ozs5zbD2GkJvVN2eKvmMnJYFQWFFebgtWDofD8fb2PvzI4V27dzc3NxUWFBYVFw/0968WlyJFUTt27EhLS7PUYUCMcVhY+C9/9ctPP/n00uVLGrVm6uuo02q7Oru6u7rQnSTHd17SqUOL3M2MhDFyd/d49tlnd+7caT7/ktFozMvLzc/Pt6zes1tQK9tBIpHo8ccfr6+r6+3pXcD0NzExUVtTW3er7szpMwEBAbFxsSkbNgQHh5jSx4H23NNiQ0PyYx99tMiXQCqVJicnm3xci6e3t/dG1Q3zozEhPv6ezPkY45CQEBcXZzNx1QzDlJaWHjp8yNvHZ3kGg0gkyszMbGtrmz4rFSEN9Q0lJSV79+6d1cfANsjExMSF8xdMcUb3mzj79u2rqKiwEcfaneAuipI5yZLWr49Zt27fgf1FhYW5ubmdXV06rdbKY9lCQ0Mfe+wxS1UdvtsayNfP77vf+7egkODPz5zp7OpijEZyd4cQozuK8rX/AX1t99/xO2MkEAiSkpIef/zx6OjoWfMg9PT0HD9+3MJVWQmZaRAvM0FBQUePPvn3t94aHx+frwSyrUYYRjE6qhgdra2p+ee5L6Kjo7ds3Zq0PsnBwYHL5YLqTB3ACC0++oRYtkHZ0P9+s2VBhEJhUlLS/caZu7t7VHS0GclBCHV3d9fV1Xv7+CzXOhfHxscFh4bcvHFj2qbWaDVXrlzZtm3bXPLfEEJqa2tra2vvzxzPdoO3r09CYmJFZeWCU8tbl+TcM14FAkFoaGhwcHBGZmZjY2N+bl5lZeXo6Kj1BL9PxcXF5bnnnvP19V2KSUcsFh88eDApKSknJyc7O7uvr0+jVs/6MmOM2fO9GRkZSUlJrDPNXLkwQpRK5YkTJyxy/PNfroyINVg5CCEul5uenk7T9PvvvbfIY24Gg2FkZCQ3N7ektCQgMDAlJWX37t3e3t5sXBNoj3UaXlqttqyszPwc4u3tHRMTc//P7ezsNm3cWJCXbyY/LE3TpaUlW7ZuWbA7cb5IJJLdu3c31DfMVEi7sbGxuro6JSVl1vuh9XTutWvstuu0786ePXucXZytM3TTApLDNhBFUZ6enh4eHhuSN/R0d5eWlmZnZ3d0dLBZW6xEablc7uFHDiclJS04W8OsrcHj8fz9/Z988sm9e/fW1dWVl5bV1tYODQ3pdLqpoWsURXG5XHt7ez8/v/jEhISEhODgYLFYPOuNsZsWx48fv3jx4lJ4MvV6/Yp3FhuAbmcnPLB/v1QieffddxdzQtuEVqNtaGhoaWnJysratm3bQw895OHhARaPFeoNe9jgxo0bMwUys96nxMREZ2dndI+TGiGMcVxcnJeXl5ksUISQiorK9vb2sLCwZUu5tmnTpksXL9ZU10z7rxMTE1999VVMTIxYLDa/4mxpbSkvmyaQj/17QEDAtm3buNaRR87yknP/ZCEUCkNCQwKDgnbt3n3jRtWVrCstLS3Dw8MrvtODKRwbF5uRkSEQLnn2ch6P5+rqunXr1s2bNo2NKUdGhnt7e/v6+sfGxhiGEQj4zs4uXl5enp6eLi7O9mIxnoL5t5HW63OvXTv7+ec6rc7yMyWxlsUBxpggxOPzd+7a5enl+fGxj8srynVa3WIvi5CBNvR095z49HhFefljjz2elpZqZyda8fLbwFQYI1NQUKAYVcz8LlMCAT9p/Xq+UIDue2Uwxk5OzklJSR0dHWbWuyMjI0VFRSEhIUu0AL0fZ2fn3bt3NzY03l/cEiPEGJnKior6urqk9evN3A9N0zk5OfJh+bTDm8Plbt++3dPTE1lrlnSu5ScLCiOEuRTl7uG+e/ee1LS09vb2a9euFRUV9fT0sDns8EpMa+7uHt987jk3d/elTiFsCp5BCPEFAjd3Nzd3t8g1a0wruPulZS5xyYQQnU53JevK3996a2J8wubnSIwxl8clhETHxPz8l7+4lpNz7osv2tvbjQbjwj0G5M5Oj8FgaKhvePWVVxobGp548qirqyvYOlZj5iDF6GhJ8XWjGa8aRh6enoFBgTOt0vh83oaUlC+//NLM3qTBaCgsLDxw4ICbRYsrmncIpaamfXHui5aWlmlH5sT4xPmvzsesW2emDEpXV1dubu5MwZzu7u47duzgcrlGg9E6u5e7tK1MYTs7uzVr1oSHhz/00EMFBQXFxcXNzc0TyuWOFufz+Y8cecRM/v9lm0anvYE56k1ubu7f//7WyMjIUtki2Br3NjDGMpns4MMPJ61ff/ny5cL8gs7OTp1Ot8itUYyxSqU6c+aMYmzs3773b6A6VtPdqLGxsa1tln3KuLg4s9FxOMDf39PT08x1MEJtbW11dXXsdZah99nSZxs3bmxvb592m4oQUlNT09nRET5d2h52wVpQUDBtVAUhhKKoTZs2ubu7E0KsNiHZkq/3KYqiKIrH4/n6+j722GMvv/zyf//3fz986GFPT0/WhboMnhyKopKTkzPSM/h8/mqcVggh4+PjJ44f/8tf/jI8PLykLTZtFbiV1Rt2CHG5XD8/v2efffYPr7zy7z/96ebUVEdHx8V74Wmazr569a233lIoFDDdWwMGg7GystJ85KRIJEpOTja/D+fq5pqYmGj+u7RabXl5+bLtX1IUxeFydu3a5enpOdNnhoaGLmdlTXtLbHXUwsLCadO9UxTl6uaWnp5u5bMcdzm/jK35k5ycHBcb23GwMz8/7/r1ks6ODpVatYSSjJG3j8+TTz0pkzmuOqVBCDEM09/ff+b06XPnzi19BDO2VOz4Uo1XLtfDwz1zb2ZaWlpzc3NRUWF1dU1fX++4cpwhzMJGkcFgyL5y1dfH9+jRozwe70Hc18EWWBOTu4N2MeOHECKXD5WVlZn/mLe3d2RkpLkvwojL5SatX//V+fMq1eT0WQYIohCurKjo7+tna18tD75+fqlpacdPHCfTld5gCFOQn5+enh4WFnbvPzFMRXlFW+vtaR+HoqiNG1PYrSlrHmvLJzlTxwdfIAgLDwsOCX740KGamprs7OzKyspxpdJoZCwc3Y+RQCB48qkn16xdi5drk9CCkqPX6ysqKt59593mpqZlqGSDMVpAZdnlHEJ39skQkjpIExITYuNiJyYmOjo6ysrKKisrb9++rVapGcLMd7NQp9OdOX06LjY2ZhmToFgPAqHQw8NjkSajvb39Ik1kNp96ZWVlX1+fGa8pxnjDhg1OTk6zKBzGa9auCQwKvFVba+ZL+3r7ykpL/fx8l2/O5XHTM9JzruX09/VPl6wX9Q8MXLlyJTg4+J7kipPjExfOn9dqtdM+sFQqzczca/2OHO5KzR0IIQ6H4+TktG3btuTk5NbW1itXrtyorOrp6WGj6S2S6YvC1MaNG1NTU1dRLCzrsTUaDB0dnZcuXbp8+dLw8AhhGLT07maM8CKTzi3zKOJyuY6OjrGxsTExMY888khzc3NhYeGtW7f6enonJ+eXt3FkZCQ/P3/N2jU8iv+gbeoE+Af853/95yJre7NbbotsOo1GU5BfYL6mskAojIuLm7WoEjsLJycn19fVk5nDZWmaLioqSs/IkEgly7OdQ1GUn59famrq6VOnpo0CMBoMpaWlhw8fZhMr3FFfQm5WV9fX18905bVr1wYGBFj/YOOu7JRhSjkeExOzJjJyeHi45HpJbm5uXV3dgs8kmgLGKIoKCAr85je/6eDgsIr0Rq/Xd3Z25uTkXM260tfXxyyL2NxpOgrP5fCztQkPu3xxdnZm86opx5QN9fXZ2dnl5eWjo6NzjM4nhBQVFbFJUB40K4eN6Tdf3Gx5uH37do1ZowQh5OPtHRgYOOuJAowxj8tLSEg4eeKkymySjrq6usbGhqT165dtxAoEgh07dmRdzlJOd8yZINTe3p6Xl/fII4+YTE+dTnctJ2faCooYY7FYfODAAZFIZP02OteKboXHc/fwOHDwoe07tjc1NV26dKm29lZ/f5+Bni2LAUZcLlfmKHNxcXFydnJ2cpZIJRKJlMPhRERGsFn/rFNdTH9CCNG0QaFQdHZ0FBUXF+TnDwwOLHOVZfYVNX8Mzfrlh8PhODk7bdy8KT4xobWl9cznZ0qvl8wxf8Hg4GB7e8cDKDlWEt1kNBrLy8vHxhTmuzg0NJQwZEQ+zL77Zl8xJLKzc3N1bTcrOWq1+sbNm3Hx8cvpCwkODk5ISLiWk3P/whoTROv12Veubt2y1c3NDXMwIaT19u2bN2/ONAHGrIuJWReDOZT1e4W51jNZmP7v4OjIpm7r7+8vLi6+du1aa3PLNLY2RpiipFJpdHT0+vXro6KiPD09hUIhj8e7xyttVXMouZvX02AwGAwGrVarGBltbW2tqampqanp7e3VaDQrdR6Tx+dLJJJVPXeaBpJIJIqKjgoJCSktLf3H22/PGnSLENLr9dXVNzdt3gTR0ivC+Ph4QUHBrGO/srLy9s9+huYS7IoxG+U16yt5vbj4wIED7u7uy9b1IpFo797MyoqKabMIYoSbm5uLi4oOHnoYIUTT9JUrV4aGhqa9lNDObu++fdJV4svhWu3Ewefz/f39/f390/fsKS8vv5ZzraGhQS6Xs92DMXb39EhKSsrMzAwNDRWJRPfolrUZNGyiGjb5jcFgUKlUo6OjAwMDA/39I8MjSqWSPZC8gmn4CCEikd0iHfrWNoqEdsLU1FShUPi73/5WLpfPmtxhcHCIYRgrj/mxQSOLEEJIa2trX1/frCaXXC4fHByc1xJkVjo6O2tra93d3ZdtZFIUFR0dvW7duoKCgmk/o9PpLl++nLZ1i5OTU09PT0FBwbQzA0EoMDAwJiZmVk8jSM4smF57Z2fnXbt2p6Vt6Whvz8vLy8/PHx0d3bhx46PfeDQgMJDNymflbc0wTE9PzyeffJKTk8OWF5pao3pqeNXK5ptxdJTJHGW2JDkYYYJJbGzsnj17Pv30U/PNyxY+MBqNc9maBizbUzRNX7t2bXK2+ramFadlBU+r0Vy5ciU1NdXOzm7ZHlkikWRmZpaWlc2U6LOhsaGiomLHjh052TkzJdUW8Pl79+51dHRcLaY5d1WMR4qi7ER2kWvXhIWH7du/Ty4fDg0LFdvbo/vMGjOBlSslNkbaUFNb+9677964eZNhGPR1/cS7qxSrWWk6OclMRWVsZTJDFIcSCgVxCfFnz51Vq9TmP26majiwpINPPiS/eeMmWaHGJwQ1NDR0dHREREQs31yBceTaNUFBQfUN9dOG9et1+oL8gsiIyLKyUjLDzm5AQEBKSgrHWpN4rk7JuZO3DSGEuDyej6+vj6/vTEJiNBp1Op1er2f9VFwul8/nCwSCWcvPLNEkrhxTXjh//rPPPhsaGrpXDq0sIQWbDNH2MitjjBHGUqmUrVYwi229SrwTNgZDyI2qqp7u7hW8h5GRkaqqqvDw8OUcAM7OzukZ6bdvt+p0+mm/taK8XGRn19zUPO2v8/n8PXv2LOcW1IMiObPaK4QQuVxeX19fV1fX2tKqUCi0Gg1BhMfnS6XSgICAtWvXRkREeHt7s6fVltQXxzrNGIbp6uz64P33CwoKrKTu2ay4uDhbyTaGydRYfE+x3TE6Oqq7L33v/Qjt7GAjZ/lXZhq1Oj8/fyUrbOE7pUIzMzOXzUnFBlimpaWdP3++ubFp2s+Mj49funSJnqGotqura2pa6uoasVybGbXDw8MFBQUl10sUitGvw4sxJohUVVaeO3fOzc0tKipq+/btiYmJSxsKTIhGo8nPzz9+/HhLUzMhZFW0IY/H8/LysoblEhvO19vb6+zsLBaLMVrUYQP2qFNlZaX5A4bsFODo6LCKfBS28eYSQnp7+xoaGlbwTWEz/tTX1zc3N69frgM67JBzc3NLT0+/3dJqMBjuf/sIITPpDUVR27Ztc3NzX109biOSQ1FUZGTkj3/849u3b1+9erW0pKSnt9dgMGBypz4uYzAO9PUP9PWXXi9JTk5+9LFvrFmzhsPhWHwf0mg0jsiHT5w88dVX5yfGx1dRG4rF4gCrOb08Njb2yh/+IHOU7du3LyoqSiS2Z5dy81rQkbv2ZktTc961XMQQ8yktOBxOQEAAWDnLrzoVFeWLrP266JtAGCH1pCrvWm58fPxcfLAWnLuSkpLc3N36+/rncb8Yubq77dy1iy/gr67utp3InDtHMaKiIiIiDh8+XFlZWVRUVHOz+p7EJxMTE9nZ2Q2NjY8/8XhGRoZlD9vTNF1VVfXpJ59WVVZaZx1uMzg5OXl4eFrJzTQ3Nzc3NatUqvLy8jVr1sQnJGzctNHLy8tuno4vA22or697++9vy+VyNFsUiVAojIxc8wDu5ZAVfW0nJiYKCwtnWssvs/hVVlb29fb6L+/ay8fHZ9vWbSdOnJh76ApFUampqUHBQXi17T7aVDAo2/Q8Hs/Pz8/Pz2/Xrl31dXVXr1wtKyuTy+Wm7iSE9Pb2vPHGG3K5/Omnn15kVjHT0c7JycnLly8fO3ZsaHAIrRJn2lQ8PT3FYnuy0sUEWU9CXl6eRqthlwilpaUVlRVnPj8TGhq6YcOGsLAwX19fsVg8NZR56nkm9s80Tff39+fm5v7ziy/6+/rn4rTx8fHx9vJ6MA0NhmEYhll815ui/9mVwVwKQTU2Nk5TsuxfYb2+XC6XLOLOtFrtwMCAmWmdENLX11dTU+vj67tspULZSsq79+zOzs6e+3kjFxeX9PT0FYmKAsmZRnVMnqKkpPUx0THtHR1VlZWXLl1qa29jt3kIQiqV6tSpU1wO54mjRxepOkajsb29/dixYwUFBVqNxmqLI5lvt6ioKGsolkMI6enuuXHjxtSpwWAwDg4ODg4OXr9+XSqVenl5eXh4uLu7Ozs7u7q6Ojg4sApE0/T4+PjQ0NDQ4GBnV1dra2tvb6+RNsyxBZKSkhxlMvSAgTEeHVV89dVXdkK7xQ9dghAhxMXFJSUlRSAQzPp5vV5fUFAwaTYhDUIoOjr6Zz/7mXARJeQJQl1dXb/59a/NJyMwGAwlJSXbd2xfzioeGOPAwKC0LVtOnzo1pw0tjDdv3hwcHLwaxxvXtt8lTGGhyC5yTWREZMTm1NSTn528fOmSSqVmo+DVk6rjx0/InJwOHDiwgPUCIYQwRK/XFxcXffjBhy0tLQwhq9G+IRgJhIKwiHBqxXfOCSFG5kZVVX9v39TZD9/1/jAG49ioYmxUUX+rjv0HHpfH5/N5PB5FUQzD6PV6rVY737M1BCGpVJK0PoniPHAbOYSQ/r6+1//3NYtdEKHY2HVxcXGzKARBhBDFyGhleQVjNGtgYRyzLsbP3w/dLV2xsLsSi+3Xrl2bl5dnvjVu3LzR0dERGRm5nL3AF/C379h+6fKl8fFxPNthWLFYvGXLlsUI8Api6y8YvhNlS1GUr5/vd7/73W+/8IKzs5Pp39Uq1fHjx1taWqamA5jrIGaYwYGBd99555U/vNLc3Dz1mOdq9KqxO+crbqerVKpr167NtTgQQTRNq1SqsbGx0dHRsbExtVq9gLOcFIdKTUtbu9J1ym3lnUMYza0dCamvrx8cHJyp2QlGBCMHR4fEpKQ7bzLGaGH/IWQnEiVv2DCrKa8cG8vPz1/+E8HBwcGzljFFCFEUlZiYEBUVhVfnGbKFSw6bHUStVq+WA9scDkcsFh88ePBbzz8vlUpNvdXb23vy5Ek2ymCOqsNG8d6qvfX73//++PHjY2NjZNWKDUtAQICzs/PKr7gR6uvruz2HFJyW/VJfX9/Dhw+LRCIIV7NUk5LZP0N0en1eXt6sweuBgYGLdyKxE3R8QvysBycNBmNJSclSV3y/H7FYnJ6eLrYXz/qxjIxMNqvkA2fltLe1/fGPfzx37tzAwIDBYECEsK5c611/Yczn8zPSM44cOWKKgySEFBcXl5eVz2mEEYQIUSqVp0+d+u/f/nd5efmqi0ybVozDw8OtYSuSYZiioqJxpXI5v9TR0fG5554LDQ0FE2eZ6ejsqKmtNfPeYYQ4HM7GjRstlW3Ww90jNjZ29pmtvb2mpmb515GxsbFx8XHmXYexsbFxcXGrd6wuSnLc3T0a6ur/+j9/+fn/9/MPP/iwublFq9UaGYZhGKtd9bPp2vbt32cqLY4JmpyYuHrlil6nN9OR7Jkbo9HQ3d3z2l//96033+ru6raNfFwSiWTdunUrvsAnhIwpxkpKSpapVSmMKCwU2R08+NDWrVshlefyLy8qKyuHzMZoEYQcHBzmWAN0Lu++QCDYsGGD+athhPRaXe61axq1ZtlyvrHOf4lEsnv3bgFfMNOHeHz+1m1bJZJVnO59UbOMo6NjYGCgXq9vamx89513fvbTn/7pT38sLytXKpVTI5Kt0NZxd3fft2/f1xE1BLW0tMjlswQ30zRdXHz91y+9dOnSpVm9AasIX1/fwMBAa7iT7u6unp6eZZM4kUj06KOPHn3ySTYfOcjAcqKaVBUWFJrftMMIhYWFsYPTIh2EMQoKCnJxcZn1k3W36gYHB5d58sIYR0dHBwUFzTRkQ0JDEhITsRXsua6A5GCE+TxeSkoKn89nU4r19/ef/+r8f/zHr37605+eOnWqq6tLr9ez8f7WpzpUysaNAQEBpp6Ty+W1NbVkhtW3wWCQy+UfffTRyy///3V1dbaUbBhjnJycbCWV2YKDg59//vmQkJBlyDrj7uHxwgsvPP300xKJBPRmmc1ZhmG6ujrbZ9u0wxQVHR29yDMM9+Dh6RkXFzfrxxQKRXlZ2VyCxrFFdcnV1XXPnj3T2mF8viA9Pd3V1XVVD9fF+VIwjoqOcnX7ugkYhhkfn6ipqXnttdd++tOfvvXmWw0NDZOTk4Rh0PxDwpYUmUyWkJhgcpvqdLrGpqb711ys3rQ0t/zpj3/86MMPR0dGiZU9yCJffqmDND4+nqIoa3gosVjy0MGDv/3d71548YWQkBDLzjWmtZKdnV3S+qRf/epXDz/88Ordhl3VGI3GwsLCiYkJ8x9zcHCIj4+36BjAAgF/fXKyYLYIY5qmC4uKJicnlntGZtMKBAVhisIUxtQdMEUFBPhv3rx5fjmfELK20tTcxby6GGMvb++k9ev7+s4RhphsYUSQkTZ0tLV3d3ZdungxIiJi9+7dsfFxLi4uFk9rtsB7pzCPz4tcs4bL5dF3Ewx3dXVqNBrTep9di2m12qzLlz/55JP+vv65Ru6uKsLDw8PCwqwh4BJjjDDiUlw/f7/Hn3hi9549dXV1OdnZdXV18uFho8HIhqbMd1FJpjyWnVAYERl54MCB5ORkmUy2sk9tujFiK2OJzLkE1MjIyPXrJdO/UPjuBQgKCgqy8IFHjBDGcfFxXt5e7W3t0zrS7zwFRg0NDfUNDcnJybMMEgqzwdyLt3jYAenm4f70s89U37x5z8Xi4uLc3Nzmfi1WbwhBGFvRIFvsphyfz9+0adPVK1cmJyanXcuMjo4WFxdX3agKDAxK25KWlpbm5eUlFAqtYYJzcnLi8rgmyRkZGb1HcoaGhj799NNLFy9OjE+wo8Fm7BsWDoezbl2svb29VZnqGGMul+vm5ubq6pqSktLb21tfX3/9+vX29naFQqFRaww0PfeO4HA4QqFQJpOFh4fv3LkzOjraycmJ3a1dhmfh8/h2dnbT3C3+ehJY0iSSHA7HbrkqMphElC/gmx9RLS0tQ4ODIpHITMtgjNPS0iybBZG9rEwmS05OHuwfIGYkByEjYywvL4+Li+PzZ3kcPp/PlhOdSXLmkojh60mZy922bdvWrVvZL52ayWle7ylfcGfs4RnWAew8vMw5rhY7hxJCFArF//3x/22or591OHK5XGdn57i4uO3bt8fExLCHY1ZwpVlXV/eDH/xgcvyO7ezl5fXa31739vY2PdrZs2f/9Kc/GWiDrXr63dzcXnn1lYjlPWi9sGGm1WrHx8cHBwfbbre1trT09fUpFAqFQqFUKo1Go8nbyWoJh8NxdHR0dHR0c3cLCg6OjIwMCgqSyWTLmcUEIcQwTHNTs3xoaNqZz+TxYFMCLsWNMQwzPDzc0tS8HLuP+E6lW4ZhpFLp2rVrZzp0SQjp7u7u6uhE04YXUXfmWYxxRESEi4uLxVuGzaXWdrtt+nAh6uuvk0qlERERbG4LM07CpqamkZGRry28+y4rEtuzCaXwXM/ILlYGGIZpbGyUy+V37ny6G+MJ+FFRUcu84rRA6KFEIklKSmyebiPkX1sRGQyGocHBSxcv5uflR0ZGbtu+bUPyBnd3Nx6fj++46qxomsMI6XV6g8Fm9QZjHBcX5+/nvypuVSgUCoVCNze3tWvWslk7tVqtQqEYHx/X6XQ6nc5oMBCEOByOQCAQCoUymaNU6iAS2XF5PHQ33mn5FzdhYWHh4eHYrLtv6ZaZGGNXFxdXFxeEluPJ2Yeay+N4e3v7+vhis6bSkjaLh4eHp4cnni6DDsHzvpqpfPW09oQpC9bcH2fxD44xjoyMNKXtMX9jq8mxxlru27Ztv3zpsvk0qKZnxghr1OqqyspbtbWfuZ9cv3799u3bw8PDRfaiZc7xpdFoTAc5CSF2IruvXRwEEYL0Oh22KUfav7xXYrH9zt27+ELBqrhh00vI4XIQQlwe105kJ3Oy6iycZpbG2KLzi7lGW06fydweh62GOWvLLOn6YC43sMBexvdfcAXcONO0nnXcGNciDxYYGJicnPzll1/OK/+5Xq/v6enp6enJzs6OiYnZtXv3uth1Tk5O7GhY6gUpW7uapmmCCJuJTeYouydT3qwRNavaxFmzdm10dDSkeAEAYDVZORhjgUCQnpFRUFCgUCjmO+8jhMbGxvLz88vLyz28PLdu3ZqamhoYGMjO/kskPGxx4pqaGqPRaHLn+fn7s3uArJHDMMyYcsxWO14gEGRmZjo4OMCRFAAAVpPksBZaeHj42qi1hYVFC3YPajSa9ra2jvaO81+dT05OfuHFF5Yw0SRB8iH5jaobhLnjueXxeKGhoVNPYOn1OvmQ3EZtHBQQEDCXA3EAAAAWxGJOFTs7u4zMTHux/aJCAAgiDDM0OHj16tXW1talO3RpNBqv5eT09PSYbtbZxSUmJmaq6SYfHu7t67PJXudxeZmZmbIHrxwZAAC2IDnsIb6EhIT4+HiLaIROp62qqronspM9m7lIHWJ/vaen5+LFi4Yp5daDAgM9PDy+/gzDtLe1Tx/euvoJCg7evHmzlRzLBQAAJGchquPg4PDQQw/JZI6LvxrDMDU1NePj41OlQqVSVVVVDQwMLCYLAMMw4+PjZ86c6ezsNE249vb2O3fuZHePWE3S6fUV5eU6nc72ulwoFD504ICHhwcEDgAAsIolByEUFxeXmppmgbUzQc3NzfX19VOP+PF4vBtVN371y1+9/977Lc3Nep2OMIT9by7pHNi60WqV+rMTJ7/85z/Z84PsrSckJm7ctAlTXx/dGBwYKC8vt73+xhiHhoWmpqWB3gAAsIolh8XOzm7fvn1OTk6Lv5RKpcrJyZlaI4DL5e7cuVOv0334wQc/++nP/vI/f8nLzVWMjhoNhrm42gjDjAwPf/jBBydOnJh6WVc310e/8ajUQcqWYWbdd0VFRT09PTaW3oZgJBTZHXjoIZnMcZmzXAAAACCEOC+99JIFV9AYY5mjo0KhaGhoWGwqHURGR0cTExPZZN3s1aQSiZPMqbKycmhoqLGxsbCwsLq6WqPROMgcp1YRNiUOYn+LPaxeU13z5ptvXr58WavVmmZbOzu7x594YufOnezGBvv5/v7+v//973K5rYWrURxq06ZNTz31lNDObpUWTgcAACTnX69IcVxcXasqK8fGxhapYDqdjqKohIQELpd7JxcbRXl5elIUVVdXR9O0wWAYHBysqqoqKS1VKBQikUgoFE4tqMwwjEqlamxsPH369Pvvv9f0r1l5uFxuekbGU08/ZUqSz5b+zMnJuXTxImNkbKyzHWWO3/3udwMCAqjVXOIJAIDVyxIU38XIP8D/8JFH/vKXvxj09MIvQxBhmNyca6mbUzekbGBnSYwwXyB46ODB8YmJU6c+02q0hBCdTtd2+3ZnR+f5r74KCAjw9vbx8HC3s7NTq9X9ff09vb3t7W0KxZippixrzXC53NS0tG996zmpVHrXsCKEkJ7uni/OnjPQBhvraUzh1M2b165dC2IDAIDtSA67z5+WlnYtJ6eqsmpR7jWClErlsWPHAgID3N3dWd8XxaHEEvETR5+wtxedOX2GdX9hhBmjcWhwaGhwCONy067MTLFt9hJxRkbG0aNHXd3cpmyk48mJyU8//ZQ9EmRjPe3v7//IkSOm9AoAAADLj+Udayx2dnZubm4VFRVqlWqRl5IPD+v0utjYWDYXOrtIFwqFUWvXhoaGDg4Ojo6O3iMtphM80zwwhxMcEvz8//k/jz766NQiXQzD0Ab6wlfnT5w4QdO0jXWzvb39iy+8mLR+PbjUAACwQclBCDk7O9M0XVtTs8haHYQwHR0dXC43IiLi600djDkU5enhmZSU5OLiotVqJycnTWmhp0UoFIaGhh48ePBb3/pWXFy8QCD4egudED1N517Lfeedd5RKpY31McZ4y9at33jsMaGdEGKjAQBYyeloiTxIrFNrZGTkt7/9bXlZOUJkkZVQRfb23/zms4cfeYStZHcnuowQghAhZFyprK9vqKgor6urkw/J1Ro1TRsQIVwu104kcnF2DgsLS1qfFB0T4+TkRN3N6H4nZIAhRqOhsLDwT3/809DQkK0ZARgFB4e89OuXAgMD2SLqMOgBALA1yWExGo03b978/e9/393Vtfji2xKJ5PAjh4/8q0PMpHAIIZqmVSqVUqkcHx+fmJhAhIjs7R0dHR0cHOzt7dlItvsVRTUxeeXq1Y+PHevt7bW9LRypo8NPfvKT7du3Q3obAABsXHIIIQaDISsr649//KNapV78hMfj87du2/r0008HBQXdvy1h5lnYYzqmz7OfZBhmZHjkzJnTp0+dVi16z8kK4fJ4jz3+2Le+9S3WNIThDgDAyrKEeznobvk/T0/P4eHh2y0WCAMzGo0dnR3V1dUikcjT0/OeWuJ4NqYqkE6rramtfe31165mXZmajMBmoCgqecOGb7/wbSiKAwDAA2HlmOb3gYGB//nz/xTk51vg6zBCBInF4tjY2L179yYkJNiLxQgj87FYhNzZTCKEaDWa5pbmf/7zy/KysuGRYcLYYK1pjPHaqLU/+9nPgkNCYP8GAIAHS3IIQ5qbm1/6r//q6Oiw4JXFYnF0dPTmzZsTEhNcXF2n5ry55wYYhqH1tEKhqK6uLi4qqqioGBsbW2QonRX3KnJ1c/vFz3+xPhmiogEAePAkByHEGIylpaV//vOfe3p6LHt9Pp/v4ubq4eHh5+cXERHh5eVlb2/PViKgaXpycnJ4eLixsbGzo6O/r39wcFCr1dpemMBUZE6yF7/znczMTLbIKUgOAAAPkOTcER6G0Hp9dnb2n//858nJSQt/L74TEMfj8Xg8HpfLZWdbhmFommazsREj8yD0qEAgePa5bz722GMQMgAAgLXBXb6vwojH52/ZtlU5rnz/vfcte+KSTRiNEDLoaVpPY3Rny4fc+WaEHoC5lyBkZyc8cuTRw4cPg94AAGCFLN/GMsYYU1goFO7fv//o0aMikciicoYwwniquBDTz7/+qy3rDUZcHjc9I+OJo0+IxWIY2QAAPNCSYxIekb39ocOHLK46Dzh8Hn///v3PPfeco6Mj1MIBAMA64S7z97FToZ2d6MiRI4SQ48eP2+QZzOXuRS43PSP9+eefd3R0RBAvAACAtYJXJHaLEEIIUavUZ86c+fjYsYmJCeiJhTQjQhgjoVC4d+++Z5991tnFGewbAABAcqaHLdl54fyFD95/X6FQQGfMv/eQQCg8cuTI0aNH2RQDoDcAAIDkmLN1aJ3+yy+/PHbs2ODgIPTHvHBwdHjo4MEnn3xSIpEg8KcBAACSM7vqMMRA0xWVlX97/fW2tjbbPqRpQdzd3b/94gvbtm0TCqEKDgAAIDlzVh2EkNFovHXr1j/efru6upqmDeiBOEizQCgOFRoa9q1vfStlYwpbsw7aBAAAkJx5mjuEDA0Nvffee5cvX9ZqtRisneng8fkbUja8+OKLAQEBkD8NAACQnIXbOgihiYmJc+fOfX7mzNDgkM2m3VxYV2Hs4OCw/8D+I48+6urqCmIDAABIjgXQ6/W3bt169x/vVNfUGAw0AnMHIYqigoKCnn7mmbS0VL5AAJs3AACA5FgMhmH6+/tPnjx5JStLoRhDD2RMAcEIIYQRtrcXbdq06amnngoMCoJ60gAAgOQsiepotdrKysqPP/64rvaWwWB4wHoGEYQ4HI6/v//Ro0e3bNnCVgMCvQEAACRnaZb5hDAM09/X9/nnZ3OyswcHBxmGeRDmXIwxQcRRJktLSzt06FBISAiHw0Fw8gYAAJCcpbZ1EEK0nm5paTlx4sT14uIHISebQCBYF7vukSNH1q9fz+fzEUKweQMAAEjO8pk7CKHx8fGSkpJzZ882NjWp1WqMbLAkAY/PDw4O3r9/35atW52dncGsAQAAJGfFLB5CiFKpLCoq+vLLLxsbGvU6ne2IDY/n4+Oz78D+7du3u7q6UhQFlg0AACA5VqE9crk8Py/v0sVLzc3NNE0TQlajQcDeNpfL9fX13bNnz/bt2718vCEmDQAAkBzrmqnZ5GxDQ0NVVVUFBflVlVWTk5Or6+goxtje3j48PHzb9m2JiYne3j4cDgdTkA0aAACQHCu2eCYnJ2/dupV77VppWdnQ0BBjMFrnrE3u3hRFUU4yWXRMzJ7de2LWxTg5OYHMAAAAkrN6LB5CaJru7u6uqakpKy1rqK9XKBQ0TVvVrVJcjkQiiYyMTE5OjomJCQgIEAqFGGPYswEAACRntSqQWqXu7uoqKyu7ceNGc3Pz2NgYG3ewUrfE4XDEYnFwcHBsfFxCQkJwcLBUKgWZAQAAJMc2ZAcRwjAM0Wo1XV1dra23m5oaGxuberq7VSoVbaAJIXhqbQRsmWBrjL9uTC6XKxKJPD09IyMjQ8NCQ0ND/QMC7O3t2fQB4EYDAAAkx2bR6/VKpbK/v7+9vb22pqa3r29wYGBMqdRptQzDIIQJImw7zKtiArmrWBhjDsXh83liicTT09PLyysiIiI8PNzL08tR5sjn80FjAAAAHhTJYTd72D+zqduGh4eHhoaGh4flcvnIyIhcLpfL5QqFQqvW0DRtNBoZhrnHHcduulAUxeFwuFyunZ2dzEkmc3JydnZ2d3d3uYu7uzubDM30i+BDAwAAeIAkx7waGY1Gmqa1Wq1Go9FrdVqtlqZpmqY1Go1OpzMyDCIEYywQCOzt7Xl8PpfDEQgEQjs7oZ1QKBRyuVwejwd2DAAAAEjOnFRnyl/uVsD+l1aZ+hf89Yfw1wYQjCQAAACQHAAAAMBagG0GAAAAACQHAAAAAMkBAAAAAJAcAAAAACQHAAAAAMmBJgAAAABAcgAAAACQHAAAAAAAyQEAAABAcgAAAACQHAAAAAAAyQEAAABAcgAAAAAAJAcAAAAAyQEAAABAcgAAAAAAJAcAAAAAyQEAAAAAkBwAAAAAJAcAAAAAyQEAAAAAkBwAAAAAJAcAAAAAQHIAAAAAkBwAAAAAJAcAAAAAQHIAAAAAkBwAAAAAAMkBAAAAQHIAAAAAkBwAAAAAAMkBAAAAQHIAAAAAACQHAAAAAMkBAAAAQHIAAAAAACQHAAAAAMkBAAAAAJAcAAAAACQHAAAAAMkBAAAAAJAcAAAAACQHAAAAAEByAAAAAJAcAAAAACQHAAAAAEByAAAAAJAcAAAAAADJAQAAAEByAAAAAJAcAAAAAADJAQAAAEByAAAAAAAkBwAAAADJAQAAAEByAAAAAAAkBwAAAADJAQAAAACQHAAAAAAkBwAAAADJAQAAAACQHAAAAAAkBwAAAABAcgAAAACQHAAAAAAkBwAAAABAcgAAAACQHAAAAAAAyQEAAABAcgAAAIAHkf8HPA53U1xvmPYAAAAASUVORK5CYII=;" parent="1" vertex="1">
          <mxGeometry x="1186.44" y="670" width="267.12" height="150" as="geometry" />
        </mxCell>
        <mxCell id="4LaL1iU1O6QQDgwiPbJz-7" style="edgeStyle=orthogonalEdgeStyle;rounded=0;orthogonalLoop=1;jettySize=auto;html=1;exitX=0;exitY=0.75;exitDx=0;exitDy=0;entryX=0.984;entryY=0.703;entryDx=0;entryDy=0;entryPerimeter=0;strokeWidth=3;" parent="1" source="4LaL1iU1O6QQDgwiPbJz-3" target="4LaL1iU1O6QQDgwiPbJz-1" edge="1">
          <mxGeometry relative="1" as="geometry" />
        </mxCell>
        <mxCell id="4LaL1iU1O6QQDgwiPbJz-8" style="edgeStyle=orthogonalEdgeStyle;rounded=0;orthogonalLoop=1;jettySize=auto;html=1;exitX=1;exitY=0.25;exitDx=0;exitDy=0;strokeWidth=3;" parent="1" source="4LaL1iU1O6QQDgwiPbJz-1" edge="1">
          <mxGeometry relative="1" as="geometry">
            <mxPoint x="730" y="368" as="targetPoint" />
          </mxGeometry>
        </mxCell>
        <mxCell id="4LaL1iU1O6QQDgwiPbJz-13" style="edgeStyle=orthogonalEdgeStyle;rounded=0;orthogonalLoop=1;jettySize=auto;html=1;exitX=0.75;exitY=1;exitDx=0;exitDy=0;entryX=0.817;entryY=-0.032;entryDx=0;entryDy=0;entryPerimeter=0;strokeWidth=3;" parent="1" source="4LaL1iU1O6QQDgwiPbJz-2" target="4LaL1iU1O6QQDgwiPbJz-4" edge="1">
          <mxGeometry relative="1" as="geometry" />
        </mxCell>
        <mxCell id="4LaL1iU1O6QQDgwiPbJz-14" style="edgeStyle=orthogonalEdgeStyle;rounded=0;orthogonalLoop=1;jettySize=auto;html=1;exitX=0.25;exitY=0;exitDx=0;exitDy=0;entryX=0.303;entryY=1.015;entryDx=0;entryDy=0;entryPerimeter=0;strokeWidth=3;" parent="1" source="4LaL1iU1O6QQDgwiPbJz-4" target="4LaL1iU1O6QQDgwiPbJz-2" edge="1">
          <mxGeometry relative="1" as="geometry" />
        </mxCell>
        <mxCell id="4LaL1iU1O6QQDgwiPbJz-18" value="Resquest" style="text;html=1;whiteSpace=wrap;strokeColor=none;fillColor=none;align=center;verticalAlign=middle;rounded=0;fontSize=15;" parent="1" vertex="1">
          <mxGeometry x="550" y="360" width="90" height="50" as="geometry" />
        </mxCell>
        <mxCell id="4LaL1iU1O6QQDgwiPbJz-21" value="Response" style="text;html=1;whiteSpace=wrap;strokeColor=none;fillColor=none;align=center;verticalAlign=middle;rounded=0;fontSize=15;" parent="1" vertex="1">
          <mxGeometry x="550" y="450" width="90" height="50" as="geometry" />
        </mxCell>
        <mxCell id="4LaL1iU1O6QQDgwiPbJz-22" value="Query" style="text;html=1;whiteSpace=wrap;strokeColor=none;fillColor=none;align=center;verticalAlign=middle;rounded=0;fontSize=15;" parent="1" vertex="1">
          <mxGeometry x="1010" y="355" width="90" height="50" as="geometry" />
        </mxCell>
        <mxCell id="4LaL1iU1O6QQDgwiPbJz-23" value="Result" style="text;html=1;whiteSpace=wrap;strokeColor=none;fillColor=none;align=center;verticalAlign=middle;rounded=0;fontSize=15;" parent="1" vertex="1">
          <mxGeometry x="1010" y="430" width="90" height="50" as="geometry" />
        </mxCell>
        <mxCell id="4LaL1iU1O6QQDgwiPbJz-24" value="API&lt;div&gt;Request&lt;/div&gt;" style="text;html=1;whiteSpace=wrap;strokeColor=none;fillColor=none;align=center;verticalAlign=middle;rounded=0;fontSize=15;" parent="1" vertex="1">
          <mxGeometry x="1400" y="550" width="90" height="50" as="geometry" />
        </mxCell>
        <mxCell id="4LaL1iU1O6QQDgwiPbJz-25" value="API&lt;div&gt;Response&lt;/div&gt;" style="text;html=1;whiteSpace=wrap;strokeColor=none;fillColor=none;align=center;verticalAlign=middle;rounded=0;fontSize=15;" parent="1" vertex="1">
          <mxGeometry x="1170" y="550" width="90" height="50" as="geometry" />
        </mxCell>
      </root>
    </mxGraphModel>
  </diagram>
  <diagram id="iGb3t0BqcabgQ69D5Kzq" name="페이지-2">
    <mxGraphModel dx="1042" dy="614" grid="0" gridSize="10" guides="1" tooltips="1" connect="1" arrows="1" fold="1" page="0" pageScale="1" pageWidth="827" pageHeight="1169" math="0" shadow="0">
      <root>
        <mxCell id="0" />
        <mxCell id="1" parent="0" />
      </root>
    </mxGraphModel>
  </diagram>
</mxfile>
